HuanleSans.glyphspackage
{
glyphname = exclam;
layers = (
{
layerId = "DE016B7A-D921-4FAF-BA9C-94A7D66B995D";
shapes = (
{
closed = 1;
nodes = (
(104,657,l),
(96,647,l),
(97,224,l),
(106,214,l),
(156,220,l),
(180,650,l),
(170,661,l)
);
},
{
closed = 1;
nodes = (
(82,105,o),
(58,80,o),
(58,43,cs),
(58,5,o),
(79,-17,o),
(117,-17,cs),
(154,-17,o),
(178,8,o),
(178,47,cs),
(178,83,o),
(157,105,o),
(121,105,cs)
);
}
);
width = 257;
}
);
unicode = 33;
}
{
glyphname = numbersign;
layers = (
{
layerId = "DE016B7A-D921-4FAF-BA9C-94A7D66B995D";
shapes = (
{
closed = 1;
nodes = (
(367,574,l),
(244,38,l),
(248,32,l),
(288,32,l),
(411,567,l),
(407,574,l)
);
},
{
closed = 1;
nodes = (
(23,248,l),
(20,210,l),
(25,205,l),
(448,205,l),
(452,243,l),
(447,248,l)
);
},
{
closed = 1;
nodes = (
(210,574,l),
(86,38,l),
(91,32,l),
(131,32,l),
(254,567,l),
(249,574,l)
);
},
{
closed = 1;
nodes = (
(59,410,l),
(56,372,l),
(61,367,l),
(484,367,l),
(488,405,l),
(483,410,l)
);
}
);
width = 508;
}
);
unicode = 35;
}
{
glyphname = dollar;
layers = (
{
layerId = "DE016B7A-D921-4FAF-BA9C-94A7D66B995D";
shapes = (
{
closed = 1;
nodes = (
(197,465,l),
(162,32,l),
(212,32,l),
(248,465,l)
);
},
{
closed = 1;
nodes = (
(162,32,l),
(150,-122,l),
(158,-130,l),
(199,-130,l),
(212,32,l)
);
},
{
closed = 1;
nodes = (
(210,642,l),
(197,465,l),
(247,465,l),
(261,634,l),
(252,642,l)
);
},
{
closed = 1;
nodes = (
(113,502,o),
(44,440,o),
(44,362,cs),
(44,214,o),
(293,231,o),
(293,128,cs),
(293,87,o),
(251,49,o),
(188,49,cs),
(145,49,o),
(88,68,o),
(49,106,c),
(39,102,l),
(31,28,l),
(78,5,o),
(134,-5,o),
(179,-5,cs),
(296,-5,o),
(362,64,o),
(362,140,cs),
(362,288,o),
(113,272,o),
(113,371,cs),
(113,407,o),
(149,447,o),
(215,447,cs),
(252,447,o),
(286,435,o),
(323,406,c),
(335,409,l),
(347,478,l),
(304,495,o),
(260,502,o),
(223,502,cs)
);
}
);
width = 402;
}
);
metricLeft = "=s";
metricRight = "=s";
unicode = 36;
}
{
glyphname = percent;
layers = (
{
layerId = "DE016B7A-D921-4FAF-BA9C-94A7D66B995D";
shapes = (
{
closed = 0;
nodes = (
(160,516,l)
);
},
{
closed = 1;
nodes = (
(93,646.445,o),
(39,582.395,o),
(39,464.36,cs),
(39,352.73,o),
(90,291.425,o),
(182,291.425,cs),
(281,291.425,o),
(334,355.475,o),
(334,474.425,cs),
(334,585.14,o),
(284,646.445,o),
(192,646.445,cs)
);
},
{
closed = 1;
nodes = (
(245,584.225,o),
(275,544.88,o),
(275,465.275,cs),
(275,389.33,o),
(246,349.985,o),
(187,349.985,cs),
(128,349.985,o),
(99,389.33,o),
(99,469.85,cs),
(99,545.795,o),
(128,584.225,o),
(186,584.225,cs)
);
},
{
closed = 1;
nodes = (
(139,-57,l),
(144,-69,l),
(182,-91,l),
(652,643,l),
(646,657,l),
(609,679,l)
);
},
{
closed = 1;
nodes = (
(546,350.445,o),
(492,286.395,o),
(492,168.36,cs),
(492,56.73,o),
(543,-4.575,o),
(635,-4.575,cs),
(734,-4.575,o),
(787,59.475,o),
(787,178.425,cs),
(787,289.14,o),
(737,350.445,o),
(645,350.445,cs)
);
},
{
closed = 1;
nodes = (
(698,288.225,o),
(728,248.88,o),
(728,169.275,cs),
(728,93.33,o),
(699,53.985,o),
(640,53.985,cs),
(581,53.985,o),
(552,93.33,o),
(552,173.85,cs),
(552,249.795,o),
(581,288.225,o),
(639,288.225,cs)
);
}
);
width = 827;
}
);
unicode = 37;
}
{
glyphname = ampersand;
layers = (
{
layerId = "DE016B7A-D921-4FAF-BA9C-94A7D66B995D";
shapes = (
{
closed = 1;
nodes = (
(171,647,o),
(103,586,o),
(103,489,cs),
(103,429,o),
(129,380,o),
(190,328,cs),
(600,-39,l),
(606,-40,l),
(624,-30,o),
(640,-17,o),
(654,-2,c),
(654,4,l),
(241,372,ls),
(193,412,o),
(177,444,o),
(177,484,cs),
(177,548,o),
(217,586,o),
(294,586,cs),
(339,586,o),
(381,574,o),
(422,549,c),
(434,549,l),
(454,612,l),
(404,636,o),
(351,647,o),
(296,647,cs)
);
},
{
closed = 1;
nodes = (
(679,357,l),
(686,411,l),
(680,418,l),
(394,418,l),
(387,363,l),
(392,357,l),
(461,357,l),
(479,322,o),
(488,286,o),
(488,244,cs),
(488,131,o),
(418,54,o),
(294,54,cs),
(197,54,o),
(131,101,o),
(131,182,cs),
(131,238,o),
(164,282,o),
(216,310,c),
(174,369,l),
(173,338,l),
(99,300,o),
(58,244,o),
(58,169,cs),
(58,59,o),
(151,-7,o),
(286,-7,cs),
(450,-7,o),
(546,90,o),
(546,235,cs),
(546,275,o),
(539,311,o),
(525,350,c),
(527,357,l)
);
}
);
width = 696;
}
);
unicode = 38;
}
{
glyphname = quotesingle;
kernLeft = asterisk;
kernRight = asterisk;
layers = (
{
layerId = "DE016B7A-D921-4FAF-BA9C-94A7D66B995D";
shapes = (
{
closed = 1;
nodes = (
(52,634,l),
(58,458,l),
(64,452,l),
(100,457,l),
(108,632,l),
(103,638,l)
);
}
);
width = 157;
}
);
unicode = 39;
}
{
glyphname = parenleft;
layers = (
{
layerId = "DE016B7A-D921-4FAF-BA9C-94A7D66B995D";
shapes = (
{
closed = 1;
nodes = (
(250,662,l),
(132,577,o),
(86,463,o),
(85,257,cs),
(86,56,o),
(132,-56,o),
(250,-142,c),
(257,-142,l),
(281,-118,l),
(281,-112,l),
(180,-33,o),
(141,70,o),
(140,258,cs),
(141,449,o),
(180,554,o),
(281,632,c),
(281,639,l),
(257,662,l)
);
}
);
width = 287;
}
);
unicode = 40;
}
{
glyphname = asterisk;
kernLeft = asterisk;
kernRight = asterisk;
layers = (
{
layerId = "DE016B7A-D921-4FAF-BA9C-94A7D66B995D";
shapes = (
{
closed = 1;
nodes = (
(58,454,l),
(58,447,l),
(77,436,o),
(96,424,o),
(116,418,c),
(173,511,l),
(173,521,l),
(142,537,l)
);
},
{
closed = 1;
nodes = (
(44,655,l),
(37,635,o),
(35,610,o),
(35,591,c),
(136,557,l),
(144,561,l),
(149,596,l),
(51,657,l)
);
},
{
closed = 1;
nodes = (
(192,515,l),
(237,401,l),
(245,400,l),
(262,413,o),
(278,427,o),
(289,446,c),
(227,537,l),
(217,538,l)
);
},
{
closed = 1;
nodes = (
(202,735,o),
(181,732,o),
(161,725,c),
(163,611,l),
(169,604,l),
(204,608,l),
(228,728,l),
(224,735,l)
);
},
{
closed = 1;
nodes = (
(220,598,l),
(216,589,l),
(232,557,l),
(343,572,l),
(348,577,l),
(341,598,o),
(330,618,o),
(319,635,c)
);
}
);
width = 375;
}
);
unicode = 42;
}
{
glyphname = plus;
layers = (
{
layerId = "DE016B7A-D921-4FAF-BA9C-94A7D66B995D";
shapes = (
{
closed = 1;
nodes = (
(214,470,l),
(214,294,l),
(39,294,l),
(34,241,l),
(40,235,l),
(214,235,l),
(214,61,l),
(221,55,l),
(274,59,l),
(274,235,l),
(449,235,l),
(454,288,l),
(447,294,l),
(274,294,l),
(274,468,l),
(267,475,l)
);
}
);
width = 487;
}
);
unicode = 43;
}
{
glyphname = comma;
kernLeft = period;
kernRight = period;
layers = (
{
layerId = "DE016B7A-D921-4FAF-BA9C-94A7D66B995D";
shapes = (
{
closed = 1;
nodes = (
(107,110,o),
(82,98,o),
(59,83,c),
(59,73,l),
(84,55,o),
(98,35,o),
(98,12,c),
(98,-26,o),
(74,-63,o),
(29,-100,c),
(29,-108,l),
(66,-141,l),
(147,-82,o),
(187,-25,o),
(187,32,c),
(187,67,o),
(168,95,o),
(134,118,c)
);
}
);
width = 229;
}
);
unicode = 44;
}
{
glyphname = period;
kernLeft = period;
kernRight = period;
layers = (
{
layerId = "DE016B7A-D921-4FAF-BA9C-94A7D66B995D";
shapes = (
{
closed = 1;
nodes = (
(78,105,o),
(54,80,o),
(54,43,cs),
(54,5,o),
(75,-17,o),
(113,-17,cs),
(150,-17,o),
(174,8,o),
(174,47,cs),
(174,83,o),
(153,105,o),
(117,105,cs)
);
}
);
width = 229;
}
);
unicode = 46;
}
{
glyphname = slash;
layers = (
{
layerId = "DE016B7A-D921-4FAF-BA9C-94A7D66B995D";
shapes = (
{
closed = 1;
nodes = (
(225,678,l),
(20,-105,l),
(26,-113,l),
(85,-113,l),
(290,669,l),
(283,678,l)
);
}
);
width = 287;
}
);
unicode = 47;
}
{
glyphname = zero;
layers = (
{
layerId = "DE016B7A-D921-4FAF-BA9C-94A7D66B995D";
shapes = (
{
closed = 1;
nodes = (
(118,648,o),
(45,526,o),
(45,316,cs),
(45,112,o),
(114,-7,o),
(239,-7,cs),
(370,-7,o),
(442,116,o),
(442,327,cs),
(442,530,o),
(373,648,o),
(249,648,cs)
);
},
{
closed = 1;
nodes = (
(329,569,o),
(375,479,o),
(375,317,cs),
(375,158,o),
(330,68,o),
(244,68,cs),
(156,68,o),
(111,160,o),
(111,322,cs),
(111,480,o),
(156,569,o),
(242,569,cs)
);
}
);
width = 487;
}
);
unicode = 48;
}
{
glyphname = one;
layers = (
{
layerId = "DE016B7A-D921-4FAF-BA9C-94A7D66B995D";
shapes = (
{
closed = 1;
nodes = (
(85,419,l),
(85,348,l),
(92,343,l),
(235,468,l),
(236,198,l),
(233,0,l),
(300,0,l),
(296,207,l),
(300,590,l),
(290,599,l)
);
}
);
width = 500;
}
);
unicode = 49;
}
{
glyphname = two;
layers = (
{
layerId = "DE016B7A-D921-4FAF-BA9C-94A7D66B995D";
shapes = (
{
closed = 1;
nodes = (
(183,591,o),
(118,556,o),
(68,500,c),
(79,448,l),
(88,448,l),
(131,502,o),
(184,533,o),
(237,533,cs),
(296,533,o),
(328,496,o),
(328,451,cs),
(328,397,o),
(283,335,o),
(210,239,cs),
(60,45,l),
(60,2,l),
(65,-2,l),
(106,0,l),
(350,0,l),
(455,-3,l),
(463,50,l),
(459,57,l),
(368,54,l),
(148,54,l),
(146,58,l),
(266,219,ls),
(349,331,o),
(393,400,o),
(393,465,cs),
(393,540,o),
(334,591,o),
(251,591,cs)
);
}
);
width = 500;
}
);
unicode = 50;
}
{
glyphname = three;
layers = (
{
layerId = "DE016B7A-D921-4FAF-BA9C-94A7D66B995D";
shapes = (
{
closed = 1;
nodes = (
(181,594,o),
(129,573,o),
(76,530,c),
(86,477,l),
(94,477,l),
(140,517,o),
(180,538,o),
(227,538,cs),
(285,538,o),
(325,505,o),
(325,455,cs),
(325,385,o),
(249,335,o),
(191,335,cs),
(145,334,l),
(143,288,l),
(148,282,l),
(207,282,l),
(302,279,o),
(354,239,o),
(354,172,cs),
(354,97,o),
(287,48,o),
(188,48,cs),
(154,48,o),
(118,54,o),
(84,66,c),
(79,61,l),
(84,4,l),
(114,-1,o),
(153,-5,o),
(184,-5,cs),
(323,-5,o),
(417,70,o),
(417,180,cs),
(417,250,o),
(370,297,o),
(285,316,c),
(285,320,l),
(356,354,o),
(392,413,o),
(392,468,cs),
(392,543,o),
(329,594,o),
(238,594,cs)
);
}
);
width = 500;
}
);
unicode = 51;
}
{
glyphname = four;
layers = (
{
layerId = "DE016B7A-D921-4FAF-BA9C-94A7D66B995D";
shapes = (
{
closed = 1;
nodes = (
(289,586,l),
(42,223,l),
(42,178,l),
(47,172,l),
(106,173,l),
(357,173,l),
(443,172,l),
(447,219,l),
(442,226,l),
(102,226,l),
(288,502,l),
(294,502,l),
(294,210,l),
(292,1,l),
(296,-4,l),
(347,0,l),
(352,6,l),
(348,201,l),
(349,586,l)
);
}
);
width = 500;
}
);
unicode = 52;
}
{
glyphname = five;
layers = (
{
layerId = "DE016B7A-D921-4FAF-BA9C-94A7D66B995D";
shapes = (
{
closed = 1;
nodes = (
(326,640,l),
(171,640,l),
(113,642,l),
(100,630,l),
(96,347,l),
(103,339,l),
(175,339,ls),
(283,339,o),
(336,297,o),
(336,209,cs),
(336,102,o),
(276,59,o),
(158,59,cs),
(128,59,o),
(95,63,o),
(59,71,c),
(52,64,l),
(59,3,l),
(91,-3,o),
(129,-7,o),
(158,-7,cs),
(323,-7,o),
(416,66,o),
(416,216,cs),
(416,325,o),
(329,402,o),
(191,402,cs),
(162,402,l),
(167,573,l),
(336,573,l),
(405,567,l),
(412,573,l),
(420,638,l),
(414,644,l)
);
}
);
width = 487;
}
);
unicode = 53;
}
{
glyphname = six;
layers = (
{
layerId = "DE016B7A-D921-4FAF-BA9C-94A7D66B995D";
shapes = (
{
closed = 1;
nodes = (
(360,593,l),
(171,520,o),
(62,382,o),
(62,210,c),
(62,72,o),
(123,-7,o),
(245,-7,c),
(367,-7,o),
(436,68,o),
(436,179,c),
(436,280,o),
(377,346,o),
(277,346,cs),
(224,346,o),
(179,328,o),
(140,299,c),
(127,313,l),
(116,233,l),
(158,273,o),
(207,296,o),
(259,296,cs),
(333,296,o),
(376,251,o),
(376,170,c),
(376,85,o),
(329,40,o),
(250,40,c),
(163,40,o),
(123,99,o),
(123,210,c),
(123,376,o),
(212,484,o),
(415,556,c),
(415,563,l),
(365,593,l)
);
}
);
width = 500;
}
);
unicode = 54;
}
{
glyphname = seven;
layers = (
{
layerId = "DE016B7A-D921-4FAF-BA9C-94A7D66B995D";
shapes = (
{
closed = 1;
nodes = (
(38,519,l),
(44,510,l),
(124,515,l),
(347,515,l),
(101,22,l),
(106,9,l),
(175,-11,l),
(225,111,l),
(430,525,l),
(429,587,l),
(383,586,l),
(140,586,l),
(44,588,l)
);
}
);
width = 487;
}
);
unicode = 55;
}
{
glyphname = eight;
layers = (
{
layerId = "DE016B7A-D921-4FAF-BA9C-94A7D66B995D";
shapes = (
{
closed = 1;
nodes = (
(142,648,o),
(69,585,o),
(69,488,cs),
(69,412,o),
(116,354,o),
(171,328,c),
(171,323,l),
(105,297,o),
(46,235,o),
(46,153,cs),
(46,65,o),
(112,-7,o),
(226,-7,cs),
(344,-7,o),
(422,67,o),
(422,169,cs),
(422,254,o),
(361,308,o),
(298,336,c),
(298,341,l),
(358,369,o),
(404,429,o),
(404,502,cs),
(404,589,o),
(344,648,o),
(246,648,cs)
);
},
{
closed = 1;
nodes = (
(290,273,o),
(350,230,o),
(350,163,cs),
(350,105,o),
(307,53,o),
(233,53,cs),
(162,53,o),
(119,103,o),
(119,162,cs),
(119,231,o),
(173,279,o),
(228,299,c)
);
},
{
closed = 1;
nodes = (
(300,587,o),
(335,548,o),
(335,494,cs),
(335,432,o),
(291,384,o),
(241,363,c),
(188,384,o),
(140,429,o),
(140,490,cs),
(140,546,o),
(180,587,o),
(241,587,cs)
);
}
);
width = 487;
}
);
unicode = 56;
}
{
glyphname = nine;
layers = (
{
layerId = "DE016B7A-D921-4FAF-BA9C-94A7D66B995D";
shapes = (
{
closed = 1;
nodes = (
(121,595,o),
(49,515,o),
(49,406,c),
(49,306,o),
(108,237,o),
(209,237,cs),
(258,237,o),
(300,253,o),
(336,279,c),
(352,261,l),
(365,358,l),
(325,320,o),
(280,299,o),
(233,299,cs),
(164,299,o),
(125,342,o),
(125,419,c),
(125,496,o),
(169,537,o),
(239,537,cs),
(321,537,o),
(356,482,o),
(356,375,c),
(356,212,o),
(273,112,o),
(66,40,c),
(66,31,l),
(133,-7,l),
(138,-7,l),
(325,68,o),
(433,206,o),
(433,376,c),
(433,514,o),
(372,595,o),
(246,595,cs)
);
}
);
width = 487;
}
);
unicode = 57;
}
{
glyphname = greater;
layers = (
{
layerId = "DE016B7A-D921-4FAF-BA9C-94A7D66B995D";
shapes = (
{
closed = 1;
nodes = (
(41,415,l),
(45,407,l),
(382,269,l),
(382,263,l),
(43,133,l),
(56,84,l),
(65,78,l),
(447,229,l),
(447,299,l),
(440,308,l),
(60,464,l)
);
}
);
width = 487;
}
);
unicode = 62;
}
{
glyphname = question;
layers = (
{
layerId = "DE016B7A-D921-4FAF-BA9C-94A7D66B995D";
shapes = (
{
closed = 1;
nodes = (
(75,657,l),
(59,609,l),
(65,601,l),
(199,593,o),
(261,555,o),
(261,491,cs),
(261,454,o),
(239,422,o),
(200,399,cs),
(105,343,l),
(100,333,l),
(108,218,l),
(115,211,l),
(175,218,l),
(169,313,l),
(171,317,l),
(253,370,ls),
(308,404,o),
(338,452,o),
(338,504,cs),
(338,596,o),
(247,652,o),
(85,662,c)
);
},
{
closed = 1;
nodes = (
(110,105,o),
(86,80,o),
(86,43,cs),
(86,5,o),
(107,-17,o),
(145,-17,cs),
(182,-17,o),
(206,8,o),
(206,47,cs),
(206,83,o),
(185,105,o),
(149,105,cs)
);
}
);
width = 332;
}
);
unicode = 63;
}
{
glyphname = at;
kernLeft = O;
kernRight = O;
layers = (
{
layerId = "DE016B7A-D921-4FAF-BA9C-94A7D66B995D";
shapes = (
{
closed = 1;
nodes = (
(204,616,o),
(35,438,o),
(35,187,c),
(35,-52,o),
(203,-196,o),
(454,-199,c),
(480,-157,l),
(477,-148,l),
(246,-148,o),
(94,-20,o),
(94,198,cs),
(94,408,o),
(236,558,o),
(450,560,c),
(628,563,o),
(739,457,o),
(739,297,c),
(739,151,o),
(653,62,o),
(506,56,c),
(454,-4,l),
(674,4,o),
(797,111,o),
(797,300,c),
(797,491,o),
(664,616,o),
(459,616,c)
);
},
{
closed = 1;
nodes = (
(510,432,l),
(506,357,l),
(454,-4,l),
(535,15,l),
(539,110,l),
(589,461,l),
(579,466,l)
);
},
{
closed = 0;
nodes = (
(382,195,l)
);
},
{
closed = 1;
nodes = (
(300,440,o),
(221,288,o),
(221,152,cs),
(221,72,o),
(249,21,o),
(300,-8,c),
(315,-8,l),
(373,47,o),
(426,119,o),
(472,196,c),
(493,196,l),
(508,360,l),
(430,173,o),
(345,80,o),
(323,80,cs),
(310,80,o),
(293,99,o),
(293,173,cs),
(293,298,o),
(349,401,o),
(444,401,c),
(532,367,l),
(562,429,l),
(465,466,l),
(460,466,l)
);
}
);
width = 827;
}
);
unicode = 64;
}
{
color = 0;
glyphname = A;
kernLeft = A;
kernRight = A;
layers = (
{
anchors = (
{
name = bottom;
pos = (286,0);
},
{
name = ogonek;
pos = (550,0);
},
{
name = top;
pos = (287,640);
}
);
layerId = "DE016B7A-D921-4FAF-BA9C-94A7D66B995D";
shapes = (
{
closed = 1;
nodes = (
(254,640,l),
(15,0,l),
(83,0,l),
(98,62,l),
(288,568,l),
(294,568,l),
(466,59,l),
(480,0,l),
(550,0,l),
(332,640,l)
);
},
{
closed = 1;
nodes = (
(283,239,l),
(126,241,l),
(125,182,l),
(277,184,l),
(443,182,l),
(441,241,l)
);
}
);
width = 573;
}
);
unicode = 65;
}
{
glyphname = B;
kernLeft = H;
kernRight = B;
layers = (
{
anchors = (
{
name = bottom;
pos = (282,0);
},
{
name = top;
pos = (275,641);
}
);
layerId = "DE016B7A-D921-4FAF-BA9C-94A7D66B995D";
shapes = (
{
closed = 1;
nodes = (
(92,641,l),
(136,571,l),
(179,572,o),
(222,572,o),
(257,572,cs),
(342,572,o),
(376,544,o),
(376,476,cs),
(376,410,o),
(344,374,o),
(284,360,c),
(124,364,l),
(124,291,l),
(296,293,l),
(374,283,o),
(416,248,o),
(416,184,cs),
(416,108,o),
(356,67,o),
(250,67,cs),
(221,67,o),
(173,70,o),
(141,74,c),
(92,0,l),
(133,-3,o),
(215,-4,o),
(237,-4,cs),
(414,-4,o),
(503,58,o),
(503,179,cs),
(503,264,o),
(459,316,o),
(368,334,c),
(429,360,o),
(464,413,o),
(464,486,cs),
(464,589,o),
(394,642,o),
(275,642,c)
);
},
{
closed = 1;
nodes = (
(91,641,l),
(97,193,l),
(91,0,l),
(178,0,l),
(174,200,l),
(179,641,l)
);
}
);
width = 541;
}
);
unicode = 66;
}
{
glyphname = C;
kernLeft = O;
kernRight = C;
layers = (
{
anchors = (
{
name = bottom;
pos = (306,0);
},
{
name = top;
pos = (314,640);
}
);
layerId = "DE016B7A-D921-4FAF-BA9C-94A7D66B995D";
shapes = (
{
closed = 1;
nodes = (
(142,645,o),
(40,527,o),
(40,316,cs),
(40,109,o),
(137,-6,o),
(308,-6,cs),
(372,-6,o),
(431,12,o),
(487,46,c),
(492,109,l),
(483,113,l),
(435,74,o),
(374,51,o),
(312,51,cs),
(184,51,o),
(109,145,o),
(109,321,cs),
(109,496,o),
(184,588,o),
(317,588,cs),
(378,588,o),
(430,567,o),
(473,532,c),
(481,534,l),
(495,595,l),
(447,627,o),
(387,645,o),
(320,645,cs)
);
}
);
width = 521;
}
);
unicode = 67;
}
{
glyphname = D;
kernLeft = D;
kernRight = D;
layers = (
{
anchors = (
{
name = bottom;
pos = (324,0);
},
{
name = center;
pos = (324,321);
},
{
name = top;
pos = (324,641);
}
);
layerId = "DE016B7A-D921-4FAF-BA9C-94A7D66B995D";
shapes = (
{
closed = 1;
nodes = (
(92,641,l),
(164,569,l),
(194,571,o),
(296,574,o),
(320,574,cs),
(453,574,o),
(522,494,o),
(522,325,cs),
(522,149,o),
(447,65,o),
(316,65,cs),
(291,65,o),
(195,69,o),
(152,74,c),
(92,0,l),
(148,-3,o),
(263,-6,o),
(302,-6,c),
(500,-6,o),
(610,118,o),
(610,343,cs),
(610,538,o),
(509,645,o),
(326,645,c)
);
},
{
closed = 1;
nodes = (
(91,641,l),
(97,193,l),
(91,0,l),
(178,0,l),
(174,200,l),
(179,641,l)
);
}
);
width = 647;
}
);
unicode = 68;
}
{
color = 5;
glyphname = E;
kernLeft = H;
kernRight = E;
layers = (
{
anchors = (
{
name = bottom;
pos = (282,0);
},
{
name = ogonek;
pos = (423,16);
},
{
name = top;
pos = (275,641);
}
);
layerId = "DE016B7A-D921-4FAF-BA9C-94A7D66B995D";
shapes = (
{
closed = 1;
nodes = (
(91,641,l),
(97,193,l),
(91,0,l),
(178,0,l),
(174,200,l),
(179,641,l)
);
},
{
closed = 1;
nodes = (
(304,70,l),
(150,72,l),
(147,7,l),
(150,0,l),
(456,0,l),
(462,67,l),
(457,75,l)
);
},
{
closed = 1;
nodes = (
(295,362,l),
(153,364,l),
(150,299,l),
(153,292,l),
(288,294,l),
(400,291,l),
(407,358,l),
(401,365,l)
);
},
{
closed = 1;
nodes = (
(150,641,l),
(147,575,l),
(150,568,l),
(304,570,l),
(455,566,l),
(462,633,l),
(457,641,l)
);
}
);
width = 485;
}
);
unicode = 69;
}
{
glyphname = F;
kernLeft = H;
kernRight = F;
layers = (
{
layerId = "DE016B7A-D921-4FAF-BA9C-94A7D66B995D";
shapes = (
{
closed = 1;
nodes = (
(96,640,l),
(101,194,l),
(96,0,l),
(164,0,l),
(161,199,l),
(165,640,l)
);
},
{
closed = 1;
nodes = (
(275,344,l),
(145,345,l),
(145,289,l),
(268,289,l),
(377,287,l),
(384,339,l),
(378,346,l)
);
},
{
closed = 1;
nodes = (
(142,640,l),
(139,588,l),
(142,582,l),
(282,583,l),
(427,579,l),
(434,633,l),
(428,640,l)
);
}
);
width = 429;
}
);
unicode = 70;
}
{
glyphname = G;
kernLeft = O;
kernRight = G;
layers = (
{
anchors = (
{
name = bottom;
pos = (307,0);
},
{
name = top;
pos = (326,641);
}
);
layerId = "DE016B7A-D921-4FAF-BA9C-94A7D66B995D";
shapes = (
{
closed = 1;
nodes = (
(152,647,o),
(37,529,o),
(37,307,cs),
(37,108,o),
(129,-7,o),
(326,-7,cs),
(387,-7,o),
(451,4,o),
(538,31,c),
(533,182,l),
(540,283,l),
(447,277,l),
(458,170,l),
(454,89,l),
(397,71,o),
(366,66,o),
(330,66,cs),
(191,66,o),
(126,140,o),
(126,311,cs),
(126,492,o),
(199,575,o),
(338,575,cs),
(398,575,o),
(447,559,o),
(512,519,c),
(522,521,l),
(540,602,l),
(477,634,o),
(417,647,o),
(351,647,cs)
);
}
);
width = 600;
}
);
unicode = 71;
}
{
glyphname = H;
kernLeft = H;
kernRight = H;
layers = (
{
anchors = (
{
name = bottom;
pos = (343,0);
},
{
name = bottomright;
pos = (506,0);
},
{
name = center;
pos = (343,321);
},
{
name = top;
pos = (343,641);
},
{
name = topleft;
pos = (20,641);
}
);
layerId = "DE016B7A-D921-4FAF-BA9C-94A7D66B995D";
shapes = (
{
closed = 1;
nodes = (
(506,641,l),
(510,193,l),
(506,0,l),
(591,0,l),
(589,200,l),
(593,641,l)
);
},
{
closed = 1;
nodes = (
(92,641,l),
(96,193,l),
(92,0,l),
(177,0,l),
(174,200,l),
(178,641,l)
);
},
{
closed = 1;
nodes = (
(163,287,l),
(335,288,l),
(520,287,l),
(520,359,l),
(342,358,l),
(163,359,l)
);
}
);
width = 685;
}
);
unicode = 72;
}
{
color = 3;
glyphname = I;
kernLeft = H;
kernRight = H;
layers = (
{
anchors = (
{
name = bottom;
pos = (130,0);
},
{
name = ogonek;
pos = (164,0);
},
{
name = top;
pos = (131,640);
}
);
layerId = "DE016B7A-D921-4FAF-BA9C-94A7D66B995D";
shapes = (
{
closed = 1;
nodes = (
(96,640,l),
(101,194,l),
(96,0,l),
(164,0,l),
(161,199,l),
(165,640,l)
);
}
);
width = 262;
}
);
unicode = 73;
}
{
color = 4;
glyphname = J;
kernLeft = J;
kernRight = H;
layers = (
{
anchors = (
{
name = top;
pos = (127,640);
}
);
background = {
shapes = (
{
closed = 1;
nodes = (
(96,640,l),
(101,194,l),
(96,0,l),
(164,0,l),
(161,199,l),
(165,640,l)
);
}
);
};
layerId = "DE016B7A-D921-4FAF-BA9C-94A7D66B995D";
shapes = (
{
closed = 1;
nodes = (
(161,282,l),
(165,640,l),
(95,640,l),
(101,275,l),
(101,93,ls),
(101,-41,o),
(191,-172,o),
(325,-191,c),
(332,-191,l),
(344,-179,o),
(354,-166,o),
(361,-152,c),
(360,-143,l),
(249,-133,o),
(164,-16,o),
(163,80,cs)
);
}
);
width = 262;
}
);
unicode = 74;
}
{
glyphname = K;
kernLeft = H;
kernRight = X;
layers = (
{
anchors = (
{
name = bottom;
pos = (284,0);
},
{
name = bottomright;
pos = (465,-5);
},
{
name = top;
pos = (270,640);
}
);
layerId = "DE016B7A-D921-4FAF-BA9C-94A7D66B995D";
shapes = (
{
closed = 1;
nodes = (
(442,640,l),
(401,586,l),
(179,342,l),
(179,337,l),
(268,219,o),
(366,104,o),
(465,-5,c),
(474,-8,l),
(495,-5,o),
(516,-1,o),
(536,6,c),
(537,14,l),
(437,116,o),
(338,229,o),
(251,340,c),
(519,640,l)
);
},
{
closed = 1;
nodes = (
(97,640,l),
(100,194,l),
(97,0,l),
(164,0,l),
(161,199,l),
(164,640,l)
);
}
);
width = 538;
}
);
unicode = 75;
}
{
glyphname = L;
kernLeft = H;
kernRight = L;
layers = (
{
anchors = (
{
name = bottom;
pos = (235,0);
},
{
name = top;
pos = (130,640);
}
);
layerId = "DE016B7A-D921-4FAF-BA9C-94A7D66B995D";
shapes = (
{
closed = 1;
nodes = (
(94,640,l),
(98,194,l),
(94,0,l),
(162,0,l),
(159,199,l),
(163,640,l)
);
},
{
closed = 1;
nodes = (
(136,57,l),
(132,6,l),
(136,0,l),
(403,0,l),
(409,50,l),
(404,57,l)
);
}
);
width = 429;
}
);
unicode = 76;
}
{
glyphname = M;
kernLeft = M;
kernRight = M;
layers = (
{
anchors = (
{
name = bottom;
pos = (395,0);
},
{
name = top;
pos = (395,641);
}
);
layerId = "DE016B7A-D921-4FAF-BA9C-94A7D66B995D";
shapes = (
{
closed = 1;
nodes = (
(571,641,l),
(539,549,l),
(397,185,l),
(390,185,l),
(255,544,l),
(223,641,l),
(125,641,l),
(58,0,l),
(131,0,l),
(148,202,l),
(181,507,l),
(189,507,l),
(354,73,l),
(424,73,l),
(599,507,l),
(606,507,l),
(639,195,l),
(653,0,l),
(730,0,l),
(668,641,l)
);
}
);
width = 790;
}
);
unicode = 77;
}
{
glyphname = N;
kernLeft = H;
kernRight = H;
layers = (
{
anchors = (
{
name = bottom;
pos = (339,0);
},
{
name = top;
pos = (340,641);
}
);
layerId = "DE016B7A-D921-4FAF-BA9C-94A7D66B995D";
shapes = (
{
closed = 1;
nodes = (
(513,637,l),
(514,136,l),
(507,136,l),
(183,641,l),
(93,641,l),
(96,190,l),
(92,0,l),
(170,0,l),
(168,212,l),
(169,505,l),
(175,505,l),
(499,0,l),
(590,0,l),
(588,189,l),
(593,643,l)
);
}
);
width = 684;
}
);
unicode = 78;
}
{
color = 8;
glyphname = O;
kernLeft = O;
kernRight = O;
layers = (
{
anchors = (
{
name = bottom;
pos = (317,0);
},
{
name = center;
pos = (317,320);
},
{
name = ogonek;
pos = (445,26);
},
{
name = top;
pos = (318,640);
},
{
name = topleft;
pos = (20,640);
},
{
name = topright;
pos = (613,640);
}
);
layerId = "DE016B7A-D921-4FAF-BA9C-94A7D66B995D";
shapes = (
{
closed = 1;
nodes = (
(142,646,o),
(40,528,o),
(40,316,cs),
(40,109,o),
(137,-7,o),
(309,-7,cs),
(491,-7,o),
(594,115,o),
(594,332,cs),
(594,534,o),
(497,646,o),
(324,646,c)
);
},
{
closed = 1;
nodes = (
(455,591,o),
(525,502,o),
(525,320,cs),
(525,138,o),
(453,46,o),
(314,46,cs),
(178,46,o),
(109,137,o),
(109,323,cs),
(109,501,o),
(181,591,o),
(319,591,cs)
);
}
);
width = 633;
}
);
unicode = 79;
}
{
glyphname = P;
kernLeft = H;
kernRight = P;
layers = (
{
layerId = "DE016B7A-D921-4FAF-BA9C-94A7D66B995D";
shapes = (
{
closed = 1;
nodes = (
(97,640,l),
(132,582,l),
(268,585,l),
(357,582,o),
(405,538,o),
(405,450,cs),
(405,356,o),
(358,298,o),
(270,285,c),
(123,288,l),
(123,230,l),
(240,230,l),
(387,230,o),
(473,315,o),
(473,455,cs),
(473,575,o),
(404,641,o),
(281,641,c)
);
},
{
closed = 1;
nodes = (
(96,640,l),
(101,194,l),
(96,0,l),
(164,0,l),
(161,199,l),
(165,640,l)
);
}
);
width = 512;
}
);
unicode = 80;
}
{
color = 4;
glyphname = Q;
kernLeft = O;
kernRight = O;
layers = (
{
layerId = "DE016B7A-D921-4FAF-BA9C-94A7D66B995D";
shapes = (
{
closed = 1;
nodes = (
(142,646,o),
(40,528,o),
(40,316,cs),
(40,109,o),
(136,-7,o),
(311,-7,cs),
(491,-7,o),
(594,156,o),
(594,330,cs),
(594,534,o),
(497,646,o),
(324,646,c)
);
},
{
closed = 1;
nodes = (
(454,590,o),
(525,501,o),
(525,325,cs),
(525,301,o),
(525,198,o),
(525,178,cs),
(525,148,o),
(433,49,o),
(314,49,cs),
(179,49,o),
(109,141,o),
(109,321,cs),
(109,500,o),
(179,590,o),
(318,590,cs)
);
},
{
closed = 1;
nodes = (
(532,148,l),
(532,23,l),
(532,-111,o),
(622,-172,o),
(756,-191,c),
(763,-191,l),
(775,-179,o),
(785,-166,o),
(792,-152,c),
(791,-143,l),
(680,-133,o),
(595,-86,o),
(594,10,c),
(594,330,l)
);
}
);
width = 637;
}
);
unicode = 81;
}
{
glyphname = R;
kernLeft = H;
kernRight = R;
layers = (
{
anchors = (
{
name = bottom;
pos = (274,0);
},
{
name = top;
pos = (274,640);
}
);
layerId = "DE016B7A-D921-4FAF-BA9C-94A7D66B995D";
shapes = (
{
closed = 1;
nodes = (
(97,640,l),
(132,582,l),
(268,585,l),
(357,583,o),
(405,541,o),
(405,455,cs),
(405,373,o),
(363,320,o),
(287,299,c),
(123,302,l),
(123,244,l),
(290,244,l),
(406,272,o),
(474,353,o),
(474,460,cs),
(474,577,o),
(404,641,o),
(281,641,c)
);
},
{
closed = 1;
nodes = (
(96,640,l),
(101,194,l),
(96,0,l),
(164,0,l),
(161,199,l),
(165,640,l)
);
},
{
closed = 1;
nodes = (
(262,280,l),
(314,184,o),
(374,89,o),
(437,-3,c),
(447,-8,l),
(468,-6,o),
(488,-1,o),
(507,7,c),
(508,16,l),
(442,103,o),
(381,190,o),
(327,281,c)
);
}
);
width = 547;
}
);
unicode = 82;
}
{
glyphname = S;
kernLeft = S;
kernRight = S;
layers = (
{
anchors = (
{
name = bottom;
pos = (230,0);
},
{
name = top;
pos = (249,641);
}
);
guides = (
{
angle = -41;
pos = (263,195);
}
);
layerId = "DE016B7A-D921-4FAF-BA9C-94A7D66B995D";
shapes = (
{
closed = 1;
nodes = (
(143,647,o),
(57,567,o),
(57,466,cs),
(57,280,o),
(348,298,o),
(348,166,cs),
(348,113,o),
(302,62,o),
(224,62,cs),
(176,62,o),
(113,82,o),
(63,131,c),
(52,126,l),
(41,37,l),
(95,8,o),
(159,-7,o),
(215,-7,cs),
(346,-7,o),
(433,77,o),
(433,178,cs),
(433,364,o),
(141,351,o),
(141,477,cs),
(141,525,o),
(183,577,o),
(258,577,cs),
(301,577,o),
(347,560,o),
(386,529,c),
(400,534,l),
(414,616,l),
(359,639,o),
(308,647,o),
(269,647,cs)
);
}
);
width = 475;
}
);
unicode = 83;
}
{
glyphname = T;
kernLeft = T;
kernRight = T;
layers = (
{
anchors = (
{
name = bottom;
pos = (241,0);
},
{
name = center;
pos = (249,321);
},
{
name = top;
pos = (249,641);
}
);
layerId = "DE016B7A-D921-4FAF-BA9C-94A7D66B995D";
shapes = (
{
closed = 1;
nodes = (
(203,631,l),
(209,193,l),
(203,0,l),
(290,0,l),
(286,200,l),
(291,631,l)
);
},
{
closed = 1;
nodes = (
(28,641,l),
(21,575,l),
(27,567,l),
(142,573,l),
(352,573,l),
(465,567,l),
(471,633,l),
(465,641,l)
);
}
);
width = 491;
}
);
unicode = 84;
}
{
color = 5;
glyphname = U;
kernLeft = U;
kernRight = U;
layers = (
{
anchors = (
{
name = bottom;
pos = (309,0);
},
{
name = ogonek;
pos = (451,32);
},
{
name = top;
pos = (314,640);
}
);
layerId = "DE016B7A-D921-4FAF-BA9C-94A7D66B995D";
shapes = (
{
closed = 1;
nodes = (
(480,640,l),
(482,233,ls),
(483,114,o),
(423,53,o),
(311,53,cs),
(198,53,o),
(139,117,o),
(140,241,cs),
(143,640,l),
(77,640,l),
(77,321,l),
(77,233,ls),
(77,80,o),
(157,-6,o),
(306,-6,cs),
(460,-6,o),
(548,84,o),
(545,240,c),
(545,314,l),
(547,640,l)
);
}
);
width = 623;
}
);
unicode = 85;
}
{
glyphname = V;
kernLeft = V;
kernRight = V;
layers = (
{
anchors = (
{
name = bottom;
pos = (274,0);
},
{
name = top;
pos = (285,640);
}
);
layerId = "DE016B7A-D921-4FAF-BA9C-94A7D66B995D";
shapes = (
{
closed = 1;
nodes = (
(482,640,l),
(467,577,l),
(277,71,l),
(272,71,l),
(100,580,l),
(85,640,l),
(16,640,l),
(234,0,l),
(312,0,l),
(551,640,ls)
);
}
);
width = 558;
}
);
unicode = 86;
}
{
glyphname = W;
kernLeft = V;
kernRight = V;
layers = (
{
anchors = (
{
name = top;
pos = (438,640);
}
);
layerId = "DE016B7A-D921-4FAF-BA9C-94A7D66B995D";
shapes = (
{
closed = 1;
nodes = (
(817,640,l),
(803,579,l),
(619,77,l),
(613,77,l),
(478,557,l),
(463,645,l),
(394,635,l),
(416,557,l),
(273,77,l),
(267,77,l),
(100,583,l),
(89,640,l),
(22,640,l),
(231,0,l),
(308,0,l),
(441,456,l),
(447,456,l),
(571,0,l),
(648,0,l),
(882,640,l)
);
}
);
width = 891;
}
);
unicode = 87;
}
{
glyphname = X;
kernLeft = X;
kernRight = X;
layers = (
{
anchors = (
{
name = bottom;
pos = (298,0);
},
{
name = top;
pos = (298,641);
}
);
layerId = "DE016B7A-D921-4FAF-BA9C-94A7D66B995D";
shapes = (
{
closed = 1;
nodes = (
(461,641,l),
(435,590,l),
(300,389,l),
(166,589,l),
(139,641,l),
(35,641,l),
(244,323,l),
(28,0,l),
(119,0,l),
(145,48,l),
(294,267,l),
(438,53,l),
(466,0,l),
(570,0,l),
(352,334,l),
(554,641,l)
);
}
);
width = 596;
}
);
unicode = 88;
}
{
glyphname = Y;
kernLeft = Y;
kernRight = Y;
layers = (
{
anchors = (
{
name = bottom;
pos = (249,0);
},
{
name = center;
pos = (251,182);
},
{
name = top;
pos = (258,640);
}
);
layerId = "DE016B7A-D921-4FAF-BA9C-94A7D66B995D";
shapes = (
{
closed = 1;
nodes = (
(432,640,l),
(418,605,l),
(257,308,l),
(250,308,l),
(103,606,l),
(91,640,l),
(17,640,l),
(239,195,l),
(261,195,l),
(504,640,l)
);
},
{
closed = 1;
nodes = (
(219,271,l),
(221,189,l),
(218,0,l),
(284,0,l),
(282,189,l),
(284,271,l)
);
}
);
width = 521;
}
);
unicode = 89;
}
{
glyphname = Z;
kernLeft = Z;
kernRight = Z;
layers = (
{
anchors = (
{
name = bottom;
pos = (265,0);
},
{
name = top;
pos = (265,641);
}
);
layerId = "DE016B7A-D921-4FAF-BA9C-94A7D66B995D";
shapes = (
{
closed = 1;
nodes = (
(438,641,l),
(164,641,l),
(49,642,l),
(42,569,l),
(47,563,l),
(147,571,l),
(387,571,l),
(31,60,l),
(31,-3,l),
(90,0,l),
(367,0,l),
(488,-2,l),
(495,71,l),
(491,77,l),
(393,69,l),
(134,69,l),
(489,578,l),
(489,642,l)
);
}
);
width = 530;
}
);
unicode = 90;
}
{
glyphname = bracketleft;
layers = (
{
layerId = "DE016B7A-D921-4FAF-BA9C-94A7D66B995D";
shapes = (
{
closed = 1;
nodes = (
(102,637,l),
(105,258,l),
(102,-120,l),
(274,-130,l),
(278,-125,l),
(278,-92,l),
(158,-81,l),
(158,597,l),
(278,608,l),
(278,641,l),
(274,647,l)
);
}
);
width = 287;
}
);
unicode = 91;
}
{
glyphname = backslash;
layers = (
{
layerId = "DE016B7A-D921-4FAF-BA9C-94A7D66B995D";
shapes = (
{
closed = 1;
nodes = (
(268,-113,l),
(274,-105,l),
(69,678,l),
(11,678,l),
(4,669,l),
(209,-113,l)
);
}
);
width = 287;
}
);
unicode = 92;
}
{
glyphname = asciicircum;
layers = (
{
layerId = "DE016B7A-D921-4FAF-BA9C-94A7D66B995D";
shapes = (
{
closed = 1;
nodes = (
(215,590,l),
(206,585,l),
(50,229,l),
(99,210,l),
(107,215,l),
(245,527,l),
(251,527,l),
(381,213,l),
(430,225,l),
(436,233,l),
(285,590,l)
);
}
);
width = 487;
}
);
unicode = 94;
}
{
glyphname = underscore;
kernLeft = period;
kernRight = period;
layers = (
{
layerId = "DE016B7A-D921-4FAF-BA9C-94A7D66B995D";
shapes = (
{
closed = 1;
nodes = (
(-10,-88,l),
(-15,-137,l),
(-9,-144,l),
(459,-144,l),
(464,-94,l),
(458,-88,l)
);
}
);
width = 449;
}
);
unicode = 95;
}
{
color = 5;
glyphname = a;
kernLeft = a;
kernRight = u;
layers = (
{
anchors = (
{
name = bottom;
pos = (248,0);
},
{
name = ogonek;
pos = (432,10);
},
{
name = top;
pos = (234,459);
},
{
name = topright;
pos = (426,459);
}
);
layerId = "DE016B7A-D921-4FAF-BA9C-94A7D66B995D";
shapes = (
{
closed = 1;
nodes = (
(184,467,o),
(125,446,o),
(69,406,c),
(80,344,l),
(88,340,l),
(140,385,o),
(184,406,o),
(230,406,cs),
(278,406,o),
(307,379,o),
(307,327,c),
(307,265,l),
(145,227,ls),
(85,213,o),
(51,181,o),
(51,119,cs),
(51,42,o),
(104,-7,o),
(196,-7,c),
(233,8,o),
(277,34,o),
(310,68,c),
(317,68,l),
(333,25,o),
(340,8,o),
(354,-10,c),
(432,10,l),
(419,25,o),
(408,39,o),
(399,55,cs),
(390,71,o),
(384,93,o),
(384,121,cs),
(384,157,o),
(385,310,o),
(385,346,cs),
(386,422,o),
(329,467,o),
(243,467,cs)
);
},
{
closed = 1;
nodes = (
(309,132,l),
(273,89,o),
(231,63,o),
(192,63,cs),
(153,63,o),
(127,88,o),
(127,131,cs),
(127,159,o),
(138,170,o),
(162,176,cs),
(309,211,l)
);
}
);
width = 460;
}
);
unicode = 97;
}
{
glyphname = b;
kernLeft = h;
kernRight = o;
layers = (
{
anchors = (
{
name = bottom;
pos = (241,0);
},
{
name = top;
pos = (241,457);
}
);
layerId = "DE016B7A-D921-4FAF-BA9C-94A7D66B995D";
shapes = (
{
closed = 1;
nodes = (
(225,451,o),
(187,431,o),
(144,393,c),
(126,393,l),
(129,323,l),
(176,380,o),
(221,406,o),
(269,406,cs),
(344,406,o),
(386,343,o),
(387,235,cs),
(389,106,o),
(330,42,o),
(237,42,cs),
(193,42,o),
(143,54,o),
(89,100,c),
(84,28,l),
(129,10,o),
(181,-7,o),
(232,-7,cs),
(369,-7,o),
(450,82,o),
(450,242,cs),
(450,380,o),
(389,462,o),
(275,462,cs)
);
},
{
closed = 1;
nodes = (
(74,696,l),
(79,192,l),
(74,31,l),
(89,26,l),
(140,17,l),
(136,200,l),
(141,702,l)
);
}
);
width = 497;
}
);
metricLeft = l;
metricRight = o;
unicode = 98;
}
{
glyphname = c;
kernLeft = o;
kernRight = c;
layers = (
{
anchors = (
{
name = bottom;
pos = (234,0);
},
{
name = top;
pos = (236,457);
}
);
layerId = "DE016B7A-D921-4FAF-BA9C-94A7D66B995D";
shapes = (
{
closed = 1;
nodes = (
(120,464,o),
(45,371,o),
(45,225,cs),
(45,82,o),
(118,-7,o),
(236,-7,cs),
(280,-7,o),
(325,5,o),
(360,22,c),
(367,79,l),
(359,83,l),
(325,61,o),
(282,47,o),
(244,47,cs),
(159,47,o),
(108,117,o),
(108,228,cs),
(108,341,o),
(159,408,o),
(240,408,cs),
(278,408,o),
(317,393,o),
(346,374,c),
(354,376,l),
(367,434,l),
(334,452,o),
(285,464,o),
(242,464,cs)
);
}
);
width = 400;
}
);
metricLeft = o;
unicode = 99;
}
{
glyphname = d;
kernLeft = o;
kernRight = l;
layers = (
{
anchors = (
{
name = bottom;
pos = (265,0);
},
{
name = center;
pos = (245,236);
},
{
name = top;
pos = (201,459);
},
{
name = topright;
pos = (503,459);
}
);
layerId = "DE016B7A-D921-4FAF-BA9C-94A7D66B995D";
shapes = (
{
closed = 1;
nodes = (
(289,407,o),
(320,398,o),
(354,382,c),
(357,195,l),
(355,125,l),
(315,80,o),
(282,67,o),
(248,67,cs),
(173,67,o),
(127,127,o),
(125,237,cs),
(123,350,o),
(177,407,o),
(258,407,cs)
);
},
{
closed = 1;
nodes = (
(383,21,o),
(388,8,o),
(402,-10,c),
(480,10,l),
(467,25,o),
(456,39,o),
(447,55,cs),
(438,71,o),
(431,93,o),
(431,121,cs),
(430,202,l),
(441,702,l),
(356,695,l),
(354,458,l),
(325,464,o),
(296,467,o),
(268,467,cs),
(129,467,o),
(45,381,o),
(45,229,cs),
(45,80,o),
(117,-5,o),
(253,-5,c),
(293,13,o),
(319,31,o),
(358,64,c),
(367,64,l)
);
}
);
width = 512;
}
);
metricLeft = o;
unicode = 100;
}
{
color = 5;
glyphname = e;
kernLeft = o;
kernRight = e;
layers = (
{
anchors = (
{
name = bottom;
pos = (254,0);
},
{
name = ogonek;
pos = (398,25);
},
{
name = top;
pos = (243,459);
},
{
name = topright;
pos = (441,459);
}
);
layerId = "DE016B7A-D921-4FAF-BA9C-94A7D66B995D";
shapes = (
{
closed = 1;
nodes = (
(305,-8,o),
(352,3,o),
(398,25,c),
(411,98,l),
(402,104,l),
(363,76,o),
(315,60,o),
(268,60,cs),
(175,60,o),
(124,120,o),
(124,231,cs),
(124,340,o),
(173,407,o),
(254,407,cs),
(313,407,o),
(345,371,o),
(345,305,c),
(343,291,l),
(111,287,l),
(109,230,l),
(409,231,l),
(419,241,l),
(441,382,o),
(379,467,o),
(254,467,cs),
(126,467,o),
(45,374,o),
(45,227,cs),
(45,81,o),
(125,-8,o),
(258,-8,cs)
);
}
);
width = 468;
},
{
anchors = (
{
name = bottom;
pos = (248,0);
},
{
name = ogonek;
pos = (403,10);
},
{
name = top;
pos = (238,459);
}
);
associatedMasterId = "DE016B7A-D921-4FAF-BA9C-94A7D66B995D";
background = {
shapes = (
{
closed = 1;
nodes = (
(449,416,o),
(375,473,o),
(267,473,cs),
(110,473,o),
(36,353,o),
(36,224,cs),
(36,68,o),
(131,-14,o),
(260,-14,cs),
(312,-14,o),
(360,-5,o),
(401,14,c),
(425,132,l),
(389,111,o),
(340,93,o),
(281,93,cs),
(197,93,o),
(155,154,o),
(155,211,cs),
(155,222,l),
(440,230,l),
(449,261,o),
(449,288,o),
(449,306,cs)
);
},
{
closed = 1;
nodes = (
(328,323,o),
(328,307,o),
(326,299,c),
(163,293,l),
(170,346,o),
(211,396,o),
(265,396,cs),
(304,396,o),
(328,363,o),
(328,329,cs)
);
}
);
};
layerId = "EC6ABD6C-2D8B-4DDB-B5D2-DDA6B3895ED2";
name = "Regular Oct 31 16, 11:27";
shapes = (
{
closed = 1;
nodes = (
(122,466,o),
(41,375,o),
(41,226,cs),
(41,82,o),
(119,-8,o),
(251,-8,cs),
(301,-8,o),
(346,6,o),
(384,28,c),
(397,89,l),
(388,94,l),
(349,68,o),
(303,55,o),
(261,55,cs),
(165,55,o),
(117,120,o),
(117,229,cs),
(117,341,o),
(167,409,o),
(248,409,cs),
(309,409,o),
(346,368,o),
(346,300,c),
(344,286,l),
(102,277,l),
(102,231,l),
(403,239,l),
(414,252,l),
(416,263,o),
(418,280,o),
(418,293,cs),
(418,400,o),
(356,466,o),
(249,466,cs)
);
}
);
width = 460;
},
{
anchors = (
{
name = bottom;
pos = (248,0);
},
{
name = ogonek;
pos = (403,10);
},
{
name = top;
pos = (238,459);
}
);
associatedMasterId = "DE016B7A-D921-4FAF-BA9C-94A7D66B995D";
background = {
shapes = (
{
closed = 1;
nodes = (
(122,466,o),
(41,375,o),
(41,226,cs),
(41,82,o),
(119,-8,o),
(251,-8,cs),
(301,-8,o),
(346,6,o),
(384,28,c),
(397,89,l),
(388,94,l),
(349,68,o),
(303,55,o),
(261,55,cs),
(165,55,o),
(117,120,o),
(117,229,cs),
(117,341,o),
(167,409,o),
(248,409,cs),
(309,409,o),
(346,368,o),
(346,300,c),
(344,286,l),
(102,277,l),
(102,231,l),
(403,239,l),
(414,252,l),
(416,263,o),
(418,280,o),
(418,293,cs),
(418,400,o),
(356,466,o),
(249,466,cs)
);
}
);
};
layerId = "FC1AFEB2-AE00-45AA-8952-800851D5EAC9";
name = "Regular Oct 31 16, 11:28";
shapes = (
{
closed = 1;
nodes = (
(122,466,o),
(41,375,o),
(41,226,cs),
(41,82,o),
(121,-8,o),
(251,-8,cs),
(301,-8,o),
(349,5,o),
(392,26,c),
(405,87,l),
(396,92,l),
(352,68,o),
(304,55,o),
(259,55,cs),
(166,55,o),
(117,121,o),
(117,229,cs),
(117,341,o),
(167,409,o),
(248,409,cs),
(309,409,o),
(346,368,o),
(346,300,c),
(344,286,l),
(102,277,l),
(102,231,l),
(403,239,l),
(414,252,l),
(416,263,o),
(418,280,o),
(418,293,cs),
(418,400,o),
(356,466,o),
(249,466,cs)
);
}
);
width = 460;
}
);
metricLeft = o;
unicode = 101;
}
{
glyphname = f;
kernLeft = f;
kernRight = f;
layers = (
{
layerId = "DE016B7A-D921-4FAF-BA9C-94A7D66B995D";
shapes = (
{
closed = 1;
nodes = (
(138,707,o),
(106,644,o),
(107,535,cs),
(110,195,l),
(104,0,l),
(189,0,l),
(183,202,l),
(188,548,ls),
(189,611,o),
(197,639,o),
(238,639,cs),
(251,639,o),
(270,636,o),
(299,622,c),
(305,627,l),
(317,697,l),
(289,703,o),
(260,707,o),
(245,707,cs)
);
},
{
closed = 1;
nodes = (
(40,457,l),
(35,407,l),
(39,401,l),
(304,401,l),
(309,451,l),
(306,457,l)
);
}
);
width = 306;
}
);
unicode = 102;
}
{
glyphname = g;
kernLeft = g;
kernRight = g;
layers = (
{
anchors = (
{
name = bottom;
pos = (246,-191);
},
{
name = center;
pos = (246,-63);
},
{
name = top;
pos = (246,459);
}
);
layerId = "DE016B7A-D921-4FAF-BA9C-94A7D66B995D";
shapes = (
{
closed = 1;
nodes = (
(131,171,l),
(105,154,o),
(84,133,o),
(69,110,c),
(68,-30,o),
(381,49,o),
(381,-56,cs),
(381,-111,o),
(322,-141,o),
(237,-141,cs),
(157,-141,o),
(118,-115,o),
(118,-69,cs),
(118,-38,o),
(160,-11,o),
(209,19,c),
(143,35,l),
(143,24,l),
(108,2,o),
(64,-23,o),
(43,-60,c),
(43,-146,o),
(105,-200,o),
(227,-200,cs),
(358,-200,o),
(456,-136,o),
(456,-40,cs),
(456,108,o),
(149,47,o),
(149,120,cs),
(149,134,o),
(157,144,o),
(182,163,c),
(131,182,l)
);
},
{
closed = 1;
nodes = (
(137,464,o),
(65,405,o),
(65,303,cs),
(65,209,o),
(126,150,o),
(236,150,cs),
(349,150,o),
(421,213,o),
(421,310,cs),
(421,403,o),
(355,464,o),
(245,464,cs)
);
},
{
closed = 1;
nodes = (
(309,407,o),
(345,372,o),
(345,311,cs),
(345,246,o),
(305,207,o),
(240,207,cs),
(176,207,o),
(141,245,o),
(141,307,cs),
(141,372,o),
(179,407,o),
(244,407,cs)
);
},
{
closed = 1;
nodes = (
(412,465,o),
(356,452,o),
(327,446,c),
(392,379,l),
(400,396,l),
(413,400,o),
(425,403,o),
(450,410,c),
(450,468,l),
(442,474,l)
);
}
);
width = 494;
}
);
unicode = 103;
}
{
glyphname = h;
kernLeft = h;
kernRight = n;
layers = (
{
anchors = (
{
name = bottom;
pos = (258,0);
},
{
name = center;
pos = (258,230);
},
{
name = top;
pos = (320,459);
},
{
name = topright;
pos = (444,457);
}
);
layerId = "DE016B7A-D921-4FAF-BA9C-94A7D66B995D";
shapes = (
{
closed = 1;
nodes = (
(252,454,o),
(208,430,o),
(167,395,c),
(151,395,l),
(151,316,l),
(197,365,o),
(245,394,o),
(293,394,cs),
(344,394,o),
(369,361,o),
(368,310,cs),
(362,0,l),
(448,0,l),
(444,200,l),
(446,330,l),
(447,416,o),
(394,465,o),
(291,465,c)
);
},
{
closed = 1;
nodes = (
(75,695,l),
(81,621,l),
(85,195,l),
(79,0,l),
(164,0,l),
(158,202,l),
(165,702,l)
);
}
);
width = 522;
}
);
metricLeft = l;
metricRight = n;
unicode = 104;
}
{
color = 4;
glyphname = j;
kernLeft = j;
kernRight = j;
layers = (
{
anchors = (
{
name = top;
pos = (107,457);
}
);
background = {
shapes = (
{
closed = 1;
nodes = (
(140,0,l),
(138,200,l),
(140,459,l),
(75,452,l),
(77,195,l),
(74,0,l)
);
}
);
};
layerId = "DE016B7A-D921-4FAF-BA9C-94A7D66B995D";
shapes = (
{
closed = 1;
nodes = (
(76,-111,o),
(167,-172,o),
(301,-191,c),
(308,-191,l),
(320,-179,o),
(328,-166,o),
(335,-152,c),
(334,-143,l),
(223,-133,o),
(138,-86,o),
(137,10,cs),
(136,200,l),
(141,457,l),
(138,459,l),
(74,456,l),
(75,410,l),
(78,195,l),
(77,23,ls)
);
}
);
width = 214;
}
);
unicode = 106;
}
{
glyphname = k;
kernLeft = h;
kernRight = x;
layers = (
{
anchors = (
{
name = bottom;
pos = (234,0);
},
{
name = top;
pos = (106,645);
},
{
name = topright;
pos = (209,457);
}
);
layerId = "DE016B7A-D921-4FAF-BA9C-94A7D66B995D";
shapes = (
{
closed = 1;
nodes = (
(335,457,l),
(308,417,l),
(157,247,l),
(157,240,l),
(219,155,o),
(287,73,o),
(357,-5,c),
(365,-8,l),
(385,-5,o),
(406,-2,o),
(424,4,c),
(424,12,l),
(357,87,o),
(288,166,o),
(225,247,c),
(411,457,l)
);
},
{
closed = 1;
nodes = (
(74,696,l),
(78,195,l),
(74,0,l),
(140,0,l),
(136,200,l),
(141,702,l)
);
}
);
width = 433;
}
);
metricLeft = l;
unicode = 107;
}
{
glyphname = l;
kernLeft = h;
kernRight = l;
layers = (
{
anchors = (
{
name = bottom;
pos = (125,0);
},
{
name = top;
pos = (125,680);
},
{
name = topright;
pos = (230,459);
}
);
layerId = "DE016B7A-D921-4FAF-BA9C-94A7D66B995D";
shapes = (
{
closed = 1;
nodes = (
(79,695,l),
(85,618,l),
(89,195,l),
(83,0,l),
(168,0,l),
(162,202,l),
(169,702,l)
);
}
);
width = 248;
}
);
unicode = 108;
}
{
glyphname = m;
kernLeft = n;
kernRight = n;
layers = (
{
anchors = (
{
name = bottom;
pos = (400,0);
},
{
name = top;
pos = (396,459);
}
);
layerId = "DE016B7A-D921-4FAF-BA9C-94A7D66B995D";
shapes = (
{
closed = 1;
nodes = (
(528,453,o),
(480,428,o),
(437,390,c),
(421,390,l),
(430,316,l),
(476,365,o),
(524,394,o),
(572,394,cs),
(623,394,o),
(648,361,o),
(647,310,cs),
(641,0,l),
(727,0,l),
(723,200,l),
(725,330,ls),
(726,416,o),
(673,465,o),
(570,465,c)
);
},
{
closed = 1;
nodes = (
(75,453,l),
(79,194,l),
(74,0,l),
(159,0,l),
(154,201,l),
(156,461,l)
);
},
{
closed = 1;
nodes = (
(247,454,o),
(203,430,o),
(162,395,c),
(146,395,l),
(146,316,l),
(192,365,o),
(240,394,o),
(288,394,cs),
(339,394,o),
(364,361,o),
(363,310,cs),
(357,0,l),
(443,0,l),
(439,200,l),
(441,330,ls),
(442,416,o),
(389,465,o),
(286,465,c)
);
}
);
width = 801;
}
);
metricLeft = n;
metricRight = n;
unicode = 109;
}
{
glyphname = n;
kernLeft = n;
kernRight = n;
layers = (
{
anchors = (
{
name = bottom;
pos = (248,0);
},
{
name = top;
pos = (261,457);
}
);
layerId = "DE016B7A-D921-4FAF-BA9C-94A7D66B995D";
shapes = (
{
closed = 1;
nodes = (
(235,455,o),
(187,429,o),
(144,389,c),
(131,389,l),
(131,323,l),
(178,375,o),
(229,406,o),
(279,406,cs),
(335,406,o),
(365,370,o),
(364,313,cs),
(359,0,l),
(427,0,l),
(424,198,l),
(425,327,ls),
(426,413,o),
(375,463,o),
(277,463,cs)
);
},
{
closed = 1;
nodes = (
(75,452,l),
(78,195,l),
(74,0,l),
(141,0,l),
(137,200,l),
(139,459,l)
);
}
);
width = 502;
}
);
metricLeft = "=i";
unicode = 110;
}
{
color = 8;
glyphname = o;
kernLeft = o;
kernRight = o;
layers = (
{
anchors = (
{
name = bottom;
pos = (245,0);
},
{
name = center;
pos = (245,229);
},
{
name = ogonek;
pos = (353,29);
},
{
name = top;
pos = (245,457);
},
{
name = topright;
pos = (470,457);
}
);
layerId = "DE016B7A-D921-4FAF-BA9C-94A7D66B995D";
shapes = (
{
closed = 1;
nodes = (
(120,464,o),
(45,375,o),
(45,223,cs),
(45,77,o),
(116,-7,o),
(239,-7,cs),
(368,-7,o),
(443,82,o),
(443,234,cs),
(443,380,o),
(372,464,o),
(250,464,cs)
);
},
{
closed = 1;
nodes = (
(332,416,o),
(380,348,o),
(380,220,cs),
(380,103,o),
(331,41,o),
(243,41,cs),
(157,41,o),
(108,108,o),
(108,237,cs),
(108,352,o),
(157,416,o),
(246,416,cs)
);
}
);
width = 490;
}
);
unicode = 111;
}
{
glyphname = p;
kernLeft = p;
kernRight = o;
layers = (
{
anchors = (
{
name = bottom;
pos = (243,0);
},
{
name = top;
pos = (243,457);
}
);
layerId = "DE016B7A-D921-4FAF-BA9C-94A7D66B995D";
shapes = (
{
closed = 1;
nodes = (
(225,452,o),
(188,432,o),
(144,393,c),
(126,393,l),
(129,323,l),
(176,379,o),
(221,406,o),
(269,406,cs),
(343,406,o),
(386,345,o),
(387,235,cs),
(389,112,o),
(334,42,o),
(237,42,cs),
(192,42,o),
(143,59,o),
(89,95,c),
(84,16,l),
(130,1,o),
(183,-7,o),
(229,-7,cs),
(370,-7,o),
(450,83,o),
(450,242,cs),
(450,383,o),
(387,462,o),
(275,462,cs)
);
},
{
closed = 1;
nodes = (
(74,452,l),
(79,195,l),
(74,-185,l),
(140,-185,l),
(136,200,l),
(139,459,l)
);
}
);
width = 497;
}
);
metricLeft = "=i";
metricRight = o;
unicode = 112;
}
{
glyphname = q;
kernLeft = o;
layers = (
{
anchors = (
{
name = bottom;
pos = (198,0);
},
{
name = center;
pos = (245,230);
},
{
name = top;
pos = (251,459);
}
);
layerId = "DE016B7A-D921-4FAF-BA9C-94A7D66B995D";
shapes = (
{
closed = 1;
nodes = (
(348,460,o),
(307,467,o),
(267,467,cs),
(129,467,o),
(45,383,o),
(45,226,cs),
(45,82,o),
(115,-5,o),
(248,-5,c),
(289,12,o),
(313,26,o),
(347,53,c),
(356,53,l),
(356,34,l),
(352,-195,l),
(441,-195,l),
(435,-118,l),
(430,201,l),
(437,432,l),
(429,437,l),
(387,449,l)
);
},
{
closed = 1;
nodes = (
(289,406,o),
(319,397,o),
(354,378,c),
(357,193,l),
(356,125,l),
(312,80,o),
(278,67,o),
(244,67,cs),
(171,67,o),
(127,128,o),
(125,233,cs),
(123,351,o),
(177,406,o),
(257,406,cs)
);
}
);
width = 509;
}
);
metricLeft = "=o";
metricWidth = "=p";
unicode = 113;
}
{
glyphname = r;
kernLeft = n;
kernRight = r;
layers = (
{
anchors = (
{
name = bottom;
pos = (108,0);
},
{
name = top;
pos = (183,457);
}
);
layerId = "DE016B7A-D921-4FAF-BA9C-94A7D66B995D";
shapes = (
{
closed = 1;
nodes = (
(75,452,l),
(79,195,l),
(74,0,l),
(141,0,l),
(136,200,l),
(139,459,l)
);
},
{
closed = 1;
nodes = (
(232,458,o),
(184,433,o),
(143,361,c),
(132,361,l),
(132,265,l),
(172,356,o),
(211,393,o),
(257,393,cs),
(265,393,o),
(278,392,o),
(291,388,c),
(300,391,l),
(300,456,l),
(293,457,o),
(283,458,o),
(274,458,cs)
);
}
);
width = 320;
}
);
metricLeft = "=i";
unicode = 114;
}
{
glyphname = s;
kernLeft = s;
kernRight = s;
layers = (
{
anchors = (
{
name = bottom;
pos = (171,0);
},
{
name = top;
pos = (182,457);
}
);
layerId = "DE016B7A-D921-4FAF-BA9C-94A7D66B995D";
shapes = (
{
closed = 1;
nodes = (
(107,463,o),
(50,409,o),
(50,335,cs),
(50,195,o),
(261,214,o),
(261,117,cs),
(261,79,o),
(228,41,o),
(170,41,cs),
(132,41,o),
(88,58,o),
(52,89,c),
(43,83,l),
(35,26,l),
(75,4,o),
(121,-7,o),
(164,-7,cs),
(265,-7,o),
(323,57,o),
(323,128,cs),
(323,265,o),
(111,246,o),
(111,343,cs),
(111,380,o),
(143,414,o),
(195,414,cs),
(225,414,o),
(256,404,o),
(289,384,c),
(299,386,l),
(309,441,l),
(273,456,o),
(235,463,o),
(202,463,cs)
);
}
);
width = 367;
}
);
unicode = 115;
}
{
glyphname = t;
kernLeft = u;
kernRight = t;
layers = (
{
anchors = (
{
name = bottom;
pos = (223,0);
},
{
name = center;
pos = (172,242);
},
{
name = top;
pos = (182,550);
},
{
name = topright;
pos = (312,459);
}
);
layerId = "DE016B7A-D921-4FAF-BA9C-94A7D66B995D";
shapes = (
{
closed = 1;
nodes = (
(253,-3,o),
(292,6,o),
(330,23,c),
(338,79,l),
(329,85,l),
(300,70,o),
(268,65,o),
(247,65,cs),
(204,65,o),
(174,82,o),
(175,135,cs),
(183,553,l),
(175,560,l),
(101,528,l),
(103,194,l),
(99,127,l),
(99,48,o),
(130,10,o),
(208,-6,c)
);
},
{
closed = 1;
nodes = (
(314,399,l),
(319,453,l),
(315,459,l),
(40,459,l),
(35,405,l),
(39,399,l)
);
}
);
width = 354;
}
);
unicode = 116;
}
{
color = 5;
glyphname = u;
kernLeft = u;
kernRight = u;
layers = (
{
anchors = (
{
name = bottom;
pos = (257,0);
},
{
name = ogonek;
pos = (434,5);
},
{
name = top;
pos = (253,457);
}
);
layerId = "DE016B7A-D921-4FAF-BA9C-94A7D66B995D";
shapes = (
{
closed = 1;
nodes = (
(262,2,o),
(307,26,o),
(350,67,c),
(370,67,l),
(362,130,l),
(316,79,o),
(265,51,o),
(218,51,cs),
(164,51,o),
(136,87,o),
(137,144,cs),
(141,459,l),
(74,452,l),
(77,248,l),
(75,130,ls),
(74,44,o),
(124,-5,o),
(219,-5,cs)
);
},
{
closed = 1;
nodes = (
(414,459,l),
(351,452,l),
(351,104,ls),
(351,88,o),
(351,75,o),
(353,61,cs),
(358,30,o),
(365,14,o),
(372,-5,c),
(434,5,l),
(424,21,o),
(410,62,o),
(410,93,cs)
);
}
);
width = 484;
}
);
unicode = 117;
}
{
glyphname = v;
kernLeft = v;
kernRight = v;
layers = (
{
anchors = (
{
name = bottom;
pos = (212,0);
},
{
name = top;
pos = (219,459);
}
);
layerId = "DE016B7A-D921-4FAF-BA9C-94A7D66B995D";
shapes = (
{
closed = 1;
nodes = (
(25,457,l),
(166,0,l),
(257,0,l),
(424,459,l),
(348,459,l),
(332,395,l),
(219,84,l),
(213,84,l),
(117,399,l),
(104,462,l)
);
}
);
width = 449;
}
);
unicode = 118;
}
{
glyphname = w;
kernLeft = v;
kernRight = v;
layers = (
{
anchors = (
{
name = bottom;
pos = (333,0);
},
{
name = top;
pos = (336,457);
}
);
layerId = "DE016B7A-D921-4FAF-BA9C-94A7D66B995D";
shapes = (
{
closed = 1;
nodes = (
(20,455,l),
(149,0,l),
(215,0,l),
(333,368,l),
(339,368,l),
(441,0,l),
(505,0,l),
(657,457,l),
(598,457,l),
(583,400,l),
(479,74,l),
(474,74,l),
(384,403,l),
(373,457,l),
(307,457,l),
(292,400,l),
(188,74,l),
(183,74,l),
(93,403,l),
(81,460,l)
);
}
);
width = 665;
}
);
metricLeft = v;
metricRight = v;
unicode = 119;
}
{
glyphname = x;
kernLeft = x;
kernRight = x;
layers = (
{
anchors = (
{
name = bottom;
pos = (219,0);
},
{
name = top;
pos = (219,459);
}
);
layerId = "DE016B7A-D921-4FAF-BA9C-94A7D66B995D";
shapes = (
{
closed = 1;
nodes = (
(23,456,l),
(168,233,l),
(23,0,l),
(101,0,l),
(121,40,l),
(214,185,l),
(309,44,l),
(331,-4,l),
(421,4,l),
(269,234,l),
(410,459,l),
(332,459,l),
(309,417,l),
(225,282,l),
(133,417,l),
(114,462,l)
);
}
);
width = 438;
}
);
unicode = 120;
}
{
glyphname = y;
kernLeft = v;
kernRight = v;
layers = (
{
anchors = (
{
name = bottom;
pos = (313,0);
},
{
name = top;
pos = (218,459);
}
);
layerId = "DE016B7A-D921-4FAF-BA9C-94A7D66B995D";
shapes = (
{
closed = 1;
nodes = (
(8,457,l),
(176,0,l),
(128,-87,o),
(60,-122,o),
(25,-140,c),
(23,-150,l),
(32,-168,o),
(43,-185,o),
(58,-200,c),
(66,-200,l),
(124,-169,o),
(207,-116,o),
(256,18,cs),
(419,459,l),
(344,459,l),
(328,394,l),
(218,91,l),
(211,91,l),
(103,401,l),
(88,462,l)
);
}
);
width = 429;
}
);
unicode = 121;
}
{
glyphname = z;
kernLeft = z;
kernRight = z;
layers = (
{
anchors = (
{
name = bottom;
pos = (207,0);
},
{
name = top;
pos = (207,459);
}
);
layerId = "DE016B7A-D921-4FAF-BA9C-94A7D66B995D";
shapes = (
{
closed = 1;
nodes = (
(39,399,l),
(45,392,l),
(119,400,l),
(286,400,l),
(32,49,l),
(33,-2,l),
(81,0,l),
(278,0,l),
(374,-2,l),
(381,60,l),
(376,67,l),
(299,59,l),
(123,59,l),
(376,408,l),
(374,460,l),
(334,459,l),
(131,459,l),
(46,461,l)
);
}
);
width = 413;
}
);
unicode = 122;
}
{
glyphname = braceleft;
layers = (
{
layerId = "DE016B7A-D921-4FAF-BA9C-94A7D66B995D";
shapes = (
{
closed = 1;
nodes = (
(149,654,o),
(111,616,o),
(111,543,cs),
(111,485,o),
(131,410,o),
(131,366,cs),
(131,316,o),
(105,287,o),
(47,277,c),
(47,241,l),
(105,232,o),
(131,203,o),
(131,153,cs),
(131,108,o),
(111,34,o),
(111,-24,cs),
(111,-97,o),
(149,-136,o),
(222,-136,cs),
(240,-136,o),
(255,-134,o),
(270,-129,c),
(274,-123,l),
(267,-86,l),
(252,-89,o),
(242,-91,o),
(229,-91,cs),
(186,-91,o),
(165,-67,o),
(165,-14,cs),
(165,37,o),
(186,109,o),
(186,155,cs),
(186,204,o),
(163,239,o),
(119,258,c),
(119,261,l),
(163,280,o),
(186,314,o),
(186,364,cs),
(186,410,o),
(165,483,o),
(165,533,cs),
(165,586,o),
(186,609,o),
(229,609,cs),
(242,609,o),
(252,607,o),
(267,604,c),
(274,642,l),
(270,648,l),
(255,652,o),
(240,654,o),
(222,654,cs)
);
}
);
width = 287;
}
);
unicode = 123;
}
{
glyphname = bar;
layers = (
{
layerId = "DE016B7A-D921-4FAF-BA9C-94A7D66B995D";
shapes = (
{
closed = 1;
nodes = (
(124,793,l),
(123,283,l),
(123,-253,l),
(130,-262,l),
(189,-258,l),
(189,288,l),
(190,792,l),
(184,798,l)
);
}
);
width = 313;
}
);
unicode = 124;
}
{
glyphname = cent;
layers = (
{
layerId = "DE016B7A-D921-4FAF-BA9C-94A7D66B995D";
shapes = (
{
closed = 1;
nodes = (
(116,506,o),
(42,414,o),
(42,267,cs),
(42,127,o),
(113,37,o),
(226,37,cs),
(275,37,o),
(323,53,o),
(358,75,c),
(364,117,l),
(356,120,l),
(322,98,o),
(277,84,o),
(237,84,cs),
(148,84,o),
(95,155,o),
(95,271,cs),
(95,387,o),
(149,459,o),
(234,459,cs),
(273,459,o),
(314,444,o),
(342,425,c),
(350,425,l),
(361,469,l),
(328,491,o),
(280,506,o),
(234,506,cs)
);
},
{
closed = 1;
nodes = (
(186,63,l),
(172,-111,l),
(179,-118,l),
(213,-118,l),
(228,63,l)
);
},
{
closed = 1;
nodes = (
(219,480,l),
(186,63,l),
(228,63,l),
(262,480,l)
);
},
{
closed = 1;
nodes = (
(232,651,l),
(219,480,l),
(261,480,l),
(274,644,l),
(267,651,l)
);
}
);
width = 383;
}
);
unicode = 162;
}
{
glyphname = yen;
layers = (
{
layerId = "DE016B7A-D921-4FAF-BA9C-94A7D66B995D";
shapes = (
{
closed = 1;
nodes = (
(25,162,l),
(22,125,l),
(26,120,l),
(465,120,l),
(468,157,l),
(464,162,l)
);
},
{
closed = 1;
nodes = (
(25,295,l),
(22,259,l),
(26,253,l),
(196,253,l),
(188,295,l)
);
},
{
closed = 1;
nodes = (
(294,295,l),
(287,253,l),
(465,253,l),
(469,291,l),
(464,295,l)
);
},
{
closed = 1;
nodes = (
(391,498,l),
(377,467,l),
(247,252,l),
(241,252,l),
(121,469,l),
(110,498,l),
(35,498,l),
(229,136,l),
(253,136,l),
(465,498,ls)
);
},
{
closed = 1;
nodes = (
(209,212,l),
(210,143,l),
(207,0,l),
(277,0,l),
(274,143,l),
(276,212,l)
);
}
);
width = 486;
}
);
unicode = 165;
}
{
glyphname = section;
layers = (
{
layerId = "DE016B7A-D921-4FAF-BA9C-94A7D66B995D";
shapes = (
{
closed = 1;
nodes = (
(124,406,o),
(69,339,o),
(74,268,cs),
(83,133,o),
(307,116,o),
(313,29,cs),
(316,-5,o),
(286,-43,o),
(231,-46,cs),
(189,-49,o),
(144,-32,o),
(104,0,c),
(95,-7,l),
(89,-80,l),
(130,-98,o),
(184,-106,o),
(226,-103,cs),
(325,-96,o),
(390,-27,o),
(385,47,cs),
(376,178,o),
(151,196,o),
(145,289,cs),
(142,325,o),
(172,360,o),
(238,389,c),
(207,432,l)
);
},
{
closed = 1;
nodes = (
(163,643,o),
(99,575,o),
(104,501,cs),
(113,370,o),
(336,356,o),
(343,257,cs),
(346,224,o),
(324,191,o),
(249,160,c),
(283,120,l),
(368,146,o),
(419,211,o),
(414,279,cs),
(404,416,o),
(181,432,o),
(175,518,cs),
(173,550,o),
(201,587,o),
(250,590,cs),
(279,593,o),
(315,583,o),
(353,559,c),
(365,562,l),
(371,635,l),
(333,647,o),
(291,651,o),
(259,649,cs)
);
}
);
width = 487;
}
);
unicode = 167;
}
{
glyphname = copyright;
layers = (
{
layerId = "DE016B7A-D921-4FAF-BA9C-94A7D66B995D";
shapes = (
{
closed = 1;
nodes = (
(259,698,o),
(91,526,o),
(91,293,cs),
(91,60,o),
(259,-112,o),
(487,-112,cs),
(715,-112,o),
(883,60,o),
(883,293,cs),
(883,526,o),
(715,698,o),
(487,698,cs)
);
},
{
closed = 1;
nodes = (
(386,520,o),
(290,423,o),
(290,294,cs),
(290,166,o),
(381,71,o),
(505,71,cs),
(534,71,o),
(586,79,o),
(614,93,c),
(619,146,l),
(613,148,l),
(588,134,o),
(536,126,o),
(509,126,cs),
(423,126,o),
(362,198,o),
(362,299,cs),
(362,397,o),
(423,465,o),
(509,465,cs),
(535,465,o),
(585,457,o),
(607,443,c),
(612,445,l),
(624,498,l),
(596,511,o),
(544,520,o),
(511,520,cs)
);
},
{
closed = 1;
nodes = (
(685,649,o),
(834,497,o),
(834,293,cs),
(834,89,o),
(685,-63,o),
(487,-63,cs),
(288,-63,o),
(140,89,o),
(140,293,cs),
(140,497,o),
(288,649,o),
(487,649,cs)
);
}
);
width = 974;
}
);
unicode = 169;
}
{
glyphname = logicalnot;
layers = (
{
layerId = "DE016B7A-D921-4FAF-BA9C-94A7D66B995D";
shapes = (
{
closed = 1;
nodes = (
(33,354,l),
(28,301,l),
(34,295,l),
(365,295,l),
(365,121,l),
(372,115,l),
(425,119,l),
(425,347,l),
(419,354,l)
);
}
);
width = 487;
}
);
unicode = 172;
}
{
glyphname = softhyphen;
kernLeft = hyphen;
kernRight = hyphen;
layers = (
{
layerId = "DE016B7A-D921-4FAF-BA9C-94A7D66B995D";
shapes = (
{
closed = 1;
nodes = (
(29,268,l),
(29,214,l),
(37,206,l),
(278,241,l),
(278,295,l),
(270,302,l)
);
}
);
width = 307;
}
);
unicode = 173;
}
{
glyphname = registered;
kernLeft = asterisk;
kernRight = asterisk;
layers = (
{
layerId = "DE016B7A-D921-4FAF-BA9C-94A7D66B995D";
shapes = (
{
closed = 1;
nodes = (
(119,710,o),
(33,625,o),
(33,501,cs),
(33,376,o),
(119,290,o),
(243,290,cs),
(368,290,o),
(453,376,o),
(453,501,cs),
(453,625,o),
(368,710,o),
(243,710,cs)
);
},
{
closed = 1;
nodes = (
(174,600,l),
(175,464,l),
(174,406,l),
(216,406,l),
(214,468,l),
(217,600,l)
);
},
{
closed = 1;
nodes = (
(238,491,l),
(254,463,o),
(270,434,o),
(290,406,c),
(294,403,l),
(306,404,o),
(325,406,o),
(335,410,c),
(336,414,l),
(315,439,o),
(296,465,o),
(279,491,c)
);
},
{
closed = 1;
nodes = (
(347,675,o),
(419,604,o),
(419,501,cs),
(419,397,o),
(347,325,o),
(244,325,cs),
(141,325,o),
(69,397,o),
(69,501,cs),
(69,604,o),
(141,675,o),
(244,675,cs)
);
},
{
closed = 1;
nodes = (
(179,600,l),
(200,565,l),
(241,567,l),
(267,566,o),
(280,560,o),
(280,539,cs),
(280,520,o),
(270,515,o),
(250,508,c),
(193,511,l),
(193,474,l),
(251,474,l),
(298,482,o),
(323,510,o),
(323,542,cs),
(323,580,o),
(300,600,o),
(253,600,c)
);
}
);
width = 487;
}
);
unicode = 174;
}
{
glyphname = degree;
kernLeft = asterisk;
kernRight = asterisk;
layers = (
{
layerId = "DE016B7A-D921-4FAF-BA9C-94A7D66B995D";
shapes = (
{
closed = 1;
nodes = (
(167,658,o),
(107,599,o),
(107,523,cs),
(107,447,o),
(167,388,o),
(244,388,cs),
(320,388,o),
(380,447,o),
(380,523,cs),
(380,599,o),
(320,658,o),
(244,658,cs)
);
},
{
closed = 1;
nodes = (
(291,609,o),
(330,570,o),
(330,523,cs),
(330,476,o),
(291,437,o),
(243,437,cs),
(196,437,o),
(156,476,o),
(156,523,cs),
(156,570,o),
(196,609,o),
(243,609,cs)
);
}
);
width = 487;
}
);
unicode = 176;
}
{
glyphname = two.sups;
layers = (
{
layerId = "DE016B7A-D921-4FAF-BA9C-94A7D66B995D";
shapes = (
{
closed = 1;
nodes = (
(129,705,o),
(83,684,o),
(42,651,c),
(54,594,l),
(63,594,l),
(91,625,o),
(128,644,o),
(160,644,cs),
(193,644,o),
(210,625,o),
(210,602,cs),
(210,571,o),
(181,536,o),
(136,481,cs),
(39,369,l),
(39,324,l),
(43,321,l),
(70,322,l),
(235,322,l),
(317,319,l),
(325,378,l),
(322,384,l),
(258,381,l),
(140,381,l),
(138,383,l),
(202,465,ls),
(259,535,o),
(286,578,o),
(286,618,cs),
(286,673,o),
(239,705,o),
(178,705,cs)
);
}
);
width = 350;
}
);
unicode = 178;
}
{
glyphname = three.sups;
layers = (
{
layerId = "DE016B7A-D921-4FAF-BA9C-94A7D66B995D";
shapes = (
{
closed = 1;
nodes = (
(104,706,o),
(64,693,o),
(29,667,c),
(41,617,l),
(49,617,l),
(78,637,o),
(102,647,o),
(127,647,cs),
(158,647,o),
(177,632,o),
(177,605,cs),
(177,570,o),
(141,545,o),
(109,544,cs),
(79,544,l),
(78,494,l),
(82,489,l),
(126,489,l),
(170,488,o),
(193,468,o),
(193,435,cs),
(193,397,o),
(161,374,o),
(108,374,cs),
(87,374,o),
(63,377,o),
(39,383,c),
(33,378,l),
(38,325,l),
(59,320,o),
(86,318,o),
(107,318,cs),
(202,318,o),
(266,364,o),
(266,433,cs),
(266,479,o),
(241,511,o),
(192,524,c),
(192,528,l),
(235,549,o),
(253,587,o),
(253,619,cs),
(253,672,o),
(209,706,o),
(143,706,cs)
);
}
);
width = 309;
}
);
unicode = 179;
}
{
glyphname = paragraph;
layers = (
{
layerId = "DE016B7A-D921-4FAF-BA9C-94A7D66B995D";
shapes = (
{
closed = 1;
nodes = (
(257,641,ls),
(115,641,o),
(36,568,o),
(36,442,cs),
(36,325,o),
(106,252,o),
(227,228,c),
(255,276,l),
(171,302,o),
(125,359,o),
(125,439,cs),
(125,519,o),
(167,568,o),
(242,575,c),
(299,575,l),
(301,171,l),
(301,125,ls),
(301,62,o),
(269,16,o),
(194,-29,c),
(194,-39,l),
(218,-78,l),
(337,-21,o),
(383,41,o),
(381,130,cs),
(380,184,l),
(383,574,l),
(456,574,l),
(463,633,l),
(456,641,l)
);
}
);
width = 487;
}
);
unicode = 182;
}
{
glyphname = one.sups;
layers = (
{
layerId = "DE016B7A-D921-4FAF-BA9C-94A7D66B995D";
shapes = (
{
closed = 1;
nodes = (
(14,665,l),
(14,602,l),
(20,598,l),
(98,623,l),
(98,448,l),
(96,322,l),
(172,322,l),
(170,457,l),
(172,700,l),
(162,709,l)
);
}
);
width = 260;
}
);
unicode = 185;
}
{
glyphname = AE;
kernLeft = A;
kernRight = E;
layers = (
{
anchors = (
{
name = bottom;
pos = (435,0);
},
{
name = ogonek;
pos = (787,0);
},
{
name = top;
pos = (400,641);
},
{
name = topright;
pos = (770,641);
}
);
layerId = "DE016B7A-D921-4FAF-BA9C-94A7D66B995D";
shapes = (
{
closed = 1;
nodes = (
(319,641,l),
(-16,0,l),
(72,0,l),
(98,70,l),
(352,554,l),
(358,554,l),
(430,66,l),
(435,0,l),
(787,0,l),
(794,67,l),
(788,75,l),
(624,69,l),
(512,69,l),
(440,571,l),
(536,571,l),
(697,566,l),
(705,633,l),
(699,641,l)
);
},
{
closed = 1;
nodes = (
(457,337,l),
(148,268,l),
(123,191,l),
(464,270,l),
(698,318,l),
(693,380,l),
(686,386,l)
);
}
);
width = 809;
}
);
unicode = 198;
}
{
glyphname = multiply;
layers = (
{
layerId = "DE016B7A-D921-4FAF-BA9C-94A7D66B995D";
shapes = (
{
closed = 1;
nodes = (
(244,307,l),
(119,431,l),
(79,397,l),
(79,387,l),
(202,265,l),
(79,141,l),
(79,133,l),
(119,98,l),
(244,222,l),
(368,98,l),
(409,133,l),
(409,142,l),
(286,265,l),
(409,387,l),
(409,397,l),
(368,431,l)
);
}
);
width = 487;
}
);
unicode = 215;
}
{
glyphname = Oslash;
kernLeft = O;
kernRight = O;
layers = (
{
layerId = "DE016B7A-D921-4FAF-BA9C-94A7D66B995D";
shapes = (
{
closed = 1;
nodes = (
(470,725,l),
(95,-77,l),
(99,-85,l),
(151,-104,l),
(526,696,l),
(521,706,l)
);
},
{
ref = O;
}
);
width = 636;
}
);
unicode = 216;
}
{
glyphname = Thorn;
kernLeft = H;
kernRight = Thorn;
layers = (
{
layerId = "DE016B7A-D921-4FAF-BA9C-94A7D66B995D";
shapes = (
{
closed = 1;
nodes = (
(93,531,l),
(139,459,l),
(274,463,l),
(359,459,o),
(404,420,o),
(404,336,cs),
(404,247,o),
(359,198,o),
(280,183,c),
(124,187,l),
(124,113,l),
(251,115,l),
(407,115,o),
(493,198,o),
(493,342,cs),
(493,466,o),
(422,532,o),
(295,532,c)
);
},
{
closed = 1;
nodes = (
(92,641,l),
(96,193,l),
(92,0,l),
(178,0,l),
(175,200,l),
(179,641,l)
);
}
);
width = 529;
}
);
unicode = 222;
}
{
glyphname = germandbls;
kernLeft = l;
kernRight = s;
layers = (
{
layerId = "DE016B7A-D921-4FAF-BA9C-94A7D66B995D";
shapes = (
{
closed = 1;
nodes = (
(157,704,o),
(78,632,o),
(78,503,c),
(81,190,l),
(75,0,l),
(160,0,l),
(154,199,l),
(158,512,l),
(159,599,o),
(204,642,o),
(277,642,cs),
(335,642,o),
(372,615,o),
(372,563,cs),
(372,469,o),
(254,464,o),
(254,356,cs),
(254,215,o),
(454,209,o),
(454,118,cs),
(454,82,o),
(423,52,o),
(372,52,cs),
(333,52,o),
(289,70,o),
(252,104,c),
(243,98,l),
(232,24,l),
(274,3,o),
(322,-8,o),
(365,-8,cs),
(472,-8,o),
(532,58,o),
(532,132,cs),
(532,268,o),
(332,265,o),
(332,370,cs),
(332,448,o),
(443,466,o),
(443,574,cs),
(443,651,o),
(387,704,o),
(281,704,cs)
);
}
);
width = 557;
}
);
metricLeft = "=l";
unicode = 223;
}
{
glyphname = ae;
kernLeft = a;
kernRight = e;
layers = (
{
anchors = (
{
name = bottom;
pos = (358,0);
},
{
name = ogonek;
pos = (632,28);
},
{
name = top;
pos = (358,459);
},
{
name = topright;
pos = (685,459);
}
);
layerId = "DE016B7A-D921-4FAF-BA9C-94A7D66B995D";
shapes = (
{
closed = 1;
nodes = (
(332,211,l),
(654,263,l),
(663,275,l),
(640,317,l),
(332,261,l)
);
},
{
closed = 1;
nodes = (
(332,261,l),
(145,231,ls),
(83,221,o),
(51,180,o),
(51,120,cs),
(51,40,o),
(109,-7,o),
(201,-7,c),
(256,13,o),
(300,46,o),
(335,89,c),
(367,26,o),
(424,-8,o),
(499,-8,cs),
(543,-8,o),
(593,6,o),
(632,28,c),
(642,97,l),
(633,102,l),
(595,73,o),
(548,56,o),
(505,56,cs),
(416,56,o),
(372,119,o),
(372,237,cs),
(372,273,ls),
(372,347,o),
(424,408,o),
(492,408,cs),
(547,408,o),
(586,370,o),
(586,300,c),
(663,275,l),
(668,403,o),
(599,466,o),
(504,466,cs),
(447,466,o),
(394,443,o),
(359,399,c),
(342,438,o),
(303,467,o),
(238,467,cs),
(182,467,o),
(124,446,o),
(69,406,c),
(81,344,l),
(89,340,l),
(143,385,o),
(188,406,o),
(228,406,cs),
(277,406,o),
(304,379,o),
(304,327,cs),
(304,232,ls),
(304,197,o),
(306,174,o),
(312,136,c),
(260,82,o),
(232,64,o),
(196,64,cs),
(157,64,o),
(127,85,o),
(127,129,cs),
(127,156,o),
(139,174,o),
(176,181,cs),
(332,211,l)
);
}
);
width = 708;
}
);
metricLeft = "=a";
metricRight = "=e";
unicode = 230;
}
{
glyphname = eth;
kernLeft = eth;
kernRight = eth;
layers = (
{
layerId = "DE016B7A-D921-4FAF-BA9C-94A7D66B995D";
shapes = (
{
closed = 1;
nodes = (
(116,706,l),
(67,668,l),
(67,657,l),
(275,571,o),
(372,441,o),
(372,241,cs),
(372,111,o),
(331,49,o),
(246,49,cs),
(164,49,o),
(115,107,o),
(115,224,cs),
(115,340,o),
(163,402,o),
(250,402,cs),
(297,402,o),
(335,384,o),
(368,349,c),
(399,397,l),
(355,440,o),
(308,459,o),
(246,459,cs),
(116,459,o),
(42,371,o),
(42,224,cs),
(42,76,o),
(118,-8,o),
(241,-8,cs),
(372,-8,o),
(445,85,o),
(445,246,cs),
(445,447,o),
(332,613,o),
(122,706,c)
);
},
{
closed = 1;
nodes = (
(88,540,l),
(106,500,l),
(114,497,l),
(399,643,l),
(381,683,l),
(373,686,l)
);
}
);
width = 489;
}
);
unicode = 240;
}
{
glyphname = oslash;
kernLeft = o;
kernRight = o;
layers = (
{
layerId = "DE016B7A-D921-4FAF-BA9C-94A7D66B995D";
shapes = (
{
closed = 1;
nodes = (
(377,553,l),
(53,-87,l),
(56,-95,l),
(103,-117,l),
(426,523,l),
(421,532,l)
);
},
{
ref = o;
}
);
width = 491;
}
);
unicode = 248;
}
{
glyphname = thorn;
kernLeft = h;
kernRight = o;
layers = (
{
layerId = "DE016B7A-D921-4FAF-BA9C-94A7D66B995D";
shapes = (
{
closed = 1;
nodes = (
(247,449,o),
(216,432,o),
(171,396,c),
(155,396,l),
(155,316,l),
(205,371,o),
(245,394,o),
(287,394,cs),
(354,394,o),
(391,335,o),
(393,234,cs),
(395,111,o),
(341,53,o),
(260,53,cs),
(210,53,o),
(158,81,o),
(101,141,c),
(97,48,l),
(145,14,o),
(199,-8,o),
(253,-8,cs),
(390,-8,o),
(473,82,o),
(473,244,cs),
(473,381,o),
(413,464,o),
(295,464,c)
);
},
{
closed = 1;
nodes = (
(79,695,l),
(84,636,l),
(89,194,l),
(83,-185,l),
(167,-185,l),
(162,201,l),
(168,702,l)
);
}
);
width = 512;
}
);
metricLeft = l;
metricRight = b;
unicode = 254;
}
{
glyphname = hbar;
kernLeft = h;
kernRight = h;
layers = (
{
anchors = (
{
name = bottom;
pos = (257,0);
},
{
name = center;
pos = (257,230);
},
{
name = top;
pos = (119,647);
},
{
name = topright;
pos = (225,459);
}
);
layerId = "DE016B7A-D921-4FAF-BA9C-94A7D66B995D";
shapes = (
{
closed = 1;
nodes = (
(447,0,l),
(443,200,l),
(445,330,l),
(446,416,o),
(393,465,o),
(290,465,c),
(251,454,o),
(207,430,o),
(166,395,c),
(150,395,l),
(150,316,l),
(196,365,o),
(244,394,o),
(292,394,cs),
(343,394,o),
(368,361,o),
(367,310,cs),
(361,0,l)
);
},
{
closed = 1;
nodes = (
(163,0,l),
(157,202,l),
(164,702,l),
(79,695,l),
(84,195,l),
(78,0,l)
);
},
{
closed = 1;
nodes = (
(305,540,l),
(308,582,l),
(302,589,l),
(10,589,l),
(6,546,l),
(13,540,l)
);
}
);
width = 516;
}
);
unicode = 295;
}
{
color = 5;
glyphname = idotless;
kernLeft = l;
kernRight = l;
layers = (
{
anchors = (
{
name = bottom;
pos = (121,0);
},
{
name = ogonek;
pos = (163,0);
},
{
name = top;
pos = (121,459);
}
);
layerId = "DE016B7A-D921-4FAF-BA9C-94A7D66B995D";
shapes = (
{
closed = 1;
nodes = (
(163,0,l),
(160,201,l),
(163,462,l),
(80,454,l),
(83,194,l),
(79,0,l)
);
}
);
width = 242;
}
);
unicode = 305;
}
{
glyphname = kgreenlandic;
kernLeft = h;
kernRight = x;
layers = (
{
anchors = (
{
name = bottom;
pos = (236,0);
},
{
name = top;
pos = (236,457);
}
);
layerId = "DE016B7A-D921-4FAF-BA9C-94A7D66B995D";
shapes = (
{
closed = 1;
nodes = (
(342,459,l),
(316,417,l),
(176,248,l),
(176,241,l),
(233,156,o),
(296,74,o),
(362,-5,c),
(372,-9,l),
(398,-5,o),
(424,-2,o),
(449,5,c),
(449,15,l),
(385,90,o),
(319,169,o),
(260,249,c),
(437,459,l)
);
},
{
closed = 1;
nodes = (
(75,456,l),
(81,380,l),
(85,195,l),
(79,0,l),
(164,0,l),
(158,202,l),
(165,463,l)
);
}
);
width = 474;
}
);
metricLeft = "=l";
metricRight = "=k";
metricWidth = "=k";
unicode = 312;
}
{
glyphname = Lslash;
kernLeft = L;
kernRight = L;
layers = (
{
anchors = (
{
name = bottom;
pos = (249,0);
},
{
name = top;
pos = (149,641);
}
);
layerId = "DE016B7A-D921-4FAF-BA9C-94A7D66B995D";
shapes = (
{
closed = 1;
nodes = (
(9,303,l),
(25,252,l),
(35,247,l),
(340,408,l),
(324,459,l),
(314,463,l)
);
},
{
closed = 1;
nodes = (
(102,641,l),
(108,193,l),
(102,0,l),
(189,0,l),
(185,200,l),
(190,641,l)
);
},
{
closed = 1;
nodes = (
(156,72,l),
(153,7,l),
(156,0,l),
(422,0,l),
(429,64,l),
(423,72,l)
);
}
);
width = 431;
}
);
unicode = 321;
}
{
glyphname = lslash;
kernLeft = lslash;
kernRight = lslash;
layers = (
{
anchors = (
{
name = bottom;
pos = (131,0);
},
{
name = top;
pos = (131,680);
},
{
name = topright;
pos = (236,459);
}
);
layerId = "DE016B7A-D921-4FAF-BA9C-94A7D66B995D";
shapes = (
{
closed = 1;
nodes = (
(131,411,l),
(120,408,l),
(9,350,l),
(27,295,l),
(32,292,l),
(132,344,l),
(143,347,l),
(255,407,l),
(237,462,l),
(232,464,l)
);
},
{
closed = 1;
nodes = (
(90,695,l),
(95,195,l),
(89,0,l),
(174,0,l),
(168,202,l),
(175,702,l)
);
}
);
width = 263;
}
);
unicode = 322;
}
{
glyphname = Eng;
kernLeft = N;
kernRight = N;
layers = (
{
anchors = (
{
name = top;
pos = (340,641);
}
);
layerId = "DE016B7A-D921-4FAF-BA9C-94A7D66B995D";
shapes = (
{
closed = 1;
nodes = (
(527,-76,o),
(480,-123,o),
(420,-123,cs),
(348,-123,o),
(307,-57,o),
(287,-29,c),
(276,-32,l),
(258,-112,l),
(288,-145,o),
(337,-195,o),
(413,-195,cs),
(525,-195,o),
(592,-135,o),
(590,20,cs),
(588,189,l),
(595,643,l),
(513,637,l),
(515,138,l),
(508,138,l),
(185,641,l),
(94,641,l),
(98,190,l),
(92,0,l),
(173,0,l),
(169,212,l),
(170,505,l),
(177,505,l),
(510,-13,l)
);
}
);
width = 684;
}
);
metricLeft = "=N";
metricWidth = "=N";
unicode = 330;
}
{
glyphname = eng;
kernLeft = n;
kernRight = n;
layers = (
{
anchors = (
{
name = top;
pos = (275,459);
}
);
layerId = "DE016B7A-D921-4FAF-BA9C-94A7D66B995D";
shapes = (
{
closed = 1;
nodes = (
(252,454,o),
(208,430,o),
(167,395,c),
(151,395,l),
(151,316,l),
(197,365,o),
(245,394,o),
(293,394,cs),
(344,394,o),
(368,361,o),
(368,310,cs),
(369,16,ls),
(369,-77,o),
(373,-129,o),
(303,-129,cs),
(251,-129,o),
(226,-104,o),
(206,-86,c),
(195,-89,l),
(177,-157,l),
(207,-180,o),
(246,-200,o),
(302,-200,cs),
(414,-200,o),
(453,-135,o),
(449,20,cs),
(444,200,l),
(446,330,ls),
(447,416,o),
(394,465,o),
(291,465,c)
);
},
{
closed = 1;
nodes = (
(80,453,l),
(84,194,l),
(79,0,l),
(164,0,l),
(159,201,l),
(161,461,l)
);
}
);
width = 518;
}
);
metricLeft = n;
metricWidth = "=n";
unicode = 331;
}
{
glyphname = OE;
kernLeft = O;
kernRight = E;
layers = (
{
anchors = (
{
name = top;
pos = (564,641);
}
);
layerId = "DE016B7A-D921-4FAF-BA9C-94A7D66B995D";
shapes = (
{
closed = 1;
nodes = (
(153,653,o),
(37,529,o),
(37,316,cs),
(37,109,o),
(147,-12,o),
(339,-12,cs),
(401,-12,o),
(466,1,o),
(525,0,cs),
(823,0,l),
(830,67,l),
(824,75,l),
(667,70,l),
(543,72,l),
(542,196,l),
(542,292,l),
(651,294,l),
(768,291,l),
(775,358,l),
(770,365,l),
(657,362,l),
(544,364,l),
(545,570,l),
(679,570,l),
(823,566,l),
(830,633,l),
(824,641,l),
(525,641,ls),
(469,641,o),
(418,653,o),
(355,653,cs)
);
},
{
closed = 1;
nodes = (
(390,582,o),
(433,575,o),
(447,569,cs),
(456,565,o),
(461,556,o),
(461,531,cs),
(465,105,ls),
(465,84,o),
(458,75,o),
(440,69,cs),
(425,64,o),
(384,59,o),
(347,59,cs),
(197,59,o),
(125,147,o),
(125,321,cs),
(125,494,o),
(200,582,o),
(348,582,cs)
);
}
);
width = 853;
}
);
unicode = 338;
}
{
glyphname = oe;
kernLeft = o;
kernRight = e;
layers = (
{
anchors = (
{
name = top;
pos = (471,459);
}
);
layerId = "DE016B7A-D921-4FAF-BA9C-94A7D66B995D";
shapes = (
{
closed = 1;
nodes = (
(113,466,o),
(36,378,o),
(36,224,cs),
(36,76,o),
(108,-8,o),
(232,-8,cs),
(362,-8,o),
(434,81,o),
(434,235,cs),
(434,384,o),
(366,466,o),
(242,466,cs)
);
},
{
closed = 1;
nodes = (
(326,407,o),
(369,343,o),
(369,216,cs),
(369,106,o),
(326,52,o),
(244,52,cs),
(164,52,o),
(121,114,o),
(121,243,cs),
(121,350,o),
(164,407,o),
(246,407,cs)
);
},
{
closed = 1;
nodes = (
(450,466,o),
(370,375,o),
(370,226,cs),
(370,82,o),
(442,-8,o),
(571,-8,cs),
(618,-8,o),
(668,6,o),
(711,28,c),
(720,100,l),
(711,105,l),
(668,76,o),
(618,60,o),
(576,60,cs),
(481,60,o),
(436,124,o),
(436,231,cs),
(436,342,o),
(487,406,o),
(571,406,cs),
(624,406,o),
(661,375,o),
(661,305,c),
(659,293,l),
(427,287,l),
(427,231,l),
(718,231,l),
(735,245,l),
(737,257,o),
(738,281,o),
(738,293,cs),
(738,401,o),
(679,466,o),
(578,466,cs)
);
}
);
width = 774;
}
);
unicode = 339;
}
{
glyphname = Schwa;
kernLeft = O;
kernRight = O;
layers = (
{
anchors = (
{
name = bottom;
pos = (234,458);
},
{
name = ogonek;
pos = (79,448);
},
{
name = top;
pos = (243,0);
}
);
layerId = "DE016B7A-D921-4FAF-BA9C-94A7D66B995D";
shapes = (
{
closed = 1;
nodes = (
(230,647,o),
(164,630,o),
(102,598,c),
(88,517,l),
(99,509,l),
(152,548,o),
(220,570,o),
(287,570,cs),
(422,570,o),
(498,479,o),
(498,319,cs),
(498,160,o),
(422,61,o),
(302,61,cs),
(209,61,o),
(144,118,o),
(144,217,c),
(146,239,l),
(515,242,l),
(517,310,l),
(74,308,l),
(61,295,l),
(58,272,o),
(55,250,o),
(55,227,cs),
(55,80,o),
(157,-7,o),
(302,-7,cs),
(476,-7,o),
(586,121,o),
(586,324,cs),
(586,524,o),
(478,647,o),
(299,647,cs)
);
}
);
width = 622;
}
);
metricRight = "=O";
unicode = 399;
}
{
glyphname = Ezh;
kernLeft = "Ereversed-cy";
kernRight = Ezh;
layers = (
{
anchors = (
{
name = bottom;
pos = (244,0);
},
{
name = top;
pos = (239,641);
}
);
layerId = "DE016B7A-D921-4FAF-BA9C-94A7D66B995D";
shapes = (
{
closed = 1;
nodes = (
(367,-9,o),
(462,68,o),
(462,184,cs),
(462,294,o),
(373,355,o),
(221,355,c),
(172,345,l),
(172,304,l),
(178,297,l),
(223,297,ls),
(319,297,o),
(376,257,o),
(376,187,cs),
(376,115,o),
(312,63,o),
(219,63,cs),
(161,63,o),
(103,81,o),
(64,111,c),
(56,108,l),
(40,41,l),
(82,10,o),
(151,-9,o),
(220,-9,cs)
);
},
{
closed = 1;
nodes = (
(261,345,l),
(446,578,l),
(446,642,l),
(396,641,l),
(146,641,l),
(51,642,l),
(43,569,l),
(48,563,l),
(148,571,l),
(387,571,l),
(376,601,l),
(172,345,l)
);
}
);
width = 515;
}
);
unicode = 439;
}
{
glyphname = jdotless;
kernLeft = j;
kernRight = j;
layers = (
{
anchors = (
{
name = bottom;
pos = (121,-191);
},
{
name = top;
pos = (122,459);
}
);
layerId = "DE016B7A-D921-4FAF-BA9C-94A7D66B995D";
shapes = (
{
closed = 1;
nodes = (
(80,454,l),
(83,401,l),
(85,194,l),
(83,16,l),
(83,-64,o),
(39,-111,o),
(-32,-152,c),
(-32,-162,l),
(15,-200,l),
(119,-157,o),
(163,-85,o),
(163,20,c),
(158,201,l),
(165,459,l),
(162,461,l)
);
}
);
width = 242;
}
);
metricWidth = "=i";
unicode = 567;
}
{
glyphname = "alpha-latin";
kernLeft = o;
kernRight = a;
layers = (
{
anchors = (
{
name = bottom;
pos = (263,0);
},
{
name = ogonek;
pos = (473,10);
},
{
name = top;
pos = (249,459);
}
);
layerId = "DE016B7A-D921-4FAF-BA9C-94A7D66B995D";
shapes = (
{
closed = 1;
nodes = (
(283,406,o),
(313,397,o),
(348,378,c),
(351,193,l),
(350,125,l),
(306,80,o),
(272,67,o),
(238,67,cs),
(165,67,o),
(121,128,o),
(119,233,cs),
(117,351,o),
(171,406,o),
(251,406,cs)
);
},
{
closed = 1;
nodes = (
(374,25,o),
(381,8,o),
(395,-10,c),
(478,10,l),
(465,25,o),
(454,39,o),
(445,55,cs),
(436,71,o),
(431,93,o),
(430,121,cs),
(426,201,l),
(430,432,l),
(422,437,l),
(381,449,l),
(342,460,o),
(301,467,o),
(261,467,cs),
(123,467,o),
(39,383,o),
(39,226,cs),
(39,82,o),
(109,-5,o),
(242,-5,c),
(283,12,o),
(308,24,o),
(341,53,cs),
(358,68,l)
);
}
);
width = 508;
}
);
metricLeft = "=q";
metricWidth = "=q";
unicode = 593;
}
{
glyphname = gsingle;
kernLeft = g;
kernRight = g;
layers = (
{
anchors = (
{
name = bottom;
pos = (254,-191);
},
{
name = center;
pos = (248,235);
},
{
name = top;
pos = (248,459);
}
);
layerId = "DE016B7A-D921-4FAF-BA9C-94A7D66B995D";
shapes = (
{
closed = 1;
nodes = (
(424,201,l),
(431,432,l),
(423,437,l),
(381,449,l),
(342,460,o),
(301,467,o),
(261,467,cs),
(123,467,o),
(39,383,o),
(39,226,cs),
(39,82,o),
(109,-5,o),
(242,-5,c),
(283,12,o),
(310,31,o),
(344,58,c),
(353,58,l),
(353,34,l),
(353,13,ls),
(353,-80,o),
(309,-132,o),
(239,-132,cs),
(177,-132,o),
(143,-117,o),
(93,-86,c),
(82,-89,l),
(64,-157,l),
(124,-193,o),
(166,-200,o),
(232,-200,cs),
(344,-200,o),
(430,-135,o),
(427,20,cs)
);
},
{
closed = 1;
nodes = (
(283,406,o),
(313,397,o),
(348,378,c),
(351,193,l),
(350,125,l),
(306,80,o),
(272,67,o),
(238,67,cs),
(165,67,o),
(121,128,o),
(119,233,cs),
(117,351,o),
(171,406,o),
(251,406,cs)
);
}
);
width = 508;
}
);
metricLeft = "=q";
metricWidth = "=q";
unicode = 609;
}
{
glyphname = g.sc;
kernLeft = O;
kernRight = G;
layers = (
{
anchors = (
{
name = bottom;
pos = (267,0);
},
{
name = top;
pos = (279,499);
}
);
layerId = "DE016B7A-D921-4FAF-BA9C-94A7D66B995D";
shapes = (
{
closed = 1;
nodes = (
(388,129,l),
(388,72,l),
(349,62,o),
(319,61,o),
(288,61,cs),
(178,61,o),
(128,113,o),
(128,242,cs),
(128,379,o),
(184,437,o),
(293,437,cs),
(341,437,o),
(378,426,o),
(428,393,c),
(437,393,l),
(464,471,l),
(408,494,o),
(360,504,o),
(306,504,cs),
(142,504,o),
(44,412,o),
(44,239,cs),
(44,84,o),
(123,-6,o),
(285,-6,cs),
(336,-6,o),
(390,3,o),
(460,24,c),
(460,141,l),
(461,268,l),
(387,264,l),
(354,262,o),
(313,263,o),
(287,267,c),
(290,243,o),
(289,216,o),
(286,192,c),
(320,195,o),
(353,200,o),
(387,200,c)
);
}
);
width = 525;
}
);
unicode = 610;
}
{
glyphname = i.sc;
kernLeft = H;
kernRight = H;
layers = (
{
anchors = (
{
name = ogonek;
pos = (168,0);
},
{
name = top;
pos = (132,499);
}
);
layerId = "DE016B7A-D921-4FAF-BA9C-94A7D66B995D";
shapes = (
{
closed = 1;
nodes = (
(88,499,l),
(91,150,l),
(88,0,l),
(168,0,l),
(165,157,l),
(169,499,l)
);
}
);
width = 261;
}
);
unicode = 618;
}
{
glyphname = n.sc;
kernLeft = H;
kernRight = H;
layers = (
{
anchors = (
{
name = bottom;
pos = (296,0);
},
{
name = top;
pos = (297,499);
}
);
layerId = "DE016B7A-D921-4FAF-BA9C-94A7D66B995D";
shapes = (
{
closed = 1;
nodes = (
(435,496,l),
(437,126,l),
(430,126,l),
(174,499,l),
(89,499,l),
(91,147,l),
(88,0,l),
(161,0,l),
(159,167,l),
(160,373,l),
(165,373,l),
(421,0,l),
(507,0,l),
(505,150,l),
(509,501,l)
);
}
);
width = 597;
}
);
unicode = 628;
}
{
glyphname = oe.sc;
kernLeft = O;
kernRight = E;
layers = (
{
anchors = (
{
name = top;
pos = (468,499);
}
);
layerId = "DE016B7A-D921-4FAF-BA9C-94A7D66B995D";
shapes = (
{
closed = 1;
nodes = (
(141,508,o),
(44,411,o),
(44,245,cs),
(44,84,o),
(133.994,-9,o),
(294,-9,cs),
(347,-9,o),
(402,0,o),
(451,0,cs),
(698,0,l),
(705,62,l),
(700,68,l),
(570,64,l),
(469,64,l),
(469,154,l),
(469,222,l),
(557,223,l),
(654,220,l),
(660,283,l),
(655,290,l),
(562,287,l),
(471,288,l),
(471,435,l),
(579,435,l),
(700,430,l),
(706,492,l),
(701,499,l),
(451,499,ls),
(405,499,o),
(361,508,o),
(308,508,cs)
);
},
{
closed = 1;
nodes = (
(336,438,o),
(369,431,o),
(381,427,cs),
(389,424,o),
(391,416,o),
(391,396,cs),
(394,97,ls),
(394,80,o),
(391,73,o),
(376,68,cs),
(364,63,o),
(332,58,o),
(301,58,cs),
(182,58,o),
(127,119,o),
(127,251,cs),
(127,380,o),
(184,438,o),
(301,438,cs)
);
}
);
width = 737;
}
);
unicode = 630;
}
{
glyphname = r.sc;
kernLeft = H;
kernRight = R;
layers = (
{
anchors = (
{
name = bottom;
pos = (233,0);
},
{
name = top;
pos = (233,499);
}
);
layerId = "DE016B7A-D921-4FAF-BA9C-94A7D66B995D";
shapes = (
{
closed = 1;
nodes = (
(88,499,l),
(131,434,l),
(242,436,l),
(311,433,o),
(345,407,o),
(345,348,cs),
(345,292,o),
(315,258,o),
(258,242,c),
(117,247,l),
(118,179,l),
(263,180,l),
(366,202,o),
(429,269,o),
(429,355,cs),
(429,448,o),
(369,500,o),
(263,500,c)
);
},
{
closed = 1;
nodes = (
(88,499,l),
(91,150,l),
(88,0,l),
(168,0,l),
(165,157,l),
(169,499,l)
);
},
{
closed = 1;
nodes = (
(236,220,l),
(276,145,o),
(323,72,o),
(370,1,c),
(383,-7,l),
(409,-5,o),
(433,1,o),
(458,9,c),
(459,19,l),
(405,85,o),
(356,152,o),
(311,221,c)
);
}
);
width = 499;
}
);
unicode = 640;
}
{
glyphname = y.sc;
kernLeft = Y;
kernRight = Y;
layers = (
{
anchors = (
{
name = center;
pos = (230,134);
},
{
name = top;
pos = (242,499);
}
);
layerId = "DE016B7A-D921-4FAF-BA9C-94A7D66B995D";
shapes = (
{
closed = 1;
nodes = (
(368,499,l),
(355,466,l),
(236,259,l),
(230,259,l),
(121,469,l),
(111,499,l),
(24,499,l),
(216,128,l),
(242,128,l),
(453,499,ls)
);
},
{
closed = 1;
nodes = (
(192,213,l),
(194,142,l),
(190,0,l),
(270,0,l),
(267,142,l),
(269,213,l)
);
}
);
width = 475;
}
);
unicode = 655;
}
{
glyphname = ezh;
kernLeft = z;
kernRight = z;
layers = (
{
anchors = (
{
name = bottom;
pos = (199,0);
},
{
name = top;
pos = (184,459);
}
);
layerId = "DE016B7A-D921-4FAF-BA9C-94A7D66B995D";
shapes = (
{
closed = 1;
nodes = (
(263,-192,o),
(360,-111,o),
(360,5,cs),
(360,92,o),
(305,141,o),
(190,166,cs),
(139,177,l),
(85,175,l),
(81,133,l),
(87,125,l),
(153,112,ls),
(236,96,o),
(280,60,o),
(280,-2,cs),
(280,-73,o),
(222,-124,o),
(129,-124,cs),
(88,-124,o),
(50,-114,o),
(21,-99,c),
(14,-105,l),
(18,-183,l),
(47,-189,o),
(85,-192,o),
(114,-192,cs)
);
},
{
closed = 1;
nodes = (
(351,408,l),
(348,460,l),
(308,459,l),
(100,459,l),
(14,461,l),
(7,399,l),
(13,392,l),
(97,401,l),
(261,401,l),
(85,175,l),
(156,159,l)
);
}
);
width = 397;
},
{
associatedMasterId = "DE016B7A-D921-4FAF-BA9C-94A7D66B995D";
layerId = "17B0B028-22CF-4D84-9322-A987E6FA3C5B";
name = "Nov 8 17, 19:58";
shapes = (
{
closed = 1;
nodes = (
(348,-195,o),
(441,-122,o),
(441,-6,cs),
(441,88,o),
(381,143,o),
(267,156,c),
(272,135,l),
(358,158,o),
(410,226,o),
(410,306,cs),
(410,401,o),
(333,461,o),
(209,461,cs),
(150,461,o),
(91,444,o),
(41,413,c),
(34,344,l),
(45,340,l),
(96,370,o),
(149,387,o),
(205,387,cs),
(281,387,o),
(323,354,o),
(323,293,cs),
(323,241,o),
(291,195,o),
(244,176,c),
(117,177,l),
(112,118,l),
(119,111,l),
(249,111,l),
(316,99,o),
(355,59,o),
(355,0,cs),
(355,-74,o),
(292,-123,o),
(202,-123,cs),
(147,-123,o),
(92,-105,o),
(52,-75,c),
(44,-78,l),
(27,-145,l),
(71,-177,o),
(135,-195,o),
(203,-195,cs)
);
},
{
closed = 1;
nodes = (
(113,0,l),
(321,0,l),
(409,-2,l),
(416,52,l),
(410,59,l),
(342,56,l),
(156,56,l),
(410,408,l),
(410,460,l),
(370,459,l),
(155,459,l),
(79,461,l),
(72,407,l),
(78,400,l),
(142,403,l),
(320,403,l),
(65,50,l),
(65,-2,l)
);
}
);
width = 491;
}
);
unicode = 658;
}
{
glyphname = b.sc;
kernLeft = H;
kernRight = B;
layers = (
{
layerId = "DE016B7A-D921-4FAF-BA9C-94A7D66B995D";
shapes = (
{
closed = 1;
nodes = (
(88,499,l),
(130,436,l),
(166,437,o),
(197,437,o),
(225,437,cs),
(295,437,o),
(325,417,o),
(325,368,cs),
(325,319,o),
(300,295,o),
(253,285,c),
(118,289,l),
(118,222,l),
(263,224,l),
(325,215,o),
(357,191,o),
(357,144,cs),
(357,86,o),
(310,58,o),
(227,58,cs),
(201,58,o),
(162,61,o),
(134,65,c),
(88,0,l),
(129,-2,o),
(184,-3,o),
(216,-3,cs),
(361,-3,o),
(439,44,o),
(439,141,cs),
(439,207,o),
(400,245,o),
(329,259,c),
(379,280,o),
(409,320,o),
(409,378,cs),
(409,457,o),
(349,500,o),
(249,500,c)
);
},
{
closed = 1;
nodes = (
(88,499,l),
(91,150,l),
(88,0,l),
(167,0,l),
(164,157,l),
(168,499,l)
);
}
);
width = 485;
}
);
unicode = 665;
}
{
glyphname = h.sc;
kernLeft = H;
kernRight = H;
layers = (
{
anchors = (
{
name = bottom;
pos = (299,0);
},
{
name = bottomright;
pos = (429,0);
},
{
name = center;
pos = (299,250);
},
{
name = top;
pos = (299,499);
}
);
layerId = "DE016B7A-D921-4FAF-BA9C-94A7D66B995D";
shapes = (
{
closed = 1;
nodes = (
(429,499,l),
(432,150,l),
(429,0,l),
(509,0,l),
(506,157,l),
(510,499,l)
);
},
{
closed = 1;
nodes = (
(88,499,l),
(91,150,l),
(88,0,l),
(168,0,l),
(165,157,l),
(169,499,l)
);
},
{
closed = 1;
nodes = (
(156,215,l),
(293,216,l),
(441,216,l),
(441,286,l),
(299,285,l),
(156,286,l)
);
}
);
userData = {
RMXScaler = {
adjustSpace = 11;
height = 78;
weight = -3;
width = 83;
};
};
width = 597;
}
);
unicode = 668;
userData = {
RMXScaler = {
source = H;
};
};
}
{
glyphname = l.sc;
kernLeft = H;
kernRight = L;
layers = (
{
anchors = (
{
name = bottom;
pos = (240,0);
},
{
name = center;
pos = (129,250);
},
{
name = top;
pos = (129,499);
},
{
name = topright;
pos = (358,499);
}
);
layerId = "DE016B7A-D921-4FAF-BA9C-94A7D66B995D";
shapes = (
{
closed = 1;
nodes = (
(86,499,l),
(89,150,l),
(86,0,l),
(166,0,l),
(163,157,l),
(167,499,l)
);
},
{
closed = 1;
nodes = (
(135,67,l),
(132,6,l),
(135,0,l),
(354,0,l),
(360,60,l),
(355,67,l)
);
}
);
width = 378;
}
);
unicode = 671;
}
{
glyphname = h.sups;
layers = (
{
anchors = (
{
name = center;
pos = (182,152);
},
{
name = top;
pos = (89,428);
}
);
layerId = "DE016B7A-D921-4FAF-BA9C-94A7D66B995D";
shapes = (
{
closed = 1;
nodes = (
(178,645,o),
(150,623,o),
(125,596,c),
(111,596,l),
(111,546,l),
(135,572,o),
(160,585,o),
(182,585,cs),
(212,585,o),
(231,566,o),
(231,528,cs),
(226,337,l),
(302,337,l),
(300,471,l),
(302,558,ls),
(303,616,o),
(269,645,o),
(209,645,cs)
);
},
{
closed = 0;
nodes = (
(175,472,l)
);
},
{
closed = 1;
nodes = (
(48,796,l),
(51,464,l),
(47,337,l),
(124,337,l),
(121,471,l),
(124,801,l)
);
}
);
width = 341.021;
}
);
metricLeft = n.sups;
metricRight = n.sups;
unicode = 688;
}
{
glyphname = j.sups;
layers = (
{
layerId = "DE016B7A-D921-4FAF-BA9C-94A7D66B995D";
shapes = (
{
closed = 1;
nodes = (
(74,790,o),
(58,772,o),
(58,747,cs),
(58,721,o),
(73,706,o),
(97,706,cs),
(121,706,o),
(137,722,o),
(137,749,cs),
(137,774,o),
(123,790,o),
(99,790,cs)
);
},
{
closed = 1;
nodes = (
(62,641,l),
(64,584,l),
(65,464,l),
(65,350,l),
(65,301,o),
(54,274,o),
(27,250,c),
(27,243,l),
(54,208,l),
(111,243,o),
(136,284,o),
(136,353,c),
(133,471,l),
(137,644,l),
(135,645,l)
);
}
);
width = 190;
}
);
unicode = 690;
}
{
glyphname = r.sups;
layers = (
{
layerId = "DE016B7A-D921-4FAF-BA9C-94A7D66B995D";
shapes = (
{
closed = 1;
nodes = (
(48,638,l),
(51,464,l),
(47,337,l),
(124,337,l),
(120,471,l),
(120,645,l)
);
},
{
closed = 1;
nodes = (
(167,644,o),
(143,622,o),
(124,579,c),
(112,579,l),
(112,513,l),
(137,557,o),
(158,575,o),
(186,575,cs),
(197,575,o),
(206,573,o),
(215,569,c),
(224,573,l),
(224,640,l),
(216,643,o),
(208,644,o),
(199,644,cs)
);
}
);
width = 239;
}
);
metricLeft = n.sups;
unicode = 691;
}
{
glyphname = w.sups;
layers = (
{
anchors = (
{
name = top;
pos = (243,303);
}
);
layerId = "DE016B7A-D921-4FAF-BA9C-94A7D66B995D";
shapes = (
{
closed = 1;
nodes = (
(13,641,l),
(93,337,l),
(169,337,l),
(228,546,l),
(235,546,l),
(286,337,l),
(359,337,l),
(454,644,l),
(389,644,l),
(378,596,l),
(328,418,l),
(324,418,l),
(281,600,l),
(274,644,l),
(198,644,l),
(188,596,l),
(138,416,l),
(134,416,l),
(91,600,l),
(83,646,l)
);
}
);
width = 454;
}
);
unicode = 695;
}
{
glyphname = y.sups;
layers = (
{
layerId = "DE016B7A-D921-4FAF-BA9C-94A7D66B995D";
shapes = (
{
closed = 1;
nodes = (
(-9,641,l),
(101,337,l),
(69,290,o),
(36,274,o),
(14,264,c),
(12,255,l),
(20,239,o),
(31,224,o),
(45,210,c),
(51,210,l),
(108,237,o),
(144,267,o),
(174,354,cs),
(274,644,l),
(208,644,l),
(197,593,l),
(138,416,l),
(133,416,l),
(74,600,l),
(64,646,l)
);
}
);
width = 275;
}
);
unicode = 696;
}
{
glyphname = l.sups;
layers = (
{
anchors = (
{
name = bottom;
pos = (95,0);
},
{
name = top;
pos = (95,447);
},
{
name = topright;
pos = (168,303);
}
);
layerId = "DE016B7A-D921-4FAF-BA9C-94A7D66B995D";
shapes = (
{
closed = 1;
nodes = (
(48,796,l),
(51,464,l),
(47,337,l),
(123,337,l),
(120,471,l),
(123,801,l)
);
}
);
width = 166;
}
);
metricLeft = n.sups;
unicode = 737;
}
{
glyphname = s.sups;
layers = (
{
layerId = "DE016B7A-D921-4FAF-BA9C-94A7D66B995D";
shapes = (
{
closed = 1;
nodes = (
(73,648,o),
(31,608,o),
(31,552,cs),
(31,459,o),
(164,468,o),
(164,416,cs),
(164,398,o),
(149,381,o),
(122,381,cs),
(98,381,o),
(65,392,o),
(38,414,c),
(31,409,l),
(22,350,l),
(54,336,o),
(86,329,o),
(115,329,cs),
(193,329,o),
(229,378,o),
(229,427,cs),
(229,522,o),
(97,513,o),
(97,562,cs),
(97,582,o),
(111,598,o),
(135,598,cs),
(151,598,o),
(177,589,o),
(203,574,c),
(212,578,l),
(222,634,l),
(198,643,o),
(171,648,o),
(144,648,cs)
);
}
);
width = 261;
}
);
unicode = 738;
}
{
glyphname = x.sups;
layers = (
{
layerId = "DE016B7A-D921-4FAF-BA9C-94A7D66B995D";
shapes = (
{
closed = 1;
nodes = (
(13,640,l),
(99,492,l),
(10,337,l),
(79,337,l),
(92,366,l),
(142,448,l),
(188,371,l),
(203,334,l),
(284,340,l),
(193,492,l),
(281,642,l),
(214,642,l),
(198,612,l),
(153,536,l),
(108,612,l),
(95,646,l)
);
}
);
width = 296;
}
);
unicode = 739;
}
{
glyphname = gravecomb;
kernLeft = asterisk;
kernRight = asterisk;
layers = (
{
anchors = (
{
name = _top;
pos = (195,457);
},
{
name = top;
pos = (195,691);
}
);
layerId = "DE016B7A-D921-4FAF-BA9C-94A7D66B995D";
shapes = (
{
closed = 1;
nodes = (
(104,710,l),
(75,672,l),
(77,664,l),
(133,618,o),
(226,537,o),
(281,496,c),
(289,497,l),
(312,528,l),
(259,572,o),
(168,656,o),
(111,711,c)
);
}
);
width = 389;
}
);
unicode = 768;
}
{
glyphname = acutecomb;
kernLeft = asterisk;
kernRight = asterisk;
layers = (
{
anchors = (
{
name = _top;
pos = (167,457);
},
{
name = top;
pos = (196,691);
}
);
layerId = "DE016B7A-D921-4FAF-BA9C-94A7D66B995D";
shapes = (
{
closed = 1;
nodes = (
(223,656,o),
(132,572,o),
(79,528,c),
(101,497,l),
(109,496,l),
(165,537,o),
(257,618,o),
(314,664,c),
(315,672,l),
(287,710,l),
(279,711,l)
);
}
);
width = 389;
}
);
unicode = 769;
}
{
glyphname = macroncomb;
kernLeft = asterisk;
kernRight = asterisk;
layers = (
{
anchors = (
{
name = _top;
pos = (195,457);
},
{
name = top;
pos = (195,616);
}
);
layerId = "DE016B7A-D921-4FAF-BA9C-94A7D66B995D";
shapes = (
{
closed = 1;
nodes = (
(52,628,l),
(48,584,l),
(53,578,l),
(338,578,l),
(342,623,l),
(336,628,l)
);
}
);
width = 389;
}
);
unicode = 772;
}
{
glyphname = brevecomb;
kernLeft = asterisk;
kernRight = asterisk;
layers = (
{
anchors = (
{
name = _top;
pos = (186,459);
},
{
name = top;
pos = (186,670);
}
);
layerId = "DE016B7A-D921-4FAF-BA9C-94A7D66B995D";
shapes = (
{
closed = 1;
nodes = (
(292,680,l),
(286,623,o),
(247,581,o),
(186,581,cs),
(126,581,o),
(86,623,o),
(80,680,c),
(64,680,l),
(35,642,l),
(44,570,o),
(92,509,o),
(184,509,cs),
(275,509,o),
(326,568,o),
(337,642,c),
(309,680,l)
);
}
);
width = 372;
}
);
unicode = 774;
}
{
glyphname = dieresiscomb;
kernLeft = asterisk;
kernRight = asterisk;
layers = (
{
anchors = (
{
name = _top;
pos = (194,459);
},
{
name = top;
pos = (195,657);
}
);
layerId = "DE016B7A-D921-4FAF-BA9C-94A7D66B995D";
shapes = (
{
closed = 1;
nodes = (
(61,667,o),
(39,643,o),
(39,607,cs),
(39,571,o),
(59,549,o),
(95,549,cs),
(130,549,o),
(153,573,o),
(153,611,cs),
(153,644,o),
(133,667,o),
(99,667,cs)
);
},
{
closed = 1;
nodes = (
(260,667,o),
(238,643,o),
(238,607,cs),
(238,571,o),
(258,549,o),
(294,549,cs),
(329,549,o),
(351,573,o),
(351,611,cs),
(351,644,o),
(331,667,o),
(298,667,cs)
);
}
);
width = 389;
}
);
unicode = 776;
}
{
glyphname = hookabovecomb;
kernLeft = asterisk;
kernRight = asterisk;
layers = (
{
anchors = (
{
name = _custom1;
pos = (134,487);
},
{
name = _top;
pos = (131,459);
},
{
name = top;
pos = (132,718);
}
);
layerId = "DE016B7A-D921-4FAF-BA9C-94A7D66B995D";
shapes = (
{
closed = 1;
nodes = (
(182,512,l),
(157,557,l),
(204,596,o),
(223,622,o),
(223,653,cs),
(223,697,o),
(187,728,o),
(137,728,cs),
(98,728,o),
(57,708,o),
(22,673,c),
(43,638,l),
(68,658,o),
(98,668,o),
(121,668,cs),
(141,668,o),
(156,660,o),
(156,642,cs),
(156,620,o),
(132,587,o),
(89,557,c),
(134,486,l)
);
}
);
width = 263;
}
);
unicode = 777;
}
{
glyphname = ringcomb;
kernLeft = asterisk;
kernRight = asterisk;
layers = (
{
anchors = (
{
name = _top;
pos = (194,459);
},
{
name = top;
pos = (195,721);
}
);
layerId = "DE016B7A-D921-4FAF-BA9C-94A7D66B995D";
shapes = (
{
closed = 1;
nodes = (
(130,721,o),
(88,680,o),
(88,616,cs),
(88,551,o),
(134,511,o),
(192,511,cs),
(251,511,o),
(300,552,o),
(300,619,cs),
(300,675,o),
(262,721,o),
(195,721,cs)
);
},
{
closed = 1;
nodes = (
(230,670,o),
(250,645,o),
(250,615,cs),
(250,581,o),
(225,561,o),
(194,561,cs),
(162,561,o),
(138,582,o),
(138,617,cs),
(138,650,o),
(159,670,o),
(193,670,cs)
);
}
);
width = 389;
}
);
unicode = 778;
}
{
glyphname = caroncomb;
kernLeft = asterisk;
kernRight = asterisk;
layers = (
{
anchors = (
{
name = _top;
pos = (194,457);
},
{
name = top;
pos = (195,682);
}
);
layerId = "DE016B7A-D921-4FAF-BA9C-94A7D66B995D";
shapes = (
{
closed = 1;
nodes = (
(315,702,l),
(278,665,o),
(225,601,o),
(194,565,c),
(164,601,o),
(111,665,o),
(73,702,c),
(65,702,l),
(46,669,l),
(86,629,o),
(144,555,o),
(183,506,c),
(205,506,l),
(247,557,o),
(306,630,o),
(343,669,c),
(324,702,l)
);
}
);
width = 389;
}
);
unicode = 780;
}
{
glyphname = verticallineabovecomb;
layers = (
{
anchors = (
{
name = _top;
pos = (114,459);
},
{
name = top;
pos = (114,719);
}
);
layerId = "DE016B7A-D921-4FAF-BA9C-94A7D66B995D";
shapes = (
{
closed = 1;
nodes = (
(78,731,l),
(71,722,l),
(77,681,o),
(80,605,o),
(84,504,c),
(143,504,l),
(147,605,o),
(150,681,o),
(156,722,c),
(149,731,l)
);
}
);
width = 227;
}
);
unicode = 781;
}
{
glyphname = horncomb;
layers = (
{
anchors = (
{
name = _topright;
pos = (70,446);
},
{
name = topright;
pos = (70,446);
}
);
layerId = "DE016B7A-D921-4FAF-BA9C-94A7D66B995D";
shapes = (
{
closed = 1;
nodes = (
(28,373,o),
(152,395,o),
(161,487,cs),
(167,553,o),
(139,596,o),
(108,596,cs),
(90,596,o),
(71,586,o),
(55,575,c),
(51,565,l),
(78,540,o),
(83,508,o),
(73,480,cs),
(57,434,o),
(-6,438,o),
(-46,434,c),
(-16,376,l)
);
}
);
width = 200;
}
);
unicode = 795;
}
{
glyphname = cedillacomb;
kernLeft = period;
kernRight = period;
layers = (
{
anchors = (
{
name = _bottom;
pos = (190,0);
},
{
name = bottom;
pos = (195,-190);
}
);
layerId = "DE016B7A-D921-4FAF-BA9C-94A7D66B995D";
shapes = (
{
closed = 1;
nodes = (
(173,17,l),
(145,-79,l),
(171,-78,ls),
(221,-76,o),
(260,-82,o),
(260,-115,cs),
(260,-133,o),
(238,-146,o),
(189,-146,cs),
(154,-146,o),
(130,-139,o),
(114,-130,c),
(109,-131,l),
(102,-177,l),
(116,-182,o),
(155,-193,o),
(192,-193,cs),
(256,-193,o),
(313,-154,o),
(313,-116,cs),
(313,-74,o),
(283,-38,o),
(213,-38,cs),
(206,-38,l),
(224,17,l)
);
}
);
width = 389;
}
);
unicode = 807;
}
{
glyphname = ogonekcomb;
kernLeft = period;
kernRight = period;
layers = (
{
anchors = (
{
name = _bottom;
pos = (144,0);
},
{
name = _ogonek;
pos = (235,58);
},
{
name = bottom;
pos = (144,-191);
}
);
layerId = "DE016B7A-D921-4FAF-BA9C-94A7D66B995D";
shapes = (
{
closed = 1;
nodes = (
(183,-225,o),
(227,-203,o),
(265,-165,c),
(247,-109,l),
(241,-108,l),
(208,-138,o),
(176,-155,o),
(148,-155,cs),
(120,-155,o),
(105,-143,o),
(105,-117,cs),
(105,-87,o),
(127,-60,o),
(235,58,c),
(167,58,l),
(52,-44,o),
(30,-83,o),
(30,-132,cs),
(30,-190,o),
(73,-225,o),
(138,-225,cs)
);
}
);
width = 288;
}
);
unicode = 808;
}
{
glyphname = verticallinebelowcomb;
layers = (
{
anchors = (
{
name = _bottom;
pos = (114,0);
},
{
name = bottom;
pos = (114,-191);
}
);
layerId = "DE016B7A-D921-4FAF-BA9C-94A7D66B995D";
shapes = (
{
closed = 1;
nodes = (
(153,-230,l),
(153,-12,l),
(74,-12,l),
(74,-230,l)
);
}
);
width = 227;
}
);
unicode = 809;
}
{
glyphname = macronbelowcomb;
layers = (
{
anchors = (
{
name = _bottom;
pos = (166,0);
},
{
name = bottom;
pos = (166,-191);
}
);
layerId = "DE016B7A-D921-4FAF-BA9C-94A7D66B995D";
shapes = (
{
closed = 1;
nodes = (
(16,-98,l),
(11,-159,l),
(19,-168,l),
(316,-168,l),
(321,-105,l),
(314,-98,l)
);
}
);
width = 331;
}
);
metricLeft = "=macroncomb";
metricRight = "=macroncomb";
unicode = 817;
}
{
glyphname = tildeoverlaycomb;
layers = (
{
anchors = (
{
name = _center;
pos = (195,260);
}
);
layerId = "DE016B7A-D921-4FAF-BA9C-94A7D66B995D";
shapes = (
{
closed = 1;
nodes = (
(295,349,l),
(288,316,o),
(277,263,o),
(258,263,c),
(226,263,o),
(150,337,o),
(107,333,c),
(96,330,l),
(66,299,o),
(49,257,o),
(44,218,c),
(44,208,l),
(82,172,l),
(93,172,l),
(99,203,o),
(107,255,o),
(130,255,c),
(153,255,o),
(227,180,o),
(281,184,c),
(292,187,l),
(322,215,o),
(339,261,o),
(344,301,c),
(344,311,l),
(305,349,l)
);
}
);
width = 389;
}
);
unicode = 820;
}
{
glyphname = strokeshortcomb;
layers = (
{
anchors = (
{
name = _center;
pos = (246,256);
}
);
layerId = "DE016B7A-D921-4FAF-BA9C-94A7D66B995D";
shapes = (
{
closed = 1;
nodes = (
(118,285,l),
(114,230,l),
(119,225,l),
(374,225,l),
(377,278,l),
(372,285,l)
);
}
);
width = 491;
}
);
unicode = 821;
}
{
glyphname = strokelongcomb;
layers = (
{
anchors = (
{
name = _center;
pos = (246,256);
}
);
layerId = "DE016B7A-D921-4FAF-BA9C-94A7D66B995D";
shapes = (
{
closed = 1;
nodes = (
(68,285,l),
(64,230,l),
(69,225,l),
(424,225,l),
(427,278,l),
(422,285,l)
);
}
);
width = 491;
}
);
unicode = 822;
}
{
glyphname = lefthalfringabovecomb;
layers = (
{
anchors = (
{
name = _top;
pos = (123,459);
},
{
name = top;
pos = (123,744);
}
);
layerId = "DE016B7A-D921-4FAF-BA9C-94A7D66B995D";
shapes = (
{
closed = 1;
nodes = (
(215,527,l),
(215,537,l),
(145,537,o),
(113,569,o),
(113,619,cs),
(113,669,o),
(145,701,o),
(215,701,c),
(215,711,l),
(184,754,l),
(104,754,o),
(30,699,o),
(30,619,cs),
(30,539,o),
(104,484,o),
(184,484,c)
);
}
);
width = 245;
}
);
unicode = 849;
}
{
glyphname = doublemacroncomb;
layers = (
{
layerId = "DE016B7A-D921-4FAF-BA9C-94A7D66B995D";
shapes = (
{
closed = 1;
nodes = (
(-300,644,l),
(-310,583,l),
(-294,574,l),
(300,574,l),
(310,637,l),
(296,644,l)
);
}
);
width = 0;
}
);
unicode = 862;
}
{
glyphname = doublemacronbelowcomb;
layers = (
{
layerId = "DE016B7A-D921-4FAF-BA9C-94A7D66B995D";
shapes = (
{
closed = 1;
nodes = (
(-300,-98,l),
(-310,-159,l),
(-294,-168,l),
(300,-168,l),
(310,-105,l),
(296,-98,l)
);
}
);
width = 0;
}
);
unicode = 863;
}
{
glyphname = a.sc;
kernLeft = A;
kernRight = A;
layers = (
{
anchors = (
{
name = bottom;
pos = (257,0);
},
{
name = ogonek;
pos = (481,0);
},
{
name = top;
pos = (262,499);
}
);
layerId = "DE016B7A-D921-4FAF-BA9C-94A7D66B995D";
shapes = (
{
closed = 1;
nodes = (
(215,499,l),
(24,0,ls),
(103,0,l),
(117,60,l),
(256,422,l),
(262,422,l),
(388,56,l),
(400,0,l),
(481,0,l),
(307,499,l)
);
},
{
closed = 1;
nodes = (
(253,189,l),
(117,190,l),
(115,125,l),
(247,126,l),
(387,125,l),
(385,190,l)
);
}
);
width = 514;
}
);
unicode = 7424;
}
{
glyphname = ae.sc;
kernLeft = A;
kernRight = E;
layers = (
{
anchors = (
{
name = top;
pos = (412,499);
}
);
layerId = "DE016B7A-D921-4FAF-BA9C-94A7D66B995D";
shapes = (
{
closed = 1;
nodes = (
(276,499,l),
(1,0,l),
(80,0,l),
(101,59,l),
(306,422,l),
(312,422,l),
(369,55,l),
(373,0,l),
(670,0,l),
(676,64,l),
(671,70,l),
(534,65,l),
(443,65,l),
(386,436,l),
(464,436,l),
(596,430,l),
(604,492,l),
(599,499,l)
);
},
{
closed = 1;
nodes = (
(399,262,l),
(138,204,l),
(117,132,l),
(404,198,l),
(598,235,l),
(593,299,l),
(587,304,l)
);
}
);
width = 701;
}
);
unicode = 7425;
}
{
glyphname = c.sc;
kernLeft = O;
kernRight = C;
layers = (
{
anchors = (
{
name = bottom;
pos = (266,0);
},
{
name = top;
pos = (265,499);
}
);
layerId = "DE016B7A-D921-4FAF-BA9C-94A7D66B995D";
shapes = (
{
closed = 1;
nodes = (
(132,504,o),
(44,412,o),
(44,246,cs),
(44,84,o),
(127,-6,o),
(274,-6,cs),
(328,-6,o),
(372,6,o),
(416,29,c),
(423,103,l),
(414,107,l),
(376,79,o),
(326,61,o),
(277,61,cs),
(181,61,o),
(128,128,o),
(128,253,cs),
(128,378,o),
(181,438,o),
(276,438,cs),
(327,438,o),
(372,421,o),
(405,393,c),
(414,396,l),
(429,470,l),
(389,492,o),
(340,504,o),
(285,504,cs)
);
}
);
width = 460;
}
);
unicode = 7428;
}
{
glyphname = d.sc;
kernLeft = H;
kernRight = O;
layers = (
{
anchors = (
{
name = bottom;
pos = (283,0);
},
{
name = center;
pos = (283,250);
},
{
name = top;
pos = (283,499);
}
);
layerId = "DE016B7A-D921-4FAF-BA9C-94A7D66B995D";
shapes = (
{
closed = 1;
nodes = (
(88,499,l),
(157,430,l),
(182,433,o),
(261,435,o),
(280,435,cs),
(386,435,o),
(440,378,o),
(440,250,cs),
(440,120,o),
(380,60,o),
(278,60,cs),
(257,60,o),
(181,64,o),
(154,67,c),
(88,0,l),
(137,-3,o),
(230,-5,o),
(265,-5,c),
(430,-5,o),
(522,92,o),
(522,267,cs),
(522,418,o),
(438,503,o),
(286,503,c)
);
},
{
closed = 1;
nodes = (
(88,499,l),
(91,150,l),
(88,0,l),
(168,0,l),
(165,157,l),
(169,499,l)
);
}
);
width = 566;
}
);
unicode = 7429;
}
{
glyphname = e.sc;
kernLeft = H;
kernRight = E;
layers = (
{
anchors = (
{
name = bottom;
pos = (246,0);
},
{
name = ogonek;
pos = (404,8);
},
{
name = top;
pos = (243,499);
}
);
layerId = "DE016B7A-D921-4FAF-BA9C-94A7D66B995D";
shapes = (
{
closed = 1;
nodes = (
(88,499,l),
(91,150,l),
(88,0,l),
(168,0,l),
(165,157,l),
(169,499,l)
);
},
{
closed = 1;
nodes = (
(263,64,l),
(142,65,l),
(140,6,l),
(142,0,l),
(396,0,l),
(403,62,l),
(397,68,l)
);
},
{
closed = 1;
nodes = (
(265,287,l),
(146,288,l),
(144,228,l),
(146,222,l),
(258,223,l),
(351,220,l),
(357,283,l),
(352,290,l)
);
},
{
closed = 1;
nodes = (
(142,499,l),
(140,439,l),
(142,434,l),
(271,435,l),
(397,430,l),
(403,492,l),
(398,499,l)
);
}
);
width = 437;
}
);
unicode = 7431;
}
{
glyphname = j.sc;
kernLeft = J;
kernRight = H;
layers = (
{
background = {
shapes = (
{
closed = 1;
nodes = (
(88,499,l),
(91,150,l),
(88,0,l),
(168,0,l),
(165,157,l),
(169,499,l)
);
}
);
};
layerId = "DE016B7A-D921-4FAF-BA9C-94A7D66B995D";
shapes = (
{
closed = 1;
nodes = (
(88,499,l),
(92,156,l),
(92,92,ls),
(92,36,o),
(67,3,o),
(5,-31,c),
(5,-39,l),
(37,-80,l),
(133,-34,o),
(166,12,o),
(166,93,cs),
(166,165,l),
(169,499,l)
);
}
);
width = 261;
}
);
metricRight = "=i.sc";
metricWidth = "=i.sc";
unicode = 7434;
}
{
glyphname = k.sc;
kernLeft = H;
kernRight = K;
layers = (
{
anchors = (
{
name = bottom;
pos = (239,0);
},
{
name = top;
pos = (229,499);
}
);
layerId = "DE016B7A-D921-4FAF-BA9C-94A7D66B995D";
shapes = (
{
closed = 1;
nodes = (
(374,499,l),
(341,454,l),
(172,266,l),
(172,260,l),
(240.435,168.753,o),
(314.488,80.691,o),
(389.507,-4,c),
(401.702,-9,l),
(427.709,-6,o),
(455.341,-1,o),
(479.725,6.422,c),
(481.414,18.414,l),
(403.852,95.976,o),
(327.318,180.42,o),
(259.616,264.932,c),
(469,500,l)
);
},
{
closed = 1;
nodes = (
(88,499,l),
(91,150,l),
(88,0,l),
(168,0,l),
(165,157,l),
(169,499,l)
);
}
);
width = 493;
}
);
unicode = 7435;
}
{
glyphname = lslash.sc;
layers = (
{
layerId = "DE016B7A-D921-4FAF-BA9C-94A7D66B995D";
shapes = (
{
ref = l.sc;
},
{
closed = 1;
nodes = (
(137,306,l),
(126,303,l),
(15,245,l),
(33,190,l),
(38,187,l),
(138,239,l),
(149,242,l),
(261,302,l),
(243,357,l),
(238,359,l)
);
}
);
width = 378;
}
);
unicode = 7436;
}
{
glyphname = m.sc;
kernLeft = M;
kernRight = M;
layers = (
{
anchors = (
{
name = bottom;
pos = (342,0);
},
{
name = top;
pos = (342,499);
}
);
layerId = "DE016B7A-D921-4FAF-BA9C-94A7D66B995D";
shapes = (
{
closed = 1;
nodes = (
(481,499,l),
(455,427,l),
(344,161,l),
(338,161,l),
(233,424,l),
(208,499,l),
(115,499,l),
(60,0,l),
(128,0,l),
(142,159,l),
(167,376,l),
(174,376,l),
(305,55,l),
(368,55,l),
(508,376,l),
(514,376,l),
(540,152,l),
(551,0,l),
(622,0,l),
(571,499,l)
);
}
);
width = 683;
}
);
unicode = 7437;
}
{
glyphname = o.sc;
kernLeft = O;
kernRight = O;
layers = (
{
anchors = (
{
name = bottom;
pos = (279,0);
},
{
name = center;
pos = (279,250);
},
{
name = ogonek;
pos = (406,35);
},
{
name = top;
pos = (280,499);
},
{
name = topright;
pos = (537,499);
}
);
layerId = "DE016B7A-D921-4FAF-BA9C-94A7D66B995D";
shapes = (
{
closed = 1;
nodes = (
(131,505,o),
(44,411,o),
(44,245,cs),
(44,84,o),
(126,-7,o),
(271,-7,cs),
(426,-7,o),
(514,89,o),
(514,260,cs),
(514,416,o),
(432,505,o),
(287,505,c)
);
},
{
closed = 1;
nodes = (
(382,438,o),
(431,381,o),
(431,245,cs),
(431,115,o),
(380,60,o),
(277,60,cs),
(176,60,o),
(127,116,o),
(127,255,cs),
(127,383,o),
(177,438,o),
(279,438,cs)
);
}
);
width = 557;
}
);
unicode = 7439;
}
{
glyphname = p.sc;
kernLeft = H;
kernRight = P;
layers = (
{
anchors = (
{
name = bottom;
pos = (126,0);
},
{
name = top;
pos = (235,499);
}
);
layerId = "DE016B7A-D921-4FAF-BA9C-94A7D66B995D";
shapes = (
{
closed = 1;
nodes = (
(88,499,l),
(132,435,l),
(241,437,l),
(310,434,o),
(345,406,o),
(345,344,cs),
(345,280,o),
(312,243,o),
(249,232,c),
(118,235,l),
(118,170,l),
(225,170,l),
(351,170,o),
(429,238,o),
(429,351,cs),
(429,447,o),
(369,500,o),
(263,500,c)
);
},
{
closed = 1;
nodes = (
(88,499,l),
(91,150,l),
(88,0,l),
(168,0,l),
(165,157,l),
(169,499,l)
);
}
);
width = 469;
}
);
unicode = 7448;
}
{
glyphname = t.sc;
kernLeft = T;
kernRight = T;
layers = (
{
anchors = (
{
name = bottom;
pos = (219,0);
},
{
name = center;
pos = (219,250);
},
{
name = top;
pos = (219,499);
}
);
layerId = "DE016B7A-D921-4FAF-BA9C-94A7D66B995D";
shapes = (
{
closed = 1;
nodes = (
(181,487,l),
(183,150,l),
(180,0,l),
(260,0,l),
(257,157,l),
(260,487,l)
);
},
{
closed = 1;
nodes = (
(37,499,l),
(31,432,l),
(37,425,l),
(133,432,l),
(308,432,l),
(402,425,l),
(407,492,l),
(403,499,l)
);
}
);
width = 438;
}
);
unicode = 7451;
}
{
glyphname = u.sc;
kernLeft = U;
kernRight = U;
layers = (
{
anchors = (
{
name = ogonek;
pos = (404,35);
},
{
name = top;
pos = (277,499);
}
);
layerId = "DE016B7A-D921-4FAF-BA9C-94A7D66B995D";
shapes = (
{
closed = 1;
nodes = (
(397,499,l),
(400,186,ls),
(401,104,o),
(357,62,o),
(274,62,cs),
(190,62,o),
(147,104,o),
(148,186,cs),
(153,499,l),
(72,499,l),
(74,249,l),
(73,173,ls),
(70,58,o),
(141,-6,o),
(271,-6,cs),
(402,-6,o),
(477,59,o),
(475,173,c),
(475,245,l),
(478,499,l)
);
}
);
width = 550;
}
);
unicode = 7452;
}
{
glyphname = v.sc;
kernLeft = V;
kernRight = V;
layers = (
{
layerId = "DE016B7A-D921-4FAF-BA9C-94A7D66B995D";
shapes = (
{
closed = 1;
nodes = (
(403,499,l),
(390,438,l),
(251,78,l),
(246,78,l),
(121,442,l),
(108,499,l),
(26,499,l),
(199,0,l),
(294,0,l),
(483,499,ls)
);
}
);
width = 502;
}
);
unicode = 7456;
}
{
glyphname = w.sc;
kernLeft = W;
kernRight = W;
layers = (
{
anchors = (
{
name = top;
pos = (364,499);
}
);
layerId = "DE016B7A-D921-4FAF-BA9C-94A7D66B995D";
shapes = (
{
closed = 1;
nodes = (
(673,499,l),
(660,440,l),
(530,88,l),
(523,88,l),
(405,437,l),
(394,499,l),
(311,499,l),
(351,375,l),
(245,88,l),
(239,88,l),
(122,444,l),
(113,499,l),
(32,499,l),
(193,0,l),
(279,0,l),
(379,266,l),
(385,266,l),
(480,0,l),
(566,0,l),
(750,499,l)
);
}
);
width = 769;
}
);
unicode = 7457;
}
{
glyphname = z.sc;
kernLeft = Z;
kernRight = Z;
layers = (
{
anchors = (
{
name = bottom;
pos = (236,0);
},
{
name = top;
pos = (236,499);
}
);
layerId = "DE016B7A-D921-4FAF-BA9C-94A7D66B995D";
shapes = (
{
closed = 1;
nodes = (
(379,499,l),
(148,499,l),
(54,500,l),
(47,432,l),
(51,426,l),
(131,435,l),
(328,435,l),
(40,56,l),
(40,-2,l),
(92,0,l),
(315,0,l),
(422,-2,l),
(429,67,l),
(425,72,l),
(339,63,l),
(136,63,l),
(423,440,l),
(423,500,l)
);
}
);
width = 471;
}
);
unicode = 7458;
}
{
glyphname = ezh.sc;
kernLeft = s.sc;
kernRight = ezh.sc;
layers = (
{
anchors = (
{
name = bottom;
pos = (215,0);
},
{
name = top;
pos = (211,501);
}
);
layerId = "DE016B7A-D921-4FAF-BA9C-94A7D66B995D";
shapes = (
{
closed = 1;
nodes = (
(320,-7,o),
(401,53,o),
(401,146,cs),
(401,233,o),
(328,280,o),
(199,280,c),
(152,271,l),
(152,232,l),
(157,225,l),
(201,225,ls),
(275,225,o),
(318,198,o),
(318,149,cs),
(318,98,o),
(267,61,o),
(193,61,cs),
(145,61,o),
(96,75,o),
(64,97,c),
(57,94,l),
(42,29,l),
(77,6,o),
(135,-7,o),
(193,-7,cs)
);
},
{
closed = 1;
nodes = (
(237,271,l),
(387,441,l),
(387,502,l),
(342,501,l),
(136,501,l),
(52,502,l),
(45,434,l),
(49,429,l),
(133,436,l),
(330,436,l),
(319,463,l),
(152,271,l)
);
}
);
userData = {
RMXScaler = {
adjustSpace = 11;
height = 78;
weight = -3;
width = 83;
};
};
width = 453;
}
);
unicode = 7459;
userData = {
RMXScaler = {
source = Ezh;
};
};
}
{
glyphname = N.sups;
layers = (
{
background = {
shapes = (
{
closed = 1;
nodes = (
(13,641,l),
(93,337,l),
(169,337,l),
(228,546,l),
(235,546,l),
(286,337,l),
(359,337,l),
(454,644,l),
(389,644,l),
(378,596,l),
(328,418,l),
(324,418,l),
(281,600,l),
(274,644,l),
(198,644,l),
(188,596,l),
(138,416,l),
(134,416,l),
(91,600,l),
(83,646,l)
);
},
{
closed = 1;
nodes = (
(229,645,o),
(200,623,o),
(175,596,c),
(161,596,l),
(161,546,l),
(185,572,o),
(211,585,o),
(232,585,cs),
(264,585,o),
(281,566,o),
(281,528,cs),
(276,337,l),
(353,337,l),
(351,471,l),
(352,558,ls),
(353,616,o),
(320,645,o),
(261,645,cs)
);
},
{
closed = 1;
nodes = (
(98,638,l),
(101,464,l),
(97,337,l),
(174,337,l),
(171,471,l),
(171,645,l)
);
},
{
closed = 1;
nodes = (
(48,796,l),
(51,464,l),
(47,337,l),
(123,337,l),
(120,471,l),
(123,801,l)
);
}
);
};
layerId = "DE016B7A-D921-4FAF-BA9C-94A7D66B995D";
shapes = (
{
closed = 1;
nodes = (
(339,779,l),
(339,449,l),
(335,449,l),
(132,782,l),
(48,782,l),
(50,458,l),
(47,337,l),
(114,337,l),
(113,472,l),
(113,670,l),
(117,670,l),
(320,337,l),
(404,337,l),
(402,458,l),
(406,783,l)
);
}
);
width = 453;
}
);
unicode = 7482;
}
{
glyphname = a.sups;
layers = (
{
anchors = (
{
name = ogonek;
pos = (308,6);
},
{
name = top;
pos = (171,306);
}
);
layerId = "DE016B7A-D921-4FAF-BA9C-94A7D66B995D";
shapes = (
{
closed = 1;
nodes = (
(127,649,o),
(84,635,o),
(48,611,c),
(57,561,l),
(63,559,l),
(99,583,o),
(129,595,o),
(154,595,cs),
(185,595,o),
(200,580,o),
(200,549,c),
(199,515,l),
(99,496,ls),
(55,488,o),
(33,463,o),
(33,421,cs),
(33,366,o),
(68,333,o),
(126,331,c),
(152,337,o),
(178,355,o),
(200,380,c),
(203,380,l),
(210,345,o),
(223,332,o),
(253,332,cs),
(270,332,o),
(283,337,o),
(296,347,c),
(304,389,l),
(298,394,l),
(292,389,o),
(285,388,o),
(280,388,cs),
(269,388,o),
(264,396,o),
(264,414,cs),
(264,430,o),
(270,544,o),
(270,563,cs),
(270,618,o),
(233,649,o),
(167,649,cs)
);
},
{
closed = 1;
nodes = (
(197,419,l),
(179,397,o),
(158,385,o),
(141,385,cs),
(116,385,o),
(102,402,o),
(102,428,cs),
(102,447,o),
(112,459,o),
(131,463,cs),
(198,478,l)
);
}
);
width = 322;
}
);
unicode = (7491,170);
}
{
glyphname = b.sups;
layers = (
{
layerId = "DE016B7A-D921-4FAF-BA9C-94A7D66B995D";
metricRight = "=o.sups";
shapes = (
{
closed = 1;
nodes = (
(172,645,o),
(145,625,o),
(123,598,c),
(108,598,l),
(110,548,l),
(131,572,o),
(153,586,o),
(178,586,cs),
(222,586,o),
(245,551,o),
(245,489,cs),
(245,414,o),
(214,381,o),
(163,381,cs),
(138,381,o),
(99,393,o),
(62,422,c),
(60,353,l),
(94,339,o),
(133,330,o),
(168,330,cs),
(259,330,o),
(316,390,o),
(316,497,cs),
(316,591,o),
(273,645,o),
(200,645,cs)
);
},
{
closed = 1;
nodes = (
(47,796,l),
(49,463,l),
(47,358,l),
(60,353,l),
(121,353,l),
(119,474,l),
(124,801,l)
);
}
);
width = 346;
}
);
metricLeft = n.sups;
metricRight = o.sups;
unicode = 7495;
}
{
glyphname = d.sups;
layers = (
{
layerId = "DE016B7A-D921-4FAF-BA9C-94A7D66B995D";
shapes = (
{
closed = 1;
nodes = (
(226,796,l),
(227,642,l),
(210,646,o),
(195,649,o),
(182,649,cs),
(89,649,o),
(30,592,o),
(30,484,cs),
(30,390,o),
(79,334,o),
(155,334,cs),
(183,334,o),
(208,353,o),
(229,378,c),
(232,378,l),
(240,344,o),
(256,332,o),
(283,332,cs),
(301,332,o),
(317,337,o),
(331,347,c),
(340,389,l),
(334,394,l),
(327,389,o),
(320,388,o),
(315,388,cs),
(304,388,o),
(299,396,o),
(299,414,cs),
(302,801,l)
);
},
{
closed = 1;
nodes = (
(196,595,o),
(212,592,o),
(227,588,c),
(230,424,l),
(211,402,o),
(190,390,o),
(168,390,cs),
(127,390,o),
(101,424,o),
(101,493,cs),
(101,564,o),
(128,595,o),
(180,595,cs)
);
}
);
width = 353;
}
);
metricLeft = o.sups;
unicode = 7496;
}
{
glyphname = e.sups;
layers = (
{
layerId = "DE016B7A-D921-4FAF-BA9C-94A7D66B995D";
shapes = (
{
closed = 1;
nodes = (
(84,649,o),
(30,589,o),
(30,488,cs),
(30,391,o),
(83,330,o),
(175,330,cs),
(208,330,o),
(243,339,o),
(272,351,c),
(279,406,l),
(273,411,l),
(243,395,o),
(210,388,o),
(182,388,cs),
(126,388,o),
(101,425,o),
(101,493,cs),
(101,560,o),
(124,597,o),
(167,597,cs),
(200,597,o),
(223,574,o),
(223,534,c),
(223,531,o),
(223,529,o),
(222,521,c),
(90,521,l),
(90,483,l),
(280,483,l),
(286,492,l),
(287,502,o),
(288,517,o),
(288,525,cs),
(288,602,o),
(245,649,o),
(169,649,cs)
);
}
);
width = 310;
}
);
metricLeft = o.sups;
unicode = 7497;
}
{
glyphname = g.sups;
layers = (
{
layerId = "DE016B7A-D921-4FAF-BA9C-94A7D66B995D";
shapes = (
{
closed = 1;
nodes = (
(93,452,l),
(74,438,o),
(58,425,o),
(49,410,c),
(48,311,o),
(245,364,o),
(245,301,cs),
(245,272,o),
(212,252,o),
(169,252,cs),
(126,252,o),
(103,271,o),
(103,295,cs),
(103,316,o),
(120,330,o),
(144,345,c),
(98,357,l),
(98,348,l),
(69,332,o),
(44,314,o),
(41,290,cs),
(41,244,o),
(85,208,o),
(163,208,cs),
(250,208,o),
(311,252,o),
(311,313,cs),
(311,423,o),
(112,376,o),
(112,421,cs),
(112,429,o),
(115,434,o),
(131,446,c),
(93,459,l)
);
},
{
closed = 1;
nodes = (
(209,600,o),
(230,580,o),
(230,543,cs),
(230,504,o),
(208,484,o),
(170,484,cs),
(133,484,o),
(113,504,o),
(113,542,cs),
(113,579,o),
(134,600,o),
(172,600,cs)
);
},
{
closed = 1;
nodes = (
(93,648,o),
(45,608,o),
(45,541,cs),
(45,476,o),
(91,438,o),
(169,438,cs),
(248,438,o),
(297,478,o),
(297,545,cs),
(297,605,o),
(247,648,o),
(172,648,cs)
);
},
{
closed = 1;
nodes = (
(303,650,o),
(267,638,o),
(235,633,c),
(277,583,l),
(284,597,l),
(302,599,o),
(317,602,o),
(337,606,c),
(337,656,l),
(330,660,l)
);
}
);
width = 331;
}
);
unicode = 7501;
}
{
glyphname = k.sups;
layers = (
{
anchors = (
{
name = bottom;
pos = (176,0);
}
);
layerId = "DE016B7A-D921-4FAF-BA9C-94A7D66B995D";
shapes = (
{
closed = 1;
nodes = (
(215,644,l),
(200,612,l),
(124,502,l),
(124,497,l),
(153,441,o),
(187,386,o),
(222,334,c),
(231,331,l),
(255,334,o),
(278,336,o),
(301,341,c),
(301,350,l),
(266,401,o),
(229,452,o),
(198,504,c),
(294,644,l)
);
},
{
closed = 1;
nodes = (
(48,796,l),
(51,464,l),
(47,337,l),
(124,337,l),
(120,471,l),
(124,801,l)
);
}
);
width = 303;
}
);
metricLeft = n.sups;
unicode = 7503;
}
{
glyphname = m.sups;
layers = (
{
layerId = "DE016B7A-D921-4FAF-BA9C-94A7D66B995D";
shapes = (
{
closed = 1;
nodes = (
(364,645,o),
(331,623,o),
(305,594,c),
(291,594,l),
(295,548,l),
(320,573,o),
(346,587,o),
(370,587,cs),
(402,587,o),
(419,567,o),
(419,529,cs),
(416,337,l),
(491,337,l),
(490,471,l),
(491,558,ls),
(491,616,o),
(457,645,o),
(397,645,cs)
);
},
{
closed = 1;
nodes = (
(48,638,l),
(51,464,l),
(47,337,l),
(122,337,l),
(120,471,l),
(120,645,l)
);
},
{
closed = 0;
nodes = (
(192,401,l)
);
},
{
closed = 1;
nodes = (
(181,645,o),
(151,623,o),
(124,596,c),
(112,596,l),
(111,546,l),
(137,572,o),
(161,587,o),
(185,587,cs),
(218,587,o),
(235,567,o),
(235,529,cs),
(232,337,l),
(307,337,l),
(304,471,l),
(307,558,ls),
(307,616,o),
(274,645,o),
(213,645,cs)
);
}
);
width = 530;
}
);
metricLeft = n.sups;
metricRight = n.sups;
unicode = 7504;
}
{
glyphname = o.sups;
layers = (
{
anchors = (
{
name = top;
pos = (182,303);
}
);
layerId = "DE016B7A-D921-4FAF-BA9C-94A7D66B995D";
shapes = (
{
closed = 1;
nodes = (
(81,649,o),
(30,591,o),
(30,485,cs),
(30,385,o),
(78,330,o),
(166,330,cs),
(259,330,o),
(310,389,o),
(310,494,cs),
(310,594,o),
(263,649,o),
(174,649,cs)
);
},
{
closed = 1;
nodes = (
(217,595,o),
(240,562,o),
(240,486,cs),
(240,414,o),
(217,383,o),
(171,383,cs),
(125,383,o),
(103,416,o),
(103,493,cs),
(103,564,o),
(125,595,o),
(171,595,cs)
);
}
);
width = 340;
}
);
unicode = (7506,186);
}
{
glyphname = p.sups;
layers = (
{
layerId = "DE016B7A-D921-4FAF-BA9C-94A7D66B995D";
metricRight = "=o.sups";
shapes = (
{
closed = 1;
nodes = (
(170,645,o),
(144,625,o),
(123,599,c),
(107,599,l),
(110,548,l),
(130,573,o),
(153,585,o),
(177,585,cs),
(222,585,o),
(244,552,o),
(244,489,cs),
(244,414,o),
(214,381,o),
(163,381,cs),
(136,381,o),
(96,395,o),
(61,421,c),
(60,356,l),
(99,338,o),
(133,330,o),
(167,330,cs),
(259,330,o),
(316,390,o),
(316,498,cs),
(316,592,o),
(273,645,o),
(200,645,cs)
);
},
{
closed = 1;
nodes = (
(47,638,l),
(49,464,l),
(47,215,l),
(122,215,l),
(119,471,l),
(119,645,l)
);
},
{
closed = 1;
nodes = (
(119,351,l),
(119,607,l)
);
}
);
width = 346;
}
);
metricLeft = n.sups;
metricRight = n.sups;
unicode = 7510;
}
{
glyphname = t.sups;
layers = (
{
layerId = "DE016B7A-D921-4FAF-BA9C-94A7D66B995D";
shapes = (
{
closed = 1;
nodes = (
(59,710,l),
(59,486,l),
(58,416,ls),
(57,365,o),
(89,334,o),
(144,334,cs),
(162,334,o),
(185,344,o),
(203,354,c),
(210,397,l),
(204,404,l),
(192,397,o),
(177,393,o),
(166,393,cs),
(141,393,o),
(129,410,o),
(129,444,cs),
(134,722,l),
(129,726,l)
);
},
{
closed = 1;
nodes = (
(20,641,l),
(17,600,l),
(20,595,l),
(207,595,l),
(211,637,l),
(209,641,l)
);
}
);
width = 214;
}
);
unicode = 7511;
}
{
glyphname = u.sups;
layers = (
{
layerId = "DE016B7A-D921-4FAF-BA9C-94A7D66B995D";
shapes = (
{
closed = 1;
nodes = (
(220,638,l),
(220,428,l),
(199,405,o),
(179,395,o),
(156,395,cs),
(128,395,o),
(111,412,o),
(111,450,cs),
(111,645,l),
(39,638,l),
(41,486,l),
(40,422,ls),
(40,366,o),
(72,335,o),
(130,335,cs),
(162,335,o),
(192,356,o),
(218,386,c),
(222,386,l),
(230,348,o),
(247,332,o),
(277,332,cs),
(293,332,o),
(309,338,o),
(322,347,c),
(330,389,l),
(324,394,l),
(317,389,o),
(311,388,o),
(305,388,cs),
(294,388,o),
(289,397,o),
(289,415,cs),
(292,645,l)
);
}
);
width = 342;
}
);
unicode = 7512;
}
{
glyphname = v.sups;
layers = (
{
layerId = "DE016B7A-D921-4FAF-BA9C-94A7D66B995D";
shapes = (
{
closed = 1;
nodes = (
(12,641,l),
(99,337,l),
(182,337,l),
(284,644,l),
(217,644,l),
(206,593,l),
(147,411,l),
(142,411,l),
(92,598,l),
(84,646,l)
);
}
);
width = 283;
}
);
unicode = 7515;
}
{
glyphname = c.sups;
layers = (
{
layerId = "DE016B7A-D921-4FAF-BA9C-94A7D66B995D";
metricLeft = "=o.sups";
shapes = (
{
closed = 1;
nodes = (
(84,649,o),
(30,589,o),
(30,486,cs),
(30,390,o),
(78,330,o),
(159,330,cs),
(190,330,o),
(229,338,o),
(254,348,c),
(262,406,l),
(256,410,l),
(232,399,o),
(198,392,o),
(176,392,cs),
(129,392,o),
(102,428,o),
(102,493,cs),
(102,553,o),
(128,587,o),
(172,587,cs),
(194,587,o),
(225,578,o),
(244,566,c),
(251,569,l),
(265,628,l),
(243,640,o),
(202,649,o),
(172,649,cs)
);
}
);
width = 280;
}
);
metricLeft = o.sups;
unicode = 7580;
}
{
glyphname = f.sups;
layers = (
{
layerId = "DE016B7A-D921-4FAF-BA9C-94A7D66B995D";
shapes = (
{
closed = 1;
nodes = (
(101,803,o),
(71,761,o),
(72,683,cs),
(75,462,l),
(71,337,l),
(147,337,l),
(144,470,l),
(145,693,ls),
(145,729,o),
(145,745,o),
(171,745,cs),
(185,745,o),
(193,742,o),
(214,733,c),
(220,738,l),
(224,799,l),
(206,803,o),
(196,803,o),
(179,803,cs)
);
},
{
closed = 1;
nodes = (
(30,641,l),
(27,600,l),
(30,595,l),
(205,595,l),
(208,637,l),
(206,641,l)
);
}
);
width = 217;
}
);
unicode = 7584;
}
{
glyphname = z.sups;
layers = (
{
layerId = "DE016B7A-D921-4FAF-BA9C-94A7D66B995D";
shapes = (
{
closed = 1;
nodes = (
(26,599,l),
(30,592,l),
(77,595,l),
(176,595,l),
(23,381,l),
(23,335,l),
(61,337,l),
(189,337,l),
(257,336,l),
(262,383,l),
(258,388,l),
(209,385,l),
(105,385,l),
(258,597,l),
(257,645,l),
(226,644,l),
(88,644,l),
(31,645,l)
);
}
);
width = 284;
}
);
unicode = 7611;
}
{
glyphname = Germandbls;
kernLeft = Germandbls;
kernRight = Germandbls;
layers = (
{
layerId = "DE016B7A-D921-4FAF-BA9C-94A7D66B995D";
shapes = (
{
closed = 1;
nodes = (
(167,647,o),
(72,557,o),
(74,423,cs),
(77,190,l),
(71,0,l),
(158,0,l),
(154,201,l),
(156,423,ls),
(157,519,o),
(215,576,o),
(320,576,cs),
(363,576,o),
(406,566,o),
(456,543,c),
(292,337,l),
(297,319,l),
(455,275,o),
(521,234,o),
(521,163,cs),
(521,105,o),
(477,62,o),
(413,62,cs),
(363,62,o),
(305,88,o),
(259,131,c),
(248,126,l),
(237,37,l),
(289,8,o),
(351,-7,o),
(405,-7,cs),
(516,-7,o),
(606,58,o),
(606,172,cs),
(606,275,o),
(532,323,o),
(400,366,c),
(564,567,l),
(560,584,l),
(482,621,o),
(405,647,o),
(322,647,cs)
);
}
);
width = 635;
}
);
unicode = 7838;
}
{
glyphname = figuredash;
layers = (
{
layerId = "DE016B7A-D921-4FAF-BA9C-94A7D66B995D";
shapes = (
{
closed = 1;
nodes = (
(-11,280,l),
(-15,237,l),
(-10,231,l),
(487,231,l),
(491,274,l),
(485,280,l)
);
}
);
width = 475;
}
);
unicode = 8210;
}
{
glyphname = endash;
kernLeft = hyphen;
kernRight = hyphen;
layers = (
{
layerId = "DE016B7A-D921-4FAF-BA9C-94A7D66B995D";
shapes = (
{
closed = 1;
nodes = (
(-11,286,l),
(-16,233,l),
(-10,226,l),
(487,226,l),
(491,279,l),
(485,286,l)
);
}
);
width = 474;
}
);
metricLeft = emdash;
metricRight = emdash;
unicode = 8211;
}
{
glyphname = emdash;
kernLeft = hyphen;
kernRight = hyphen;
layers = (
{
layerId = "DE016B7A-D921-4FAF-BA9C-94A7D66B995D";
shapes = (
{
closed = 1;
nodes = (
(-12,280,l),
(-16,237,l),
(-11,231,l),
(951,231,l),
(955,274,l),
(949,280,l)
);
}
);
width = 938;
}
);
unicode = 8212;
}
{
glyphname = quoteright;
kernLeft = asterisk;
kernRight = asterisk;
layers = (
{
layerId = "DE016B7A-D921-4FAF-BA9C-94A7D66B995D";
shapes = (
{
closed = 1;
nodes = (
(61,706,o),
(39,691,o),
(21,675,c),
(21,665,l),
(56,650,o),
(70,626,o),
(70,594,cs),
(70,562,o),
(54,527,o),
(18,489,c),
(19,480,l),
(59,452,l),
(123,515,o),
(153,571,o),
(153,624,cs),
(153,670,o),
(131,701,o),
(85,720,c)
);
}
);
width = 171;
}
);
unicode = 8217;
}
{
glyphname = guilsinglright;
layers = (
{
layerId = "DE016B7A-D921-4FAF-BA9C-94A7D66B995D";
shapes = (
{
closed = 1;
nodes = (
(22,386,l),
(22,377,l),
(150,226,l),
(22,75,l),
(22,66,l),
(55,47,l),
(202,219,l),
(202,235,l),
(55,405,l)
);
}
);
width = 226;
}
);
metricLeft = "=|guilsinglleft";
metricRight = "=|guilsinglleft";
unicode = 8250;
}
{
glyphname = zero.sups;
layers = (
{
layerId = "DE016B7A-D921-4FAF-BA9C-94A7D66B995D";
shapes = (
{
closed = 1;
nodes = (
(93,706,o),
(39,636,o),
(39,507,cs),
(39,385,o),
(90,318,o),
(182,318,cs),
(281,318,o),
(334,388,o),
(334,518,cs),
(334,639,o),
(284,706,o),
(192,706,cs)
);
},
{
closed = 1;
nodes = (
(245,638,o),
(275,595,o),
(275,508,cs),
(275,425,o),
(246,382,o),
(187,382,cs),
(128,382,o),
(99,425,o),
(99,513,cs),
(99,596,o),
(128,638,o),
(186,638,cs)
);
}
);
width = 374;
}
);
unicode = 8304;
}
{
glyphname = i.sups;
layers = (
{
layerId = "DE016B7A-D921-4FAF-BA9C-94A7D66B995D";
shapes = (
{
closed = 1;
nodes = (
(49,638,l),
(52,464,l),
(48,337,l),
(125,337,l),
(121,471,l),
(125,645,l)
);
},
{
closed = 1;
nodes = (
(63,790,o),
(47,772,o),
(47,747,cs),
(47,721,o),
(61,706,o),
(85,706,cs),
(111,706,o),
(126,722,o),
(126,749,cs),
(126,774,o),
(113,790,o),
(89,790,cs)
);
}
);
width = 165;
}
);
metricLeft = n.sups;
unicode = 8305;
}
{
glyphname = four.sups;
layers = (
{
layerId = "DE016B7A-D921-4FAF-BA9C-94A7D66B995D";
shapes = (
{
closed = 1;
nodes = (
(189,702,l),
(26,472,l),
(26,425,l),
(31,418,l),
(84,421,l),
(246,421,l),
(315,418,l),
(319,470,l),
(314,477,l),
(92,477,l),
(191,618,l),
(196,618,l),
(196,461,l),
(194,323,l),
(198,319,l),
(258,322,l),
(262,328,l),
(257,449,l),
(258,702,l)
);
}
);
width = 353;
}
);
unicode = 8308;
}
{
glyphname = five.sups;
layers = (
{
layerId = "DE016B7A-D921-4FAF-BA9C-94A7D66B995D";
shapes = (
{
closed = 1;
nodes = (
(202,702,l),
(104,702,l),
(68,703,l),
(59,693,l),
(57,518,l),
(61,511,l),
(123,500,ls),
(172,489,o),
(193,471,o),
(193,441,cs),
(193,399,o),
(159,373,o),
(103,373,cs),
(81,373,o),
(58,375,o),
(35,382,c),
(29,376,l),
(34,324,l),
(55,320,o),
(83,317,o),
(102,317,cs),
(200,317,o),
(266,368,o),
(266,447,cs),
(266,503,o),
(231,536,o),
(156,552,cs),
(115,562,l),
(117,644,l),
(204,644,l),
(255,639,l),
(261,644,l),
(268,700,l),
(264,704,l)
);
}
);
width = 306;
}
);
unicode = 8309;
}
{
glyphname = six.sups;
layers = (
{
layerId = "DE016B7A-D921-4FAF-BA9C-94A7D66B995D";
shapes = (
{
closed = 1;
nodes = (
(228,707,l),
(107,656,o),
(36,568,o),
(36,460,c),
(36,370,o),
(85,317,o),
(168,317,c),
(259,317,o),
(303,372,o),
(303,443,c),
(303,505,o),
(265,553,o),
(194,553,cs),
(168,553,o),
(143,544,o),
(122,530,c),
(108,546,l),
(99,474,l),
(122,491,o),
(147,501,o),
(173,501,cs),
(213,501,o),
(235,479,o),
(235,436,c),
(235,389,o),
(212,364,o),
(170,364,c),
(123,364,o),
(105,399,o),
(105,461,c),
(105,564,o),
(153,620,o),
(280,668,c),
(280,675,l),
(233,707,l)
);
}
);
width = 338;
}
);
unicode = 8310;
}
{
glyphname = seven.sups;
layers = (
{
layerId = "DE016B7A-D921-4FAF-BA9C-94A7D66B995D";
shapes = (
{
closed = 1;
nodes = (
(23,644,l),
(27,636,l),
(84,641,l),
(199,641,l),
(60,343,l),
(64,331,l),
(126,315,l),
(161,404,l),
(274,649,l),
(273,703,l),
(243,702,l),
(97,702,l),
(29,703,l)
);
}
);
width = 301;
}
);
unicode = 8311;
}
{
glyphname = eight.sups;
layers = (
{
layerId = "DE016B7A-D921-4FAF-BA9C-94A7D66B995D";
shapes = (
{
closed = 1;
nodes = (
(104,706,o),
(53,667,o),
(53,602,cs),
(53,554,o),
(83,529,o),
(118,511,c),
(118,508,l),
(74,491,o),
(40,464,o),
(40,414,cs),
(40,357,o),
(84,317,o),
(163,317,cs),
(245,317,o),
(299,359,o),
(299,428,cs),
(299,480,o),
(263,502,o),
(224,520,c),
(224,524,l),
(262,544,o),
(288,570,o),
(288,614,cs),
(288,670,o),
(247,706,o),
(179,706,cs)
);
},
{
closed = 1;
nodes = (
(202,474,o),
(237,460,o),
(237,422,cs),
(237,391,o),
(213,366,o),
(169,366,cs),
(127,366,o),
(103,389,o),
(103,423,cs),
(103,461,o),
(132,478,o),
(164,489,c)
);
},
{
closed = 1;
nodes = (
(207,656,o),
(228,637,o),
(228,606,cs),
(228,572,o),
(205,555,o),
(178,541,c),
(145,555,o),
(117,570,o),
(117,604,cs),
(117,636,o),
(138,656,o),
(174,656,cs)
);
}
);
width = 343;
}
);
unicode = 8312;
}
{
glyphname = nine.sups;
layers = (
{
layerId = "DE016B7A-D921-4FAF-BA9C-94A7D66B995D";
shapes = (
{
closed = 1;
nodes = (
(83,708,o),
(38,652,o),
(38,582,c),
(38,519,o),
(78,471,o),
(147,471,cs),
(173,471,o),
(198,480,o),
(219,493,c),
(233,479,l),
(243,551,l),
(219,533,o),
(195,523,o),
(168,523,cs),
(128,523,o),
(106,546,o),
(106,589,c),
(106,635,o),
(129,660,o),
(172,660,c),
(219,660,o),
(237,625,o),
(237,563,c),
(237,460,o),
(189,399,o),
(62,352,c),
(62,344,l),
(108,312,l),
(112,312,l),
(235,363,o),
(305,456,o),
(305,563,c),
(305,654,o),
(256,708,o),
(173,708,c)
);
}
);
width = 339;
}
);
unicode = 8313;
}
{
glyphname = plus.sups;
layers = (
{
layerId = "DE016B7A-D921-4FAF-BA9C-94A7D66B995D";
shapes = (
{
closed = 1;
nodes = (
(137,644,l),
(137,538,l),
(32,538,l),
(27,485,l),
(33,479,l),
(137,479,l),
(137,375,l),
(144,369,l),
(197,373,l),
(197,479,l),
(302,479,l),
(307,532,l),
(300,538,l),
(197,538,l),
(197,642,l),
(190,649,l)
);
}
);
width = 333;
}
);
unicode = 8314;
}
{
glyphname = minus.sups;
layers = (
{
layerId = "DE016B7A-D921-4FAF-BA9C-94A7D66B995D";
shapes = (
{
closed = 1;
nodes = (
(302,479,l),
(307,532,l),
(300,538,l),
(167,538,l),
(32,538,l),
(27,485,l),
(33,479,l),
(167,479,l)
);
}
);
width = 333;
}
);
unicode = 8315;
}
{
glyphname = n.sups;
layers = (
{
layerId = "DE016B7A-D921-4FAF-BA9C-94A7D66B995D";
shapes = (
{
closed = 1;
nodes = (
(179,645,o),
(150,623,o),
(125,596,c),
(111,596,l),
(111,546,l),
(135,572,o),
(161,585,o),
(182,585,cs),
(214,585,o),
(231,566,o),
(231,528,cs),
(226,337,l),
(303,337,l),
(301,471,l),
(302,558,ls),
(303,616,o),
(270,645,o),
(211,645,cs)
);
},
{
closed = 1;
nodes = (
(48,638,l),
(51,464,l),
(47,337,l),
(124,337,l),
(121,471,l),
(121,645,l)
);
}
);
width = 342;
}
);
unicode = 8319;
}
{
glyphname = zero.subs;
layers = (
{
layerId = "DE016B7A-D921-4FAF-BA9C-94A7D66B995D";
shapes = (
{
closed = 1;
nodes = (
(75,259,o),
(22,190,o),
(22,64,cs),
(22,-58,o),
(72,-124,o),
(163,-124,cs),
(259,-124,o),
(311,-55,o),
(311,72,cs),
(311,193,o),
(261,259,o),
(171,259,cs)
);
},
{
closed = 1;
nodes = (
(230,205,o),
(264,157,o),
(264,64,cs),
(264,-25,o),
(231,-73,o),
(167,-73,cs),
(103,-73,o),
(70,-25,o),
(70,69,cs),
(70,158,o),
(103,205,o),
(166,205,cs)
);
}
);
width = 333;
}
);
unicode = 8320;
}
{
glyphname = four.subs;
layers = (
{
layerId = "DE016B7A-D921-4FAF-BA9C-94A7D66B995D";
shapes = (
{
closed = 1;
nodes = (
(184,257,l),
(18,26,l),
(18,-12,l),
(23,-18,l),
(69,-15,l),
(236,-15,l),
(299,-18,l),
(303,24,l),
(299,30,l),
(72,30,l),
(185,188,l),
(189,188,l),
(189,16,l),
(188,-119,l),
(191,-123,l),
(239,-120,l),
(242,-115,l),
(238,8,l),
(239,257,l)
);
}
);
width = 333;
}
);
unicode = 8324;
}
{
glyphname = five.subs;
layers = (
{
layerId = "DE016B7A-D921-4FAF-BA9C-94A7D66B995D";
shapes = (
{
closed = 1;
nodes = (
(217,257,l),
(120,257,l),
(85,258,l),
(77,249,l),
(74,71,l),
(78,65,l),
(137,67,ls),
(204,69,o),
(218,42,o),
(218,-2,cs),
(218,-49,o),
(178,-79,o),
(116,-79,cs),
(96,-79,o),
(74,-77,o),
(52,-71,c),
(47,-76,l),
(51,-118,l),
(72,-122,o),
(97,-124,o),
(115,-124,cs),
(211,-124,o),
(275,-74,o),
(275,3,cs),
(275,68,o),
(252,117,o),
(163,117,cs),
(121,117,l),
(124,210,l),
(222,210,l),
(267,206,l),
(272,210,l),
(277,255,l),
(274,259,l)
);
}
);
width = 333;
}
);
unicode = 8325;
}
{
glyphname = six.subs;
layers = (
{
layerId = "DE016B7A-D921-4FAF-BA9C-94A7D66B995D";
shapes = (
{
closed = 1;
nodes = (
(232,262,l),
(109,213,o),
(38,125,o),
(38,16,c),
(38,-73,o),
(84,-125,o),
(164,-125,c),
(252,-125,o),
(295,-73,o),
(295,-2,c),
(295,61,o),
(257,106,o),
(187,106,cs),
(158,106,o),
(130,95,o),
(106,79,c),
(95,92,l),
(87,32,l),
(113,52,o),
(141,64,o),
(171,64,cs),
(216,64,o),
(241,39,o),
(241,-7,c),
(241,-58,o),
(214,-86,o),
(166,-86,c),
(115,-86,o),
(93,-49,o),
(93,17,c),
(93,121,o),
(146,183,o),
(273,230,c),
(273,236,l),
(236,262,l)
);
}
);
width = 333;
}
);
unicode = 8326;
}
{
glyphname = trademark;
kernLeft = asterisk;
kernRight = asterisk;
layers = (
{
layerId = "DE016B7A-D921-4FAF-BA9C-94A7D66B995D";
shapes = (
{
closed = 1;
nodes = (
(406,640,l),
(394,605,l),
(346,491,l),
(343,491,l),
(299,605,l),
(288,640,l),
(233,640,l),
(207,405,l),
(247,405,l),
(253,481,l),
(264,570,l),
(267,570,l),
(324,430,l),
(361,430,l),
(422,570,l),
(426,570,l),
(436,476,l),
(441,405,l),
(482,405,l),
(459,640,l)
);
},
{
closed = 1;
nodes = (
(76,634,l),
(77,475,l),
(75,405,l),
(121,405,l),
(119,479,l),
(121,634,l)
);
},
{
closed = 1;
nodes = (
(8,640,l),
(5,606,l),
(8,602,l),
(56,604,l),
(141,604,l),
(187,602,l),
(190,636,l),
(187,640,l)
);
}
);
width = 487;
}
);
unicode = 8482;
}
{
glyphname = minus;
layers = (
{
layerId = "DE016B7A-D921-4FAF-BA9C-94A7D66B995D";
shapes = (
{
closed = 1;
nodes = (
(39,294,l),
(34,241,l),
(40,235,l),
(449,235,l),
(454,288,l),
(447,294,l)
);
}
);
width = 487;
}
);
unicode = 8722;
}
{
glyphname = infinity;
layers = (
{
layerId = "DE016B7A-D921-4FAF-BA9C-94A7D66B995D";
shapes = (
{
closed = 1;
nodes = (
(293,404,o),
(260,358,o),
(241,320,c),
(215,366,o),
(188,404,o),
(132,404,cs),
(62,404,o),
(20,347,o),
(20,265,cs),
(20,186,o),
(61,125,o),
(133,125,cs),
(191,125,o),
(221,163,o),
(247,214,c),
(276,161,o),
(304,125,o),
(358,125,cs),
(424,125,o),
(467,179,o),
(467,262,cs),
(467,340,o),
(429,404,o),
(355,404,cs)
);
},
{
closed = 1;
nodes = (
(181,349,o),
(198,314,o),
(218,272,c),
(197,225,o),
(179,182,o),
(133,182,cs),
(94,182,o),
(70,219,o),
(70,266,cs),
(70,312,o),
(93,349,o),
(137,349,cs)
);
},
{
closed = 1;
nodes = (
(397,347,o),
(417,307,o),
(417,262,cs),
(417,214,o),
(394,179,o),
(355,179,cs),
(311,179,o),
(291,215,o),
(269,259,c),
(287,302,o),
(306,347,o),
(354,347,cs)
);
}
);
width = 487;
}
);
unicode = 8734;
}
{
glyphname = notequal;
layers = (
{
layerId = "DE016B7A-D921-4FAF-BA9C-94A7D66B995D";
shapes = (
{
closed = 1;
nodes = (
(265,520,l),
(144,9,l),
(149,2,l),
(204,2,l),
(325,513,l),
(319,520,l)
);
},
{
closed = 1;
nodes = (
(39,378,l),
(34,325,l),
(40,319,l),
(449,319,l),
(454,372,l),
(447,378,l)
);
},
{
closed = 1;
nodes = (
(39,209,l),
(34,156,l),
(40,150,l),
(449,150,l),
(454,203,l),
(447,209,l)
);
}
);
width = 487;
}
);
unicode = 8800;
}
{
glyphname = blackSquare;
layers = (
{
layerId = "DE016B7A-D921-4FAF-BA9C-94A7D66B995D";
shapes = (
{
closed = 1;
nodes = (
(391,81,l),
(391,377,l),
(95,377,l),
(95,81,l)
);
}
);
width = 487;
}
);
unicode = (9632,9642);
}
{
glyphname = whiteSquare;
layers = (
{
layerId = "DE016B7A-D921-4FAF-BA9C-94A7D66B995D";
shapes = (
{
closed = 1;
nodes = (
(150,322,l),
(336,322,l),
(336,136,l),
(150,136,l)
);
},
{
closed = 1;
nodes = (
(391,81,l),
(391,377,l),
(95,377,l),
(95,81,l)
);
}
);
width = 487;
}
);
metricLeft = "=blackSquare";
metricRight = "=blackSquare";
metricWidth = "=blackSquare";
unicode = (9633,9643);
}
{
glyphname = blackDiamond;
layers = (
{
layerId = "DE016B7A-D921-4FAF-BA9C-94A7D66B995D";
shapes = (
{
closed = 1;
nodes = (
(452,229,l),
(243,438,l),
(34,229,l),
(243,20,l)
);
}
);
width = 487;
}
);
unicode = (9670,11045,11049);
}
{
glyphname = whiteDiamond;
layers = (
{
layerId = "DE016B7A-D921-4FAF-BA9C-94A7D66B995D";
shapes = (
{
closed = 1;
nodes = (
(112,229,l),
(243,360,l),
(374,229,l),
(243,98,l)
);
},
{
closed = 1;
nodes = (
(452,229,l),
(243,438,l),
(34,229,l),
(243,20,l)
);
}
);
width = 487;
}
);
metricLeft = "=blackDiamond";
metricRight = "=blackDiamond";
metricWidth = "=blackDiamond";
unicode = (9671,11046);
}
{
glyphname = dottedCircle;
layers = (
{
anchors = (
{
name = bottom;
pos = (244,0);
},
{
name = center;
pos = (244,230);
},
{
name = ogonek;
pos = (358,32);
},
{
name = top;
pos = (244,459);
},
{
name = topright;
pos = (449,459);
}
);
background = {
shapes = (
{
closed = 1;
nodes = (
(115,467,o),
(39,378,o),
(39,223,cs),
(39,76,o),
(111,-8,o),
(237,-8,cs),
(371,-8,o),
(447,81,o),
(447,236,cs),
(447,383,o),
(375,467,o),
(249,467,cs)
);
},
{
closed = 1;
nodes = (
(324,407,o),
(367,343,o),
(367,216,cs),
(367,106,o),
(324,52,o),
(242,52,cs),
(162,52,o),
(119,114,o),
(119,243,cs),
(119,350,o),
(162,407,o),
(244,407,cs)
);
}
);
};
layerId = "DE016B7A-D921-4FAF-BA9C-94A7D66B995D";
shapes = (
{
closed = 1;
nodes = (
(166,443,qs),
(156,443,o),
(142,428,o),
(142,419,qs),
(142,408,o),
(157,395,o),
(167,395,qs),
(177,395,o),
(189,409,o),
(189,419,qs),
(189,424,o),
(187,428,qs),
(181,443,o)
);
},
{
closed = 1;
nodes = (
(321,64,qs),
(312,64,o),
(299,49,o),
(299,40,qs),
(299,30,o),
(314,16,o),
(323,16,qs),
(333,16,o),
(347,31,o),
(347,40,qs),
(347,43,o),
(345,49,q),
(337,64,o)
);
},
{
closed = 1;
nodes = (
(99,398,qs),
(89,398,o),
(75,384,o),
(75,374,qs),
(75,364,o),
(89,351,o),
(99,351,qs),
(123,351,o),
(123,375,qs),
(123,385,o),
(115,391,qs),
(108,398,o)
);
},
{
closed = 1;
nodes = (
(388,108,qs),
(379,108,o),
(365,94,o),
(365,84,qs),
(365,75,o),
(379,61,o),
(389,61,qs),
(400,61,o),
(413,75,o),
(413,84,qs),
(413,94,o),
(406,101,qs),
(398,108,o)
);
},
{
closed = 1;
nodes = (
(54,332,qs),
(45,332,o),
(31,318,o),
(31,308,qs),
(31,299,o),
(44,284,o),
(54,284,qs),
(63,284,o),
(79,297,o),
(79,307,qs),
(79,323,o),
(63,330,qs),
(57,332,o)
);
},
{
closed = 1;
nodes = (
(434,174,qs),
(425,174,o),
(410,162,o),
(410,151,qs),
(410,142,o),
(423,127,o),
(434,127,qs),
(443,127,o),
(458,141,o),
(458,151,qs),
(458,166,o),
(443,173,qs),
(439,174,o)
);
},
{
closed = 1;
nodes = (
(15,239,o),
(15,229,qs),
(15,220,o),
(29,205,o),
(38,205,qs),
(39,205,ls),
(48,205,o),
(63,220,o),
(63,230,qs),
(63,239,o),
(48,253,o),
(39,253,qs),
(29,253,o)
);
},
{
closed = 1;
nodes = (
(425,239,o),
(425,229,qs),
(425,220,o),
(439,206,o),
(448,206,qs),
(450,206,ls),
(460,206,o),
(473,220,o),
(473,229,qs),
(473,239,o),
(459,253,o),
(449,253,qs),
(440,253,o)
);
},
{
closed = 1;
nodes = (
(31,151,qs),
(31,141,o),
(45,127,o),
(55,127,qs),
(65,127,o),
(79,142,o),
(79,151,qs),
(79,161,o),
(65,174,o),
(55,174,qs),
(49,174,o),
(45,172,qs),
(31,167,o)
);
},
{
closed = 1;
nodes = (
(410,307,qs),
(410,298,o),
(424,284,o),
(433,284,qs),
(444,284,o),
(458,299,o),
(458,308,qs),
(458,318,o),
(443,332,o),
(434,332,qs),
(431,332,o),
(425,330,q),
(410,323,o)
);
},
{
closed = 1;
nodes = (
(75,84,qs),
(75,75,o),
(90,60,o),
(99,60,qs),
(109,60,o),
(123,75,o),
(123,84,qs),
(123,94,o),
(109,108,o),
(98,108,qs),
(90,108,o),
(82,100,qs),
(75,93,o)
);
},
{
closed = 1;
nodes = (
(366,374,qs),
(366,365,o),
(380,350,o),
(389,350,qs),
(399,350,o),
(413,365,o),
(413,374,qs),
(413,384,o),
(399,398,o),
(389,398,qs),
(380,398,o),
(372,391,q),
(366,384,o)
);
},
{
closed = 1;
nodes = (
(142,39,qs),
(142,31,o),
(156,16,o),
(166,16,qs),
(175,16,o),
(190,29,o),
(190,39,qs),
(190,48,o),
(176,63,o),
(166,63,qs),
(160,63,o),
(147,55,o),
(144,48,qs),
(142,42,o)
);
},
{
closed = 1;
nodes = (
(299,419,qs),
(299,410,o),
(313,395,o),
(323,395,qs),
(332,395,o),
(347,408,o),
(347,418,qs),
(347,428,o),
(333,443,o),
(323,443,qs),
(307,443,o),
(301,428,qs),
(299,423,o)
);
},
{
closed = 1;
nodes = (
(235,0,o),
(244,0,qs),
(254,0,o),
(268,14,o),
(268,24,qs),
(268,34,o),
(254,48,o),
(244,48,qs),
(235,48,o),
(221,34,o),
(221,24,qs),
(221,14,o)
);
},
{
closed = 1;
nodes = (
(235,411,o),
(244,411,qs),
(254,411,o),
(268,425,o),
(268,434,qs),
(268,444,o),
(254,458,o),
(244,458,qs),
(235,458,o),
(221,444,o),
(221,434,qs),
(221,425,o)
);
}
);
width = 487;
}
);
unicode = 9676;
}
{
glyphname = "leftanglebracket-math";
layers = (
{
layerId = "DE016B7A-D921-4FAF-BA9C-94A7D66B995D";
shapes = (
{
closed = 1;
nodes = (
(242,-118,l),
(104,257,l),
(242,632,l),
(188,650,l),
(180,647,l),
(28,274,l),
(28,240,l),
(180,-133,l),
(188,-136,l)
);
}
);
width = 285;
}
);
unicode = 10216;
}
{
glyphname = "rightanglebracket-math";
layers = (
{
layerId = "DE016B7A-D921-4FAF-BA9C-94A7D66B995D";
shapes = (
{
closed = 1;
nodes = (
(105,-133,l),
(257,240,l),
(257,274,l),
(105,647,l),
(97,650,l),
(43,632,l),
(181,257,l),
(43,-118,l),
(97,-136,l)
);
}
);
width = 285;
}
);
unicode = 10217;
}
{
glyphname = "Alpha-latin";
kernLeft = C;
kernRight = a;
layers = (
{
anchors = (
{
name = bottom;
pos = (318,0);
},
{
name = center;
pos = (318,321);
},
{
name = ogonek;
pos = (422,28);
},
{
name = top;
pos = (329,641);
},
{
name = topleft;
pos = (50,641);
},
{
name = topright;
pos = (616,641);
}
);
layerId = "DE016B7A-D921-4FAF-BA9C-94A7D66B995D";
shapes = (
{
closed = 1;
nodes = (
(405,578,o),
(451,565,o),
(486,546,c),
(489,193,l),
(488,129,l),
(444,90,o),
(365,64,o),
(309,64,cs),
(218,64,o),
(131,108,o),
(130,253,cs),
(128,471,o),
(233,578,o),
(363,578,cs)
);
},
{
closed = 1;
nodes = (
(508,25,o),
(523,8,o),
(537,-10,c),
(615,10,l),
(602,25,o),
(591,39,o),
(582,55,cs),
(573,71,o),
(567,93,o),
(567,121,cs),
(566,201,l),
(573,613,l),
(565,618,l),
(518,627,l),
(479,638,o),
(413,648,o),
(363,648,cs),
(185,648,o),
(41,503,o),
(41,246,cs),
(41,62,o),
(142,-8,o),
(325,-8,c),
(395,10,o),
(444,34,o),
(479,57,cs),
(496,68,l)
);
}
);
width = 636;
}
);
unicode = 11373;
}
{
glyphname = f.sc;
kernLeft = H;
kernRight = F;
layers = (
{
layerId = "DE016B7A-D921-4FAF-BA9C-94A7D66B995D";
shapes = (
{
closed = 1;
nodes = (
(83,499,l),
(86,150,l),
(83,0,l),
(163,0,l),
(160,157,l),
(164,499,l)
);
},
{
closed = 1;
nodes = (
(246,274,l),
(140,275,l),
(140,209,l),
(239,210,l),
(334,208,l),
(340,270,l),
(334,277,l)
);
},
{
closed = 1;
nodes = (
(137,499,l),
(135,439,l),
(137,434,l),
(252,435,l),
(375,430,l),
(382,492,l),
(377,499,l)
);
}
);
width = 389;
}
);
unicode = 42800;
}
{
glyphname = s.sc;
kernLeft = S;
kernRight = S;
layers = (
{
anchors = (
{
name = bottom;
pos = (197,0);
},
{
name = top;
pos = (215,499);
}
);
guides = (
{
angle = -41;
pos = (263,195);
}
);
layerId = "DE016B7A-D921-4FAF-BA9C-94A7D66B995D";
shapes = (
{
closed = 1;
nodes = (
(129,504,o),
(61,440,o),
(61,360,cs),
(61,210,o),
(297,227,o),
(297,129,cs),
(297,90,o),
(260,56,o),
(205,56,cs),
(163,56,o),
(107,76,o),
(68,117,c),
(58,112,l),
(48,27,l),
(96,4,o),
(151,-6,o),
(195,-6,cs),
(313,-6,o),
(376,66,o),
(376,143,cs),
(376,292,o),
(140,276,o),
(140,371,cs),
(140,405,o),
(171,442,o),
(230,442,cs),
(267,442,o),
(299,428,o),
(336,397,c),
(349,400,l),
(362,480,l),
(321,496,o),
(277,504,o),
(239,504,cs)
);
}
);
width = 427;
}
);
unicode = 42801;
}
{
glyphname = Gscript;
layers = (
{
anchors = (
{
name = bottom;
pos = (314,0);
},
{
name = center;
pos = (314,321);
},
{
name = ogonek;
pos = (418,28);
},
{
name = top;
pos = (325,641);
},
{
name = topleft;
pos = (46,641);
},
{
name = topright;
pos = (612,641);
}
);
layerId = "DE016B7A-D921-4FAF-BA9C-94A7D66B995D";
shapes = (
{
closed = 1;
nodes = (
(401,578,o),
(447,565,o),
(482,546,c),
(485,193,l),
(484,129,l),
(440,90,o),
(361,64,o),
(305,64,cs),
(214,64,o),
(127,108,o),
(126,253,cs),
(124,471,o),
(229,578,o),
(359,578,cs)
);
},
{
closed = 1;
nodes = (
(564,44,o),
(563,93,o),
(563,121,cs),
(562,201,l),
(569,613,l),
(561,618,l),
(514,627,l),
(475,638,o),
(409,648,o),
(359,648,cs),
(181,648,o),
(37,503,o),
(37,246,cs),
(37,62,o),
(138,-8,o),
(321,-8,c),
(391,10,o),
(440,34,o),
(475,57,cs),
(492,68,l),
(484,16,l),
(484,-97,o),
(408,-124,o),
(298,-124,cs),
(196,-124,o),
(151,-99,o),
(131,-81,c),
(120,-84,l),
(102,-152,l),
(132,-175,o),
(191,-195,o),
(297,-195,cs),
(449,-195,o),
(567,-155,o),
(564,20,cs)
);
}
);
width = 636;
}
);
metricLeft = "=O";
metricWidth = "=O";
unicode = 42924;
}
{
glyphname = q.sc;
kernLeft = O;
kernRight = O;
layers = (
{
layerId = "DE016B7A-D921-4FAF-BA9C-94A7D66B995D";
shapes = (
{
closed = 1;
nodes = (
(131,505,o),
(44,411,o),
(44,245,cs),
(44,84,o),
(126,-7,o),
(271,-7,cs),
(426,-7,o),
(514,89,o),
(514,260,cs),
(514,416,o),
(432,505,o),
(287,505,c)
);
},
{
closed = 1;
nodes = (
(282,5,l),
(368,-67,o),
(466,-121,o),
(577,-152,c),
(584,-150,l),
(599,-137,o),
(609,-122,o),
(620,-101,c),
(617,-92,l),
(514,-72,o),
(421,-30,o),
(336,29,c)
);
},
{
closed = 1;
nodes = (
(382,438,o),
(431,381,o),
(431,245,cs),
(431,115,o),
(380,60,o),
(277,60,cs),
(176,60,o),
(127,116,o),
(127,255,cs),
(127,383,o),
(177,438,o),
(279,438,cs)
);
}
);
width = 561;
}
);
unicode = 42927;
}
{
glyphname = q.sups;
layers = (
{
layerId = "DE016B7A-D921-4FAF-BA9C-94A7D66B995D";
shapes = (
{
closed = 1;
nodes = (
(231,642,o),
(204,649,o),
(177,649,cs),
(89,649,o),
(30,592,o),
(30,485,cs),
(30,391,o),
(77,334,o),
(153,334,cs),
(180,334,o),
(202,352,o),
(222,374,c),
(226,374,l),
(226,362,l),
(223,215,l),
(298,215,l),
(296,466,l),
(298,620,l),
(293,625,l),
(255,635,l)
);
},
{
closed = 1;
nodes = (
(193,595,o),
(208,593,o),
(226,587,c),
(226,423,l),
(208,402,o),
(188,390,o),
(165,390,cs),
(126,390,o),
(101,424,o),
(101,493,cs),
(101,564,o),
(127,595,o),
(178,595,cs)
);
}
);
width = 337;
}
);
metricLeft = o.sups;
metricRight = "=i.sups";
unicode = 67493;
}
{
color = 5;
glyphname = A.back;
layers = (
{
anchors = (
{
name = bottom;
pos = (290,0);
},
{
name = ogonek;
pos = (559,0);
},
{
name = top;
pos = (291,641);
}
);
layerId = "DE016B7A-D921-4FAF-BA9C-94A7D66B995D";
shapes = (
{
closed = 1;
nodes = (
(247,641,l),
(13,0,l),
(99,0,l),
(115,70,l),
(291,554,l),
(298,554,l),
(456,66,l),
(471,0,l),
(559,0,l),
(347,641,l)
);
},
{
closed = 1;
nodes = (
(246,162,l),
(63,65,l),
(99,0,l),
(274,100,l),
(463,201,l),
(427,266,l)
);
}
);
width = 580;
}
);
metricLeft = "=A";
metricRight = "=A";
metricWidth = "=A";
}
{
color = 0;
glyphname = A.mid;
kernLeft = A;
kernRight = A;
layers = (
{
layerId = "DE016B7A-D921-4FAF-BA9C-94A7D66B995D";
shapes = (
{
ref = A;
},
{
closed = 1;
nodes = (
(181,104,o),
(166,88,o),
(166,65,cs),
(166,41,o),
(179,26,o),
(203,26,cs),
(227,26,o),
(242,42,o),
(242,67,cs),
(242,90,o),
(229,104,o),
(205,104,cs)
);
},
{
closed = 1;
nodes = (
(334,104,o),
(319,88,o),
(319,65,cs),
(319,41,o),
(333,26,o),
(357,26,cs),
(381,26,o),
(396,42,o),
(396,67,cs),
(396,90,o),
(382,104,o),
(359,104,cs)
);
}
);
width = 573;
}
);
}
{
color = 1;
glyphname = E.front;
kernLeft = H;
kernRight = E;
layers = (
{
anchors = (
{
name = bottom;
pos = (278,0);
},
{
name = ogonek;
pos = (411,17);
},
{
name = top;
pos = (272,640);
}
);
background = {
shapes = (
{
closed = 1;
nodes = (
(96,640,l),
(101,194,l),
(96,0,l),
(164,0,l),
(161,199,l),
(165,640,l)
);
},
{
closed = 1;
nodes = (
(292,56,l),
(143,57,l),
(139,6,l),
(143,0,l),
(446,0,l),
(451,52,l),
(447,59,l)
);
},
{
closed = 1;
nodes = (
(285,356,l),
(145,357,l),
(141,306,l),
(145,300,l),
(279,301,l),
(391,299,l),
(397,352,l),
(392,358,l)
);
},
{
closed = 1;
nodes = (
(143,640,l),
(139,588,l),
(143,582,l),
(294,583,l),
(444,581,l),
(450,633,l),
(446,640,l)
);
}
);
};
layerId = "DE016B7A-D921-4FAF-BA9C-94A7D66B995D";
shapes = (
{
closed = 1;
nodes = (
(144,647,o),
(82,590,o),
(82,505,cs),
(82,447,o),
(120,383,o),
(196,346,c),
(196,342,l),
(105,322,o),
(49,272,o),
(49,197,cs),
(49,90,o),
(115,-7,o),
(283,-7,cs),
(347,-7,o),
(413,8,o),
(446,21,c),
(451,80,l),
(446,85,l),
(409,64,o),
(346,49,o),
(279,49,cs),
(174,49,o),
(112,109,o),
(112,189,cs),
(112,261,o),
(168,298,o),
(329,301,c),
(392,301,l),
(397,307,l),
(395,356,l),
(346,357,ls),
(224,359,o),
(148,416,o),
(148,491,cs),
(148,550,o),
(181,590,o),
(257,590,cs),
(307,590,o),
(350,577,o),
(399,544,c),
(409,544,l),
(419,601,l),
(363,637,o),
(306,647,o),
(246,647,cs)
);
}
);
width = 476;
}
);
}
{
color = 5;
glyphname = I.buzz;
layers = (
{
anchors = (
{
name = bottom;
pos = (138,0);
},
{
name = ogonek;
pos = (178,0);
},
{
name = top;
pos = (98,641);
}
);
layerId = "DE016B7A-D921-4FAF-BA9C-94A7D66B995D";
shapes = (
{
closed = 1;
nodes = (
(97,193,l),
(91,0,l),
(178,0,l),
(174,200,l),
(176,385,ls),
(177,474,o),
(179,557,o),
(162,583,cs),
(132,629,o),
(82,646,o),
(44,646,cs),
(35,646,o),
(21,645,o),
(14,644,c),
(14,561,l),
(24,558,l),
(38,562,o),
(48,563,o),
(56,563,cs),
(72,563,o),
(91,551,o),
(92,514,cs),
(95,378,l)
);
}
);
width = 271;
}
);
}
{
color = 9;
glyphname = J.ZHP;
kernLeft = J;
kernRight = H;
layers = (
{
anchors = (
{
name = top;
pos = (134,640);
}
);
layerId = "DE016B7A-D921-4FAF-BA9C-94A7D66B995D";
shapes = (
{
closed = 1;
nodes = (
(174,212,l),
(179,641,l),
(91,641,l),
(97,204,l),
(96,100,ls),
(94,-139,o),
(193,-200,o),
(405,-200,c),
(413,-200,l),
(428,-185,o),
(439,-148,o),
(448,-130,c),
(446,-120,l),
(241,-132,o),
(175,-69,o),
(175,100,c)
);
}
);
width = 271;
}
);
metricWidth = "=J";
}
{
color = 9;
glyphname = Q.ZHP;
kernLeft = O;
kernRight = O;
layers = (
{
layerId = "DE016B7A-D921-4FAF-BA9C-94A7D66B995D";
shapes = (
{
closed = 1;
nodes = (
(141,648,o),
(37,529,o),
(37,315,cs),
(37,109,o),
(134,-8,o),
(312,-8,cs),
(449,-8,o),
(600,116,o),
(600,330,cs),
(600,536,o),
(502,648,o),
(327,648,c)
);
},
{
closed = 1;
nodes = (
(395,577,o),
(448,548,o),
(479,489,cs),
(488,473,o),
(504,440,o),
(510,408,cs),
(520,356,o),
(523,323,o),
(523,179,cs),
(523,173,o),
(443,63,o),
(318,63,cs),
(189,63,o),
(125,147,o),
(125,322,cs),
(125,495,o),
(188,577,o),
(318,577,cs)
);
},
{
closed = 1;
nodes = (
(600,212,l),
(600,330,l),
(523,140,l),
(522,100,ls),
(516,-139,o),
(619,-200,o),
(831,-200,c),
(839,-200,l),
(854,-185,o),
(865,-148,o),
(874,-130,c),
(872,-120,l),
(667,-132,o),
(601,-69,o),
(601,100,c)
);
}
);
width = 640;
}
);
metricLeft = "=Q";
metricWidth = "=Q";
}
{
color = 5;
glyphname = U.di;
kernLeft = U;
kernRight = U;
layers = (
{
layerId = "DE016B7A-D921-4FAF-BA9C-94A7D66B995D";
shapes = (
{
closed = 1;
nodes = (
(283,401,o),
(267,385,o),
(267,360,cs),
(267,335,o),
(282,320,o),
(307,320,cs),
(331,320,o),
(347,336,o),
(347,362,cs),
(347,386,o),
(333,401,o),
(309,401,cs)
);
},
{
ref = U;
}
);
width = 623;
}
);
}
{
color = 5;
glyphname = U.yu;
kernLeft = U;
kernRight = U;
layers = (
{
layerId = "DE016B7A-D921-4FAF-BA9C-94A7D66B995D";
shapes = (
{
ref = U;
},
{
closed = 1;
nodes = (
(211,414,o),
(196,398,o),
(196,375,cs),
(196,351,o),
(209,336,o),
(233,336,cs),
(257,336,o),
(272,352,o),
(272,377,cs),
(272,400,o),
(259,414,o),
(235,414,cs)
);
},
{
closed = 1;
nodes = (
(364,414,o),
(349,398,o),
(349,375,cs),
(349,351,o),
(363,336,o),
(387,336,cs),
(411,336,o),
(426,352,o),
(426,377,cs),
(426,400,o),
(412,414,o),
(389,414,cs)
);
}
);
width = 623;
}
);
}
{
color = 9;
glyphname = X.ZHP;
kernLeft = X;
kernRight = X;
layers = (
{
anchors = (
{
name = bottom;
pos = (298,0);
},
{
name = top;
pos = (298,641);
}
);
layerId = "DE016B7A-D921-4FAF-BA9C-94A7D66B995D";
shapes = (
{
closed = 1;
nodes = (
(560,19,o),
(543,45,o),
(526,67,c),
(352,334,l),
(554,641,l),
(461,641,l),
(435,590,l),
(300,389,l),
(166,589,l),
(139,641,l),
(35,641,l),
(244,323,l),
(28,0,l),
(119,0,l),
(145,48,l),
(294,267,l),
(438,53,l),
(450,35,o),
(463,18,o),
(475,0,c),
(566,-141,o),
(642,-200,o),
(854,-200,c),
(862,-200,l),
(877,-185,o),
(888,-148,o),
(897,-130,c),
(895,-120,l),
(690,-132,o),
(643,-78,o),
(577,-3,c)
);
}
);
width = 596;
}
);
metricLeft = "=X";
metricWidth = "=X";
}
{
color = 5;
glyphname = Y.yu;
kernLeft = V;
kernRight = V;
layers = (
{
anchors = (
{
name = bottom;
pos = (270,0);
},
{
name = ogonek;
pos = (409,32);
},
{
name = top;
pos = (272,640);
}
);
layerId = "DE016B7A-D921-4FAF-BA9C-94A7D66B995D";
shapes = (
{
closed = 1;
nodes = (
(237,271,l),
(239,189,l),
(236,0,l),
(302,0,l),
(300,189,l),
(302,271,l)
);
},
{
closed = 1;
nodes = (
(438,640,l),
(440,507,ls),
(442,388,o),
(381,327,o),
(269,327,cs),
(156,327,o),
(95,391,o),
(98,515,cs),
(101,640,l),
(35,640,l),
(35,507,l),
(33,354,o),
(115,268,o),
(264,268,cs),
(418,268,o),
(506,358,o),
(503,514,c),
(505,640,l)
);
},
{
alignment = -1;
pos = (74,-94);
ref = dieresiscomb;
}
);
width = 540;
}
);
}
{
color = 5;
glyphname = a.back;
layers = (
{
anchors = (
{
name = bottom;
pos = (267,0);
},
{
name = ogonek;
pos = (451,10);
},
{
name = top;
pos = (253,459);
}
);
layerId = "DE016B7A-D921-4FAF-BA9C-94A7D66B995D";
shapes = (
{
closed = 1;
nodes = (
(70,119,l),
(70,42,o),
(123,-7,o),
(215,-7,c),
(252,8,o),
(296,34,o),
(329,68,c),
(336,68,l),
(352,25,o),
(363,8,o),
(377,-10,c),
(451,10,l),
(438,25,o),
(427,39,o),
(418,55,cs),
(409,71,o),
(403,93,o),
(403,121,cs),
(403,157,o),
(404,310,o),
(404,346,cs),
(405,422,o),
(348,467,o),
(262,467,cs),
(126,467,o),
(70,343,o),
(70,237,cs)
);
},
{
closed = 1;
nodes = (
(146,379,o),
(194,406,o),
(249,406,cs),
(297,406,o),
(326,379,o),
(326,327,c),
(328,132,l),
(292,89,o),
(250,63,o),
(211,63,cs),
(172,63,o),
(146,88,o),
(146,131,c),
(146,237,ls)
);
}
);
width = 493;
}
);
metricLeft = "=u";
metricRight = "=a";
}
{
color = 0;
glyphname = a.mid;
kernLeft = o;
kernRight = u;
layers = (
{
anchors = (
{
name = ogonek;
pos = (419,13);
},
{
name = top;
pos = (220,457);
}
);
layerId = "DE016B7A-D921-4FAF-BA9C-94A7D66B995D";
shapes = (
{
closed = 1;
nodes = (
(173,464,o),
(115,453,o),
(61,434,c),
(70,386,l),
(78,382,l),
(129,404,o),
(174,415,o),
(218,415,cs),
(271,415,o),
(305,386,o),
(305,331,c),
(303,243,l),
(136,195,ls),
(79,179,o),
(45,129,o),
(45,81,cs),
(45,45,o),
(95,-6,o),
(181,-6,c),
(220,5,o),
(270,32,o),
(305,69,c),
(311,69,l),
(312,37,o),
(318,14,o),
(325,-5,c),
(387,5,l),
(377,21,o),
(363,62,o),
(363,93,cs),
(363,126,o),
(363,313,o),
(363,345,cs),
(363,420,o),
(311,464,o),
(228,464,cs)
);
},
{
closed = 1;
nodes = (
(303,125,l),
(266,78,o),
(218,49,o),
(178,49,cs),
(134,49,o),
(105,72,o),
(105,99,cs),
(105,120,o),
(120,144,o),
(149,153,cs),
(303,199,l)
);
},
{
closed = 1;
nodes = (
(58,319,o),
(47,300,o),
(51,278,cs),
(56,254,o),
(72,242,o),
(96,247,cs),
(119,252,o),
(130,271,o),
(125,295,cs),
(120,318,o),
(105,329,o),
(81,324,cs)
);
},
{
closed = 1;
nodes = (
(178,348,o),
(167,330,o),
(172,307,cs),
(177,284,o),
(193,272,o),
(217,277,cs),
(240,282,o),
(252,301,o),
(247,325,cs),
(242,348,o),
(225,358,o),
(203,354,cs)
);
}
);
width = 448;
}
);
metricLeft = "=o";
metricRight = "=a";
}
{
glyphname = acutecomb.case;
kernLeft = asterisk;
kernRight = asterisk;
layers = (
{
anchors = (
{
name = _top;
pos = (174,457);
},
{
name = top;
pos = (168,583);
}
);
layerId = "DE016B7A-D921-4FAF-BA9C-94A7D66B995D";
shapes = (
{
closed = 1;
nodes = (
(229,655,o),
(129,584,o),
(68,553,c),
(83,519,l),
(91,515,l),
(155,543,o),
(256,610,o),
(322,643,c),
(325,650,l),
(304,693,l),
(296,695,l)
);
}
);
width = 389;
}
);
}
{
color = 1;
glyphname = b.ZHP;
kernLeft = h;
kernRight = o;
layers = (
{
anchors = (
{
name = bottom;
pos = (266,0);
},
{
name = center;
pos = (263,230);
},
{
name = top;
pos = (261,459);
}
);
background = {
shapes = (
{
ref = b;
}
);
};
layerId = "DE016B7A-D921-4FAF-BA9C-94A7D66B995D";
shapes = (
{
closed = 1;
nodes = (
(75,695,l),
(80,636,l),
(85,164,l),
(158,170,l),
(164,702,l)
);
},
{
closed = 1;
nodes = (
(245,450,o),
(214,433,o),
(168,396,c),
(152,396,l),
(152,316,l),
(201,370,o),
(241,394,o),
(284,394,cs),
(350,394,o),
(388,337,o),
(390,234,cs),
(392,119,o),
(339,53,o),
(277,53,cs),
(227,53,o),
(123,85,o),
(65,81,c),
(61,-22,l),
(111,12,o),
(220,-8,o),
(266,-8,cs),
(384,-8,o),
(470,83,o),
(470,243,cs),
(470,385,o),
(407,464,o),
(292,464,c)
);
}
);
width = 515;
}
);
metricRight = "=p";
}
{
glyphname = caroncomb.case;
kernLeft = asterisk;
kernRight = asterisk;
layers = (
{
anchors = (
{
name = _top;
pos = (194,457);
},
{
name = top;
pos = (194,567);
}
);
layerId = "DE016B7A-D921-4FAF-BA9C-94A7D66B995D";
shapes = (
{
closed = 1;
nodes = (
(336,699,l),
(301,667,o),
(227,600,o),
(194,572,c),
(161,600,o),
(88,667,o),
(54,699,c),
(45,699,l),
(32,660,l),
(71,623,o),
(149,548,o),
(185,513,c),
(205,513,l),
(240,548,o),
(318,623,o),
(358,660,c),
(344,699,l)
);
}
);
width = 389;
}
);
}
{
glyphname = circumflexcomb_acutecomb;
kernLeft = asterisk;
kernRight = asterisk;
layers = (
{
anchors = (
{
name = _top;
pos = (195,457);
},
{
name = top;
pos = (215,753);
}
);
layerId = "DE016B7A-D921-4FAF-BA9C-94A7D66B995D";
shapes = (
{
closed = 1;
nodes = (
(74,507,l),
(109,529,o),
(162,570,o),
(195,594,c),
(228,570,o),
(281,529,o),
(316,507,c),
(324,507,l),
(338,541,l),
(298,569,o),
(241,618,o),
(204,649,c),
(184,649,l),
(149,618,o),
(91,569,o),
(52,541,c),
(66,507,l)
);
},
{
closed = 1;
nodes = (
(234,755,o),
(129,715,o),
(63,686,c),
(72,648,l),
(80,644,l),
(147,670,o),
(252,706,o),
(322,736,c),
(327,743,l),
(314,789,l),
(307,793,l)
);
}
);
width = 389;
}
);
}
{
glyphname = circumflexcomb_gravecomb;
kernLeft = asterisk;
kernRight = asterisk;
layers = (
{
anchors = (
{
name = _top;
pos = (195,457);
},
{
name = top;
pos = (199,753);
}
);
layerId = "DE016B7A-D921-4FAF-BA9C-94A7D66B995D";
shapes = (
{
closed = 1;
nodes = (
(74,507,l),
(109,529,o),
(162,570,o),
(195,594,c),
(228,570,o),
(281,529,o),
(316,507,c),
(324,507,l),
(338,541,l),
(298,569,o),
(241,618,o),
(204,649,c),
(184,649,l),
(149,618,o),
(91,569,o),
(52,541,c),
(66,507,l)
);
},
{
closed = 1;
nodes = (
(316,648,l),
(325,686,l),
(259,715,o),
(155,755,o),
(82,793,c),
(75,789,l),
(61,743,l),
(66,736,l),
(136,706,o),
(241,670,o),
(309,644,c)
);
}
);
width = 389;
}
);
}
{
color = 1;
glyphname = d.ZHP;
kernLeft = o;
kernRight = l;
layers = (
{
anchors = (
{
name = bottom;
pos = (265,0);
},
{
name = center;
pos = (245,236);
},
{
name = top;
pos = (201,459);
},
{
name = topright;
pos = (503,459);
}
);
background = {
shapes = (
{
ref = d;
}
);
};
layerId = "DE016B7A-D921-4FAF-BA9C-94A7D66B995D";
shapes = (
{
closed = 1;
nodes = (
(354,382,l),
(356,255,l),
(355,170,l),
(431,164,l),
(431,262,l),
(441,702,l),
(356,695,l),
(354,458,l)
);
},
{
closed = 1;
nodes = (
(311,-8,o),
(405,12,o),
(455,-22,c),
(451,81,l),
(393,85,o),
(304,53,o),
(254,53,cs),
(182,53,o),
(127,127,o),
(125,230,cs),
(123,345,o),
(171,407,o),
(258,407,cs),
(308,407,o),
(359,386,o),
(417,340,c),
(421,441,l),
(371,457,o),
(315,467,o),
(269,467,cs),
(130,467,o),
(45,384,o),
(45,224,cs),
(45,80,o),
(130,-8,o),
(265,-8,cs)
);
}
);
width = 512;
}
);
metricLeft = "=o";
}
{
glyphname = dieresiscomb_acutecomb.case;
kernLeft = asterisk;
kernRight = asterisk;
layers = (
{
anchors = (
{
name = _top;
pos = (195,457);
},
{
name = top;
pos = (196,780);
}
);
layerId = "DE016B7A-D921-4FAF-BA9C-94A7D66B995D";
shapes = (
{
closed = 1;
nodes = (
(249,611,o),
(234,596,o),
(234,574,cs),
(234,551,o),
(248,537,o),
(270,537,cs),
(293,537,o),
(308,552,o),
(308,575,cs),
(308,598,o),
(294,611,o),
(272,611,cs)
);
},
{
closed = 1;
nodes = (
(96,611,o),
(80,596,o),
(80,574,cs),
(80,551,o),
(94,537,o),
(117,537,cs),
(140,537,o),
(154,552,o),
(154,575,cs),
(154,598,o),
(140,611,o),
(118,611,cs)
);
},
{
closed = 1;
nodes = (
(234,760,o),
(129,719,o),
(63,690,c),
(73,653,l),
(81,649,l),
(147,674,o),
(252,710,o),
(323,740,c),
(327,748,l),
(315,794,l),
(307,797,l)
);
}
);
width = 389;
}
);
}
{
glyphname = dieresiscomb_caroncomb.case;
kernLeft = asterisk;
kernRight = asterisk;
layers = (
{
anchors = (
{
name = _top;
pos = (195,457);
},
{
name = top;
pos = (195,764);
}
);
layerId = "DE016B7A-D921-4FAF-BA9C-94A7D66B995D";
shapes = (
{
closed = 1;
nodes = (
(249,611,o),
(234,596,o),
(234,574,cs),
(234,551,o),
(248,537,o),
(270,537,cs),
(293,537,o),
(308,552,o),
(308,575,cs),
(308,598,o),
(294,611,o),
(272,611,cs)
);
},
{
closed = 1;
nodes = (
(96,611,o),
(80,596,o),
(80,574,cs),
(80,551,o),
(94,537,o),
(117,537,cs),
(140,537,o),
(154,552,o),
(154,575,cs),
(154,598,o),
(140,611,o),
(118,611,cs)
);
},
{
closed = 1;
nodes = (
(316,784,l),
(281,751,o),
(227,709,o),
(194,687,c),
(161,709,o),
(108,751,o),
(74,784,c),
(65,784,l),
(52,749,l),
(91,711,o),
(149,661,o),
(185,632,c),
(205,632,l),
(240,661,o),
(298,711,o),
(338,749,c),
(324,784,l)
);
}
);
width = 389;
}
);
}
{
glyphname = dieresiscomb_caroncomb;
kernLeft = asterisk;
kernRight = asterisk;
layers = (
{
anchors = (
{
name = _top;
pos = (195,457);
},
{
name = top;
pos = (195,764);
}
);
layerId = "DE016B7A-D921-4FAF-BA9C-94A7D66B995D";
shapes = (
{
closed = 1;
nodes = (
(249,601,o),
(234,586,o),
(234,564,cs),
(234,541,o),
(248,527,o),
(270,527,cs),
(293,527,o),
(308,542,o),
(308,565,cs),
(308,588,o),
(294,601,o),
(272,601,cs)
);
},
{
closed = 1;
nodes = (
(96,601,o),
(80,586,o),
(80,564,cs),
(80,541,o),
(94,527,o),
(117,527,cs),
(140,527,o),
(154,542,o),
(154,565,cs),
(154,588,o),
(140,601,o),
(118,601,cs)
);
},
{
closed = 1;
nodes = (
(316,784,l),
(281,761,o),
(227,709,o),
(194,687,c),
(161,709,o),
(108,761,o),
(74,784,c),
(65,784,l),
(52,749,l),
(91,721,o),
(149,661,o),
(185,632,c),
(205,632,l),
(240,661,o),
(298,721,o),
(338,749,c),
(324,784,l)
);
}
);
width = 389;
}
);
}
{
glyphname = dieresiscomb_gravecomb.case;
kernLeft = asterisk;
kernRight = asterisk;
layers = (
{
anchors = (
{
name = _top;
pos = (195,457);
},
{
name = top;
pos = (196,780);
}
);
layerId = "DE016B7A-D921-4FAF-BA9C-94A7D66B995D";
shapes = (
{
closed = 1;
nodes = (
(75,797,l),
(61,751,l),
(66,743,l),
(136,713,o),
(241,677,o),
(309,651,c),
(316,656,l),
(325,693,l),
(259,722,o),
(155,763,o),
(82,800,c)
);
},
{
closed = 1;
nodes = (
(249,611,o),
(234,596,o),
(234,574,cs),
(234,551,o),
(248,537,o),
(270,537,cs),
(293,537,o),
(308,552,o),
(308,575,cs),
(308,598,o),
(294,611,o),
(272,611,cs)
);
},
{
closed = 1;
nodes = (
(96,611,o),
(80,596,o),
(80,574,cs),
(80,551,o),
(94,537,o),
(117,537,cs),
(140,537,o),
(154,552,o),
(154,575,cs),
(154,598,o),
(140,611,o),
(118,611,cs)
);
}
);
width = 389;
}
);
}
{
color = 5;
glyphname = e.di;
kernLeft = o;
kernRight = e;
layers = (
{
anchors = (
{
name = bottom;
pos = (254,0);
},
{
name = ogonek;
pos = (398,25);
},
{
name = top;
pos = (243,459);
},
{
name = topright;
pos = (441,459);
}
);
layerId = "DE016B7A-D921-4FAF-BA9C-94A7D66B995D";
shapes = (
{
closed = 1;
nodes = (
(305,-8,o),
(352,3,o),
(398,25,c),
(411,98,l),
(402,104,l),
(363,76,o),
(315,60,o),
(268,60,cs),
(175,60,o),
(124,120,o),
(124,231,cs),
(124,340,o),
(173,407,o),
(254,407,cs),
(313,407,o),
(345,371,o),
(345,335,c),
(343,321,l),
(111,317,l),
(109,260,l),
(409,261,l),
(419,271,l),
(441,382,o),
(379,467,o),
(254,467,cs),
(126,467,o),
(45,374,o),
(45,227,cs),
(45,81,o),
(125,-8,o),
(258,-8,cs)
);
},
{
pos = (195,139);
ref = period;
scale = (0.64,0.64);
}
);
width = 468;
}
);
metricLeft = "=e";
metricRight = "=e";
metricWidth = "=e";
}
{
color = 5;
glyphname = e.front;
layers = (
{
anchors = (
{
name = bottom;
pos = (250,0);
},
{
name = ogonek;
pos = (394,25);
},
{
name = top;
pos = (239,459);
}
);
layerId = "DE016B7A-D921-4FAF-BA9C-94A7D66B995D";
shapes = (
{
closed = 1;
nodes = (
(211,60,o),
(158,71,o),
(136,113,cs),
(130,124,o),
(127,138,o),
(127,152,cs),
(127,179,o),
(139,211,o),
(164,240,c),
(164,240,o),
(194,230,o),
(233,230,cs),
(271,230,o),
(322,237,o),
(358,261,cs),
(387,280,o),
(399,315,o),
(399,347,cs),
(399,414,o),
(354,467,o),
(245,467,cs),
(192,467,o),
(141,456,o),
(108,426,cs),
(84,405,o),
(67,380,o),
(62,349,cs),
(57,320,o),
(84,280,o),
(121,252,c),
(120,249,l),
(91,226,o),
(56,184,o),
(56,140,cs),
(56,127,o),
(58,114,o),
(63,99,cs),
(84,34,o),
(153,-8,o),
(260,-8,cs),
(299,-8,o),
(355,3,o),
(394,25,c),
(407,98,l),
(398,104,l),
(356,75,o),
(308,60,o),
(266,60,cs)
);
},
{
closed = 1;
nodes = (
(167,400,o),
(202,416,o),
(245,412,cs),
(288,408,o),
(326,389,o),
(334,349,cs),
(344,301,o),
(291,284,o),
(240,284,cs),
(189,284,o),
(156,296,o),
(141,320,cs),
(133,333,o),
(133,359,o),
(147,376,cs)
);
}
);
width = 462;
}
);
}
{
glyphname = eight.sc;
layers = (
{
layerId = "DE016B7A-D921-4FAF-BA9C-94A7D66B995D";
shapes = (
{
closed = 1;
nodes = (
(178,504,o),
(87,452,o),
(87,374,cs),
(87,302,o),
(147,271,o),
(182,253,c),
(182,250,l),
(138,233,o),
(74,192,o),
(74,129,cs),
(74,38,o),
(158,-8,o),
(237,-8,cs),
(319,-8,o),
(413,40,o),
(413,143,cs),
(413,208,o),
(347,244,o),
(308,262,c),
(308,266,l),
(346,286,o),
(402,318,o),
(402,386,cs),
(402,455,o),
(321,504,o),
(253,504,cs)
);
},
{
closed = 1;
nodes = (
(276,211,o),
(341,188,o),
(341,137,cs),
(341,72,o),
(287,53,o),
(243,53,cs),
(201,53,o),
(146,70,o),
(146,138,cs),
(146,189,o),
(206,215,o),
(238,226,c)
);
},
{
closed = 1;
nodes = (
(281,443,o),
(330,422,o),
(330,378,cs),
(330,320,o),
(279,302,o),
(252,288,c),
(219,302,o),
(159,318,o),
(159,376,cs),
(159,421,o),
(212,443,o),
(248,443,cs)
);
}
);
width = 487;
}
);
}
{
glyphname = five.sc;
layers = (
{
layerId = "DE016B7A-D921-4FAF-BA9C-94A7D66B995D";
shapes = (
{
closed = 1;
nodes = (
(311,499,l),
(161,499,l),
(103,501,l),
(90,489,l),
(86,257,l),
(93,249,l),
(195,249,ls),
(283,249,o),
(336,227,o),
(336,149,cs),
(336,92,o),
(276,59,o),
(178,59,cs),
(148,59,o),
(115,63,o),
(79,71,c),
(72,64,l),
(79,3,l),
(111,-3,o),
(149,-7,o),
(178,-7,cs),
(323,-7,o),
(416,56,o),
(416,156,cs),
(416,255,o),
(329,312,o),
(211,312,cs),
(152,312,l),
(157,432,l),
(321,432,l),
(390,426,l),
(397,432,l),
(405,497,l),
(399,503,l)
);
}
);
width = 487;
}
);
}
{
glyphname = four.sc;
layers = (
{
layerId = "DE016B7A-D921-4FAF-BA9C-94A7D66B995D";
shapes = (
{
closed = 1;
nodes = (
(294,287,l),
(294,191,l),
(291,1,l),
(296,-5,l),
(362,0,l),
(367,7,l),
(362,178,l),
(363,287,l)
);
},
{
closed = 1;
nodes = (
(309,474,l),
(242,512,l),
(237,512,l),
(25,171,l),
(25,116,l),
(31,108,l),
(97,110,l),
(342,110,l),
(454,108,l),
(459,168,l),
(453,176,l),
(100,176,l),
(309,465,l)
);
}
);
width = 487;
}
);
}
{
color = 1;
glyphname = g.ZHP;
kernLeft = g;
kernRight = g;
layers = (
{
anchors = (
{
name = bottom;
pos = (237,-195);
},
{
name = top;
pos = (237,457);
}
);
background = {
shapes = (
{
ref = g;
},
{
pos = (0,100);
ref = k;
}
);
};
layerId = "DE016B7A-D921-4FAF-BA9C-94A7D66B995D";
shapes = (
{
closed = 1;
nodes = (
(149,134,o),
(155,141,o),
(176,157,c),
(131,182,l),
(131,171,l),
(105,154,o),
(84,133,o),
(69,110,c),
(68,-30,o),
(381,-11,o),
(381,-86,cs),
(381,-111,o),
(322,-141,o),
(237,-141,cs),
(157,-141,o),
(118,-115,o),
(118,-69,cs),
(118,-38,o),
(160,-11,o),
(209,19,c),
(143,35,l),
(143,24,l),
(108,2,o),
(64,-23,o),
(43,-60,c),
(43,-146,o),
(105,-200,o),
(227,-200,cs),
(358,-200,o),
(456,-136,o),
(456,-70,cs),
(456,48,o),
(149,47,o),
(149,120,cs)
);
},
{
closed = 1;
nodes = (
(391,459,o),
(354,436,o),
(312,401,cs),
(277,371,o),
(251,344,o),
(216,310,c),
(216,303,l),
(362,95,l),
(372,91,l),
(398,95,o),
(424,98,o),
(449,105,c),
(449,115,l),
(295,306,l),
(318,329,o),
(337,347,o),
(359,363,cs),
(391,387,o),
(409,400,o),
(450,410,c),
(450,468,l),
(442,474,l)
);
},
{
closed = 1;
nodes = (
(380,416,l),
(350,447,o),
(304,464,o),
(245,464,cs),
(137,464,o),
(65,405,o),
(65,303,cs),
(65,209,o),
(126,150,o),
(236,150,cs),
(281,150,o),
(319,160,o),
(349,178,c),
(311,229,l),
(293,215,o),
(269,207,o),
(240,207,cs),
(176,207,o),
(141,245,o),
(141,307,cs),
(141,372,o),
(179,407,o),
(244,407,cs),
(280,407,o),
(306,397,o),
(323,377,c)
);
}
);
width = 494;
}
);
metricLeft = "=g";
metricWidth = "=g";
}
{
glyphname = germandbls.sc;
kernLeft = Germandbls;
kernRight = Germandbls;
layers = (
{
layerId = "DE016B7A-D921-4FAF-BA9C-94A7D66B995D";
shapes = (
{
closed = 1;
nodes = (
(152,504,o),
(74,433,o),
(74,326,cs),
(75,147,l),
(72,0,l),
(151.994,0,l),
(149,157,l),
(151,326,ls),
(151,398,o),
(198,439,o),
(279,439,cs),
(314,439,o),
(346,430,o),
(383,410,c),
(258,262,l),
(261,248,l),
(378,217,o),
(438,188,o),
(438,135,cs),
(438,92,o),
(403,59,o),
(350,59,cs),
(315,59,o),
(267,78,o),
(229,112,c),
(221,108,l),
(213,28,l),
(254,6,o),
(308,-6,o),
(355,-6,cs),
(448,-6,o),
(524,43,o),
(524,134,cs),
(524,211,o),
(471,252,o),
(359,291,c),
(487,442,l),
(483,455,l),
(409,488,o),
(352,504,o),
(286,504,cs)
);
}
);
width = 561;
}
);
}
{
glyphname = gravecomb.case;
kernLeft = asterisk;
kernRight = asterisk;
layers = (
{
anchors = (
{
name = _top;
pos = (195,457);
},
{
name = top;
pos = (195,691);
}
);
layerId = "DE016B7A-D921-4FAF-BA9C-94A7D66B995D";
shapes = (
{
closed = 1;
nodes = (
(85,693,l),
(64,650,l),
(67,643,l),
(133,610,o),
(234,543,o),
(298,515,c),
(306,519,l),
(322,553,l),
(260,584,o),
(160,655,o),
(93,695,c)
);
}
);
width = 389;
}
);
}
{
glyphname = greater.001;
layers = (
{
layerId = "DE016B7A-D921-4FAF-BA9C-94A7D66B995D";
shapes = (
{
closed = 1;
nodes = (
(38,415,l),
(42,407,l),
(379,269,l),
(379,263,l),
(40,133,l),
(53,84,l),
(62,78,l),
(444,229,l),
(444,299,l),
(437,308,l),
(57,464,l)
);
}
);
width = 480;
}
);
}
{
color = 3;
glyphname = i.buzz;
kernLeft = l;
kernRight = l;
layers = (
{
anchors = (
{
name = bottom;
pos = (152,0);
},
{
name = top;
pos = (110,462);
}
);
layerId = "DE016B7A-D921-4FAF-BA9C-94A7D66B995D";
shapes = (
{
closed = 1;
nodes = (
(180,420,o),
(152,458,o),
(60,458,cs),
(51,458,o),
(41,457,o),
(34,456,c),
(34,391,l),
(43,388,l),
(56,392,o),
(69,393,o),
(77,393,cs),
(111,393,o),
(121,337,o),
(122,276,cs),
(123,200,l),
(118,0,l),
(185,0,l),
(180,195,l),
(180,266,ls)
);
}
);
width = 259;
}
);
metricRight = "=i";
}
{
color = 9;
glyphname = j.ZHP;
kernLeft = j;
kernRight = j;
layers = (
{
anchors = (
{
name = top;
pos = (121,459);
}
);
layerId = "DE016B7A-D921-4FAF-BA9C-94A7D66B995D";
shapes = (
{
closed = 1;
nodes = (
(165,288,l),
(169,459,l),
(166,461,l),
(83,457,l),
(85,401,l),
(87,282,l),
(86,100,ls),
(85,-139,o),
(183,-200,o),
(395,-200,c),
(403,-200,l),
(418,-185,o),
(429,-148,o),
(438,-130,c),
(436,-120,l),
(231,-132,o),
(165,-69,o),
(165,100,cs)
);
}
);
width = 242;
}
);
metricWidth = "=j";
}
{
glyphname = nine.sc;
layers = (
{
layerId = "DE016B7A-D921-4FAF-BA9C-94A7D66B995D";
shapes = (
{
closed = 1;
nodes = (
(171,-24,l),
(358,11,o),
(435,155,o),
(435,285,c),
(435,413,o),
(364,504,o),
(248,504,cs),
(123,504,o),
(51,434,o),
(51,345,c),
(51,265,o),
(90,189,o),
(221,189,cs),
(270,189,o),
(312,215,o),
(348,241,c),
(364,223,l),
(377,320,l),
(337,282,o),
(292,251,o),
(245,251,cs),
(146,251,o),
(127,301,o),
(127,358,c),
(127,415,o),
(171,446,o),
(241,446,cs),
(313,446,o),
(358,381,o),
(358,284,c),
(358,161,o),
(306,55,o),
(99,23,c),
(99,14,l),
(166,-24,l)
);
}
);
width = 487;
}
);
}
{
glyphname = one.sc;
layers = (
{
layerId = "DE016B7A-D921-4FAF-BA9C-94A7D66B995D";
shapes = (
{
closed = 1;
nodes = (
(106,464,l),
(106,390,l),
(114,385,l),
(215,412,l),
(216,253,l),
(211,0,l),
(297,0,l),
(292,263,l),
(298,500,l),
(285,510,l)
);
}
);
width = 487;
}
);
}
{
color = 7;
glyphname = q.ZHP;
kernLeft = o;
layers = (
{
anchors = (
{
name = bottom;
pos = (198,0);
},
{
name = top;
pos = (251,459);
}
);
layerId = "DE016B7A-D921-4FAF-BA9C-94A7D66B995D";
shapes = (
{
closed = 1;
nodes = (
(289,406,o),
(319,397,o),
(354,378,c),
(357,193,l),
(356,125,l),
(312,80,o),
(278,67,o),
(244,67,cs),
(171,67,o),
(127,128,o),
(125,233,cs),
(123,351,o),
(177,406,o),
(257,406,cs)
);
},
{
closed = 1;
nodes = (
(353,-86,o),
(450,-200,o),
(662,-200,c),
(670,-200,l),
(685,-185,o),
(696,-148,o),
(705,-130,c),
(703,-120,l),
(498,-132,o),
(432,-16,o),
(432,53,c),
(430,201,l),
(437,432,l),
(429,437,l),
(387,449,l),
(348,460,o),
(307,467,o),
(267,467,cs),
(129,467,o),
(45,383,o),
(45,226,cs),
(45,82,o),
(115,-5,o),
(248,-5,c),
(289,12,o),
(313,26,o),
(347,53,c),
(353,53,l)
);
}
);
width = 509;
}
);
metricLeft = "=o";
metricWidth = "=q";
}
{
glyphname = schwa.sc;
kernLeft = o.sc;
kernRight = o.sc;
layers = (
{
anchors = (
{
name = bottom;
pos = (201,357);
},
{
name = ogonek;
pos = (73,349);
},
{
name = top;
pos = (210,0);
}
);
layerId = "DE016B7A-D921-4FAF-BA9C-94A7D66B995D";
shapes = (
{
closed = 1;
nodes = (
(199,504,o),
(144,492,o),
(92,468,c),
(79,399,l),
(89,392,l),
(135,420,o),
(193,436,o),
(247,436,cs),
(358,436,o),
(417,370,o),
(417,248,cs),
(417,128,o),
(357,56,o),
(260,56,cs),
(185,56,o),
(132,99,o),
(132,171,c),
(134,187,l),
(432,190,l),
(434,247,l),
(70,245,l),
(57,232,l),
(54,215,o),
(52,197,o),
(52,180,cs),
(52,65,o),
(138,-6,o),
(260,-6,cs),
(406,-6,o),
(498,94,o),
(498,252,cs),
(498,410,o),
(408,504,o),
(256,504,cs)
);
}
);
userData = {
RMXScaler = {
adjustSpace = 14;
height = 78;
width = 83;
};
};
width = 541;
}
);
metricRight = "=o.sc";
userData = {
RMXScaler = {
source = Schwa;
};
};
}
{
glyphname = seven.sc;
layers = (
{
layerId = "DE016B7A-D921-4FAF-BA9C-94A7D66B995D";
shapes = (
{
closed = 1;
nodes = (
(88,432,l),
(94,423,l),
(174,428,l),
(327,428,l),
(117,16,l),
(122,3,l),
(191,-17,l),
(243,111,l),
(410,438,l),
(409,500,l),
(363,499,l),
(190,499,l),
(94,501,l)
);
}
);
width = 487;
}
);
}
{
glyphname = six.sc;
layers = (
{
layerId = "DE016B7A-D921-4FAF-BA9C-94A7D66B995D";
shapes = (
{
closed = 1;
nodes = (
(316,520,l),
(129,485,o),
(52,341,o),
(52,211,c),
(52,83,o),
(123,-8,o),
(239,-8,cs),
(364,-8,o),
(436,62,o),
(436,151,c),
(436,231,o),
(397,307,o),
(266,307,cs),
(217,307,o),
(175,281,o),
(139,255,c),
(123,273,l),
(110,176,l),
(150,214,o),
(195,245,o),
(242,245,cs),
(341,245,o),
(360,195,o),
(360,138,c),
(360,81,o),
(316,50,o),
(246,50,cs),
(174,50,o),
(129,115,o),
(129,212,c),
(129,335,o),
(181,441,o),
(388,473,c),
(388,482,l),
(321,520,l)
);
}
);
width = 487;
}
);
}
{
glyphname = thorn.sc;
kernLeft = H;
kernRight = Thorn;
layers = (
{
layerId = "DE016B7A-D921-4FAF-BA9C-94A7D66B995D";
shapes = (
{
closed = 1;
nodes = (
(89,417,l),
(133,353,l),
(243,355,l),
(312,352,o),
(347,324,o),
(347,260,cs),
(347,196,o),
(313,162,o),
(251,150,c),
(118,154,l),
(118,87,l),
(227,88,l),
(359,88,o),
(432,153,o),
(432,267,cs),
(432,365,o),
(373,418,o),
(266,418,c)
);
},
{
closed = 1;
nodes = (
(88,499,l),
(91,150,l),
(88,0,l),
(169,0,l),
(166,157,l),
(170,499,l)
);
}
);
width = 474;
}
);
}
{
glyphname = three.sc;
layers = (
{
layerId = "DE016B7A-D921-4FAF-BA9C-94A7D66B995D";
shapes = (
{
closed = 1;
nodes = (
(177,504,o),
(123,484,o),
(69,442,c),
(82,375,l),
(91,375,l),
(136,413,o),
(175,434,o),
(220,434,cs),
(273,434,o),
(309,405,o),
(309,378,cs),
(309,328,o),
(251,283,o),
(185,282,cs),
(140,281,l),
(138,222,l),
(143,216,l),
(205,216,l),
(300,213,o),
(336,179,o),
(336,133,cs),
(336,94,o),
(275,60,o),
(185,60,cs),
(149,60,o),
(113,67,o),
(78,82,c),
(72,76,l),
(77,3,l),
(108,-2,o),
(147,-6,o),
(180,-6,cs),
(341,-6,o),
(417,51,o),
(417,144,cs),
(417,196,o),
(373,239,o),
(291,258,c),
(291,262,l),
(363,298,o),
(395,338,o),
(395,396,cs),
(395,452,o),
(321,504,o),
(236,504,cs)
);
}
);
width = 487;
}
);
}
{
glyphname = two.sc;
layers = (
{
layerId = "DE016B7A-D921-4FAF-BA9C-94A7D66B995D";
shapes = (
{
closed = 1;
nodes = (
(175,504,o),
(109,470,o),
(55,415,c),
(69,349,l),
(79,349,l),
(122,401,o),
(175,431,o),
(225,431,cs),
(289,431,o),
(318,397,o),
(318,355,cs),
(318,284,o),
(225,207,o),
(161,152,cs),
(49,56,l),
(49,2,l),
(54,-2,l),
(94,0,l),
(336,0,l),
(446,-4,l),
(456,64,l),
(451,72,l),
(359,68,l),
(168,68,l),
(166,72,l),
(232,130,ls),
(313,202,o),
(401,290,o),
(401,374,cs),
(401,453,o),
(339,504,o),
(244,504,cs)
);
}
);
width = 487;
}
);
}
{
color = 5;
glyphname = u.yu;
layers = (
{
layerId = "DE016B7A-D921-4FAF-BA9C-94A7D66B995D";
shapes = (
{
ref = u;
},
{
closed = 1;
nodes = (
(287,369,o),
(271,383,o),
(248,383,cs),
(225,383,o),
(211,370,o),
(211,347,cs),
(211,325,o),
(227,310,o),
(251,310,cs),
(272,310,o),
(287,323,o),
(287,344,cs)
);
},
{
closed = 1;
nodes = (
(287,241,o),
(271,255,o),
(248,255,cs),
(225,255,o),
(211,243,o),
(211,220,cs),
(211,197,o),
(227,183,o),
(251,183,cs),
(272,183,o),
(287,196,o),
(287,217,cs)
);
}
);
width = 511;
}
);
}
{
color = 9;
glyphname = x.ZHP;
kernLeft = x;
kernRight = x;
layers = (
{
layerId = "DE016B7A-D921-4FAF-BA9C-94A7D66B995D";
shapes = (
{
closed = 1;
nodes = (
(405,28,l),
(269,234,l),
(410,459,l),
(332,459,l),
(309,417,l),
(225,282,l),
(133,417,l),
(114,462,l),
(23,456,l),
(168,233,l),
(23,0,l),
(101,0,l),
(121,40,l),
(214,185,l),
(379,-61,ls),
(435,-145,o),
(543,-200,o),
(673,-200,c),
(681,-200,l),
(696,-185,o),
(707,-148,o),
(716,-130,c),
(714,-120,l),
(591,-127,o),
(503,-106,o),
(441,-21,cs)
);
}
);
width = 438;
}
);
metricLeft = "=x";
metricWidth = "=x";
}
{
glyphname = x.sc;
kernLeft = X;
kernRight = X;
layers = (
{
layerId = "DE016B7A-D921-4FAF-BA9C-94A7D66B995D";
shapes = (
{
closed = 1;
nodes = (
(389,499,l),
(368,457,l),
(262,311,l),
(157,455,l),
(135,499,l),
(36,499,l),
(209,250,l),
(32,0,l),
(116,0,l),
(138,40,l),
(256,198,l),
(368,44,l),
(391,0,l),
(488,0,l),
(310,261,l),
(476,499,l)
);
}
);
width = 522;
}
);
}
{
color = 5;
glyphname = y.yu;
kernLeft = u;
kernRight = u;
layers = (
{
anchors = (
{
name = top;
pos = (250,459);
}
);
layerId = "DE016B7A-D921-4FAF-BA9C-94A7D66B995D";
shapes = (
{
closed = 1;
nodes = (
(417,63,o),
(415,89,o),
(415,181,c),
(421,461,l),
(340,453,l),
(340,114,l),
(348,8,ls),
(353,-55,o),
(339,-127,o),
(289,-132,cs),
(227,-138,o),
(184,-120,o),
(134,-94,c),
(123,-97,l),
(105,-165,l),
(165,-196,o),
(230,-200,o),
(266,-200,cs),
(358,-200,o),
(435,-110,o),
(422,15,cs)
);
},
{
closed = 1;
nodes = (
(169,65,o),
(141,98,o),
(142,149,cs),
(146,461,l),
(67,453,l),
(67,129,ls),
(67,43,o),
(119,-6,o),
(221,-6,c),
(260,5,o),
(301,27,o),
(341,62,c),
(364,62,l),
(353,136,l),
(310,91,o),
(263,65,o),
(219,65,cs)
);
}
);
width = 488;
},
{
anchors = (
{
name = ogonek;
pos = (483,14);
},
{
name = top;
pos = (255,459);
}
);
associatedMasterId = "DE016B7A-D921-4FAF-BA9C-94A7D66B995D";
background = {
shapes = (
{
closed = 1;
nodes = (
(439,459,l),
(354,459,l),
(358,258,l),
(358,133,l),
(314,90,o),
(270,65,o),
(225,65,cs),
(174,65,o),
(149,98,o),
(150,149,cs),
(156,459,l),
(70,459,l),
(73,259,l),
(72,129,ls),
(71,43,o),
(124,-6,o),
(227,-6,c),
(266,5,o),
(310,29,o),
(351,64,c),
(357,64,l),
(357,-2,l),
(438,6,l),
(435,265,l)
);
}
);
};
layerId = "39A9AEF4-D204-404F-9C4B-6BF08F725CC0";
name = "Nov 16 16, 09:54";
shapes = (
{
closed = 1;
nodes = (
(345,453,l),
(345,123,l),
(306,86,o),
(264,65,o),
(224,65,cs),
(174,65,o),
(149,98,o),
(150,149,cs),
(156,461,l),
(70,453,l),
(74,259,l),
(72,129,ls),
(71,43,o),
(124,-6,o),
(226,-6,c),
(265,5,o),
(306,27,o),
(346,62,c),
(354,62,l),
(360,24,o),
(383,-2,o),
(425,-6,c),
(445,-4,o),
(466,4,o),
(483,14,c),
(491,62,l),
(483,69,l),
(467,65,o),
(458,64,o),
(449,64,cs),
(428,64,o),
(420,73,o),
(420,100,c),
(426,461,l)
);
}
);
width = 511;
}
);
metricLeft = "=u";
metricWidth = "=u";
}
{
glyphname = zero.sc;
layers = (
{
layerId = "DE016B7A-D921-4FAF-BA9C-94A7D66B995D";
shapes = (
{
closed = 1;
nodes = (
(130,505,o),
(44,403,o),
(44,244,cs),
(44,92,o),
(127,-7,o),
(239,-7,cs),
(358,-7,o),
(443,95,o),
(443,255,cs),
(443,406,o),
(361,505,o),
(249,505,cs)
);
},
{
closed = 1;
nodes = (
(322,428,o),
(382,362,o),
(382,245,cs),
(382,132,o),
(323,70,o),
(244,70,cs),
(165,70,o),
(105,132,o),
(105,250,cs),
(105,363,o),
(165,428,o),
(243,428,cs)
);
}
);
width = 487;
}
);
}
